# Blender v2.91.2 OBJ File: 'archCorner.blend'
# www.blender.org
mtllib archCorner.mtl
o Main_Cube_Cube
v -0.500000 -1.000000 -0.500000
v -0.500000 -1.000000 0.500000
v 0.500000 -1.000000 -0.500000
v 0.500000 0.000000 -0.500000
v 0.500000 -1.000000 0.500000
v 0.500000 0.000000 0.500000
v 0.400000 -0.100000 0.500000
v 0.400000 -0.100000 0.500000
v 0.400000 0.000000 0.500000
v -0.500000 -0.800000 0.500000
v -0.300000 -0.800000 0.500000
v -0.300000 -0.800000 0.500000
v 0.400000 -0.100001 0.500000
v 0.386550 -0.236564 0.500000
v 0.346715 -0.367879 0.500000
v 0.282028 -0.488900 0.500000
v 0.194974 -0.594975 0.500000
v 0.088898 -0.682029 0.500000
v -0.163438 -0.786550 0.500000
v -0.032123 -0.746716 0.500000
v 0.400000 -0.100001 -0.500000
v 0.400000 -0.100000 -0.500000
v 0.400000 0.000000 -0.500000
v 0.386550 -0.236564 -0.500000
v -0.500000 -0.800000 -0.500000
v 0.346715 -0.367879 -0.500000
v 0.282028 -0.488900 -0.500000
v 0.194974 -0.594975 -0.500000
v 0.400000 -0.100000 -0.500000
v 0.088898 -0.682029 -0.500000
v -0.032123 -0.746716 -0.500000
v -0.163438 -0.786550 -0.500000
v -0.300000 -0.800000 -0.500000
v -0.300000 -0.800000 -0.500000
vt 0.875000 0.500000
vt 0.625000 0.750000
vt 0.625000 0.500000
vt 0.625000 0.000000
vt 0.375000 0.250000
vt 0.375000 0.000000
vt 0.625000 1.000000
vt 0.497225 0.945507
vt 0.523744 0.923743
vt 0.125000 0.500000
vt 0.150000 0.750000
vt 0.125000 0.750000
vt 0.575000 0.750000
vt 0.575000 0.500000
vt 0.625000 0.250000
vt 0.523744 0.326256
vt 0.497225 0.304493
vt 0.625000 0.062500
vt 0.625000 0.187500
vt 0.625000 0.187500
vt 0.875000 0.687500
vt 0.825000 0.562500
vt 0.825000 0.687500
vt 0.593750 0.062500
vt 0.625000 0.187500
vt 0.625000 0.062500
vt 0.875000 0.687500
vt 0.875000 0.562500
vt 0.875000 0.562500
vt 0.250000 0.875000
vt 0.250000 0.625000
vt 0.250000 0.625000
vt 0.218750 0.625000
vt 0.218750 0.875000
vt 0.187500 0.625000
vt 0.187500 0.875000
vt 0.156250 0.625000
vt 0.156250 0.875000
vt 0.125000 0.625000
vt 0.125000 0.875000
vt 0.093750 0.625000
vt 0.093750 0.875000
vt 0.062500 0.625000
vt 0.062500 0.875000
vt 0.031250 0.625000
vt 0.031250 0.875000
vt 0.000000 0.625000
vt 0.000000 0.875000
vt 0.875000 0.750000
vt 0.571637 0.834140
vt 0.575000 0.800000
vt 0.575000 0.800000
vt 0.375000 1.000000
vt 0.400000 0.975000
vt 0.375000 0.975000
vt 0.400000 0.975000
vt 0.400000 0.975000
vt 0.434141 0.971637
vt 0.561679 0.866969
vt 0.545507 0.897225
vt 0.466970 0.961679
vt 0.150000 0.500000
vt 0.375000 0.275000
vt 0.400000 0.275000
vt 0.571638 0.415859
vt 0.575000 0.450000
vt 0.575000 0.450000
vt 0.400000 0.275000
vt 0.400000 0.275000
vt 0.561679 0.383031
vt 0.434141 0.278363
vt 0.466970 0.288321
vt 0.545507 0.352775
vt 0.625000 0.062500
vt 0.875000 0.562500
vt 0.593750 0.187500
vt 0.875000 0.687500
vt 0.250000 0.875000
vn 0.0000 -1.0000 0.0000
vn 1.0000 0.0000 0.0000
vn -0.0000 0.0000 1.0000
vn 0.0000 1.0000 0.0000
vn -1.0000 0.0000 0.0000
vn -0.0000 0.0000 -1.0000
vn -0.9962 -0.0866 0.0000
vn -0.9952 0.0980 0.0000
vn -0.9569 0.2903 0.0000
vn -0.8819 0.4714 0.0000
vn -0.7730 0.6344 0.0000
vn -0.6344 0.7730 0.0000
vn -0.4714 0.8819 0.0000
vn -0.2903 0.9569 0.0000
vn -0.0980 0.9952 0.0000
vn 0.9923 0.0000 0.1240
usemtl Material
s off
f 3/1/1 2/2/1 1/3/1
f 5/4/2 4/5/2 6/6/2
f 5/7/3 16/8/3 17/9/3
f 4/10/4 9/11/4 6/12/4
f 1/3/5 10/13/5 25/14/5
f 3/15/6 28/16/6 27/17/6
f 12/18/5 33/19/5 34/20/5
f 12/21/4 25/22/4 10/23/4
f 9/24/5 29/25/5 8/26/5
f 7/27/4 29/28/4 22/29/4
f 13/30/7 22/31/7 21/32/7
f 13/30/8 24/33/8 14/34/8
f 14/34/9 26/35/9 15/36/9
f 15/36/10 27/37/10 16/38/10
f 16/38/11 28/39/11 17/40/11
f 17/40/12 30/41/12 18/42/12
f 18/42/13 31/43/13 20/44/13
f 20/44/14 32/45/14 19/46/14
f 19/46/15 33/47/15 11/48/15
f 3/1/1 5/49/1 2/2/1
f 5/4/2 3/15/2 4/5/2
f 19/50/3 11/51/3 12/52/3
f 12/52/3 10/13/3 2/2/3
f 5/7/3 6/53/3 8/54/3
f 6/53/3 9/55/3 8/54/3
f 8/54/3 7/56/3 5/7/3
f 7/56/16 13/57/16 5/7/16
f 12/52/3 2/2/3 19/50/3
f 2/2/3 5/7/3 19/50/3
f 5/7/3 13/57/3 14/58/3
f 20/59/3 19/50/3 5/7/3
f 18/60/3 20/59/3 5/7/3
f 5/7/3 14/58/3 15/61/3
f 5/7/3 15/61/3 16/8/3
f 17/9/3 18/60/3 5/7/3
f 4/10/4 23/62/4 9/11/4
f 1/3/5 2/2/5 10/13/5
f 23/63/6 4/5/6 29/64/6
f 4/5/6 3/15/6 29/64/6
f 3/15/6 1/3/6 32/65/6
f 1/3/6 25/14/6 34/66/6
f 34/66/6 33/67/6 32/65/6
f 1/3/6 34/66/6 32/65/6
f 21/68/6 22/69/6 3/15/6
f 22/69/6 29/64/6 3/15/6
f 3/15/6 32/65/6 31/70/6
f 24/71/6 21/68/6 3/15/6
f 26/72/6 24/71/6 3/15/6
f 3/15/6 31/70/6 30/73/6
f 3/15/6 30/73/6 28/16/6
f 27/17/6 26/72/6 3/15/6
f 12/18/5 11/74/5 33/19/5
f 12/21/4 34/75/4 25/22/4
f 9/24/5 23/76/5 29/25/5
f 7/27/4 8/77/4 29/28/4
f 13/30/7 7/78/7 22/31/7
f 13/30/8 21/32/8 24/33/8
f 14/34/9 24/33/9 26/35/9
f 15/36/10 26/35/10 27/37/10
f 16/38/11 27/37/11 28/39/11
f 17/40/12 28/39/12 30/41/12
f 18/42/13 30/41/13 31/43/13
f 20/44/14 31/43/14 32/45/14
f 19/46/15 32/45/15 33/47/15
