# Blender v2.91.2 OBJ File: 'archBlock.blend'
# www.blender.org
mtllib archBlock.mtl
o Main_Cube_Cube
v -0.500000 -1.000000 -0.500000
v -0.500000 0.000000 -0.500000
v -0.500000 -1.000000 0.500000
v -0.500000 0.000000 0.500000
v 0.500000 -1.000000 -0.500000
v 0.500000 0.000000 -0.500000
v 0.500000 -1.000000 0.500000
v 0.500000 0.000000 0.500000
v 0.282843 -0.682843 -0.500000
v 0.282843 -0.682843 0.500000
v -0.400000 -0.400000 0.500000
v -0.400000 -0.400000 -0.500000
v 0.332588 -0.622228 0.500000
v 0.332588 -0.622228 -0.500000
v 0.369552 -0.553073 0.500000
v 0.369552 -0.553073 -0.500000
v -0.400000 -0.400000 -0.500000
v -0.400000 -0.400000 0.500000
v -0.392314 -0.478036 0.500000
v -0.392314 -0.478036 -0.500000
v 0.392314 -0.478036 0.500000
v 0.392314 -0.478036 -0.500000
v 0.400000 0.000000 0.500000
v -0.369552 -0.553073 0.500000
v -0.369552 -0.553073 -0.500000
v 0.400000 -0.400000 0.500000
v 0.400000 -0.400000 0.500000
v 0.400000 -0.400000 -0.500000
v 0.400000 -0.400000 -0.500000
v 0.400000 -0.400000 0.500000
v 0.400000 0.000000 -0.500000
v 0.400000 -0.400000 -0.500000
v -0.332588 -0.622228 0.500000
v -0.332588 -0.622228 -0.500000
v -0.400000 0.000000 -0.500000
v -0.282843 -0.682843 0.500000
v -0.282843 -0.682843 -0.500000
v -0.400000 0.000000 0.500000
v -0.400000 -0.400000 0.500000
v -0.400000 -0.400000 -0.500000
v -0.222228 -0.732588 0.500000
v -0.222228 -0.732588 -0.500000
v -0.153073 -0.769552 0.500000
v -0.153073 -0.769552 -0.500000
v -0.078036 -0.792314 0.500000
v -0.078036 -0.792314 -0.500000
v 0.000000 -0.800000 0.500000
v 0.000000 -0.800000 -0.500000
v 0.078036 -0.792314 0.500000
v 0.078036 -0.792314 -0.500000
v 0.153074 -0.769552 0.500000
v 0.153074 -0.769552 -0.500000
v 0.222228 -0.732588 0.500000
v 0.222228 -0.732588 -0.500000
vt 0.875000 0.500000
vt 0.625000 0.750000
vt 0.625000 0.500000
vt 0.625000 0.000000
vt 0.375000 0.250000
vt 0.375000 0.000000
vt 0.375000 0.750000
vt 0.375000 0.500000
vt 0.575000 0.875000
vt 0.573079 0.855491
vt 0.350000 0.750000
vt 0.350000 0.500000
vt 0.125000 0.500000
vt 0.150000 0.750000
vt 0.125000 0.750000
vt 0.575000 0.375000
vt 0.573079 0.355491
vt 0.625000 0.250000
vt 0.750000 0.625000
vt 0.718750 0.875000
vt 0.750000 0.875000
vt 0.718750 0.625000
vt 0.687500 0.875000
vt 0.687500 0.625000
vt 0.656250 0.875000
vt 0.656250 0.625000
vt 0.625000 0.875000
vt 0.593750 0.625000
vt 0.625000 0.625000
vt 0.562500 0.625000
vt 0.593750 0.875000
vt 0.531250 0.625000
vt 0.562500 0.875000
vt 0.500000 0.625000
vt 0.531250 0.875000
vt 0.468750 0.625000
vt 0.500000 0.875000
vt 0.437500 0.625000
vt 0.468750 0.875000
vt 0.406250 0.625000
vt 0.437500 0.875000
vt 0.375000 0.625000
vt 0.406250 0.875000
vt 0.343750 0.875000
vt 0.375000 0.875000
vt 0.312500 0.625000
vt 0.343750 0.625000
vt 0.281250 0.625000
vt 0.312500 0.875000
vt 0.250000 0.875000
vt 0.281250 0.875000
vt 0.625000 0.062500
vt 0.625000 0.187500
vt 0.625000 0.062500
vt 0.500000 0.187500
vt 0.500000 0.062500
vt 0.625000 0.687500
vt 0.500000 0.562500
vt 0.500000 0.687500
vt 0.625000 0.562500
vt 0.625000 0.562500
vt 0.625000 0.562500
vt 0.625000 0.687500
vt 0.625000 0.687500
vt 0.875000 0.687500
vt 0.875000 0.562500
vt 0.875000 0.562500
vt 0.875000 0.750000
vt 0.475000 0.975000
vt 0.475000 0.975000
vt 0.494509 0.973079
vt 0.375000 0.975000
vt 0.475000 0.975000
vt 0.375000 1.000000
vt 0.625000 1.000000
vt 0.375000 0.775000
vt 0.475000 0.775000
vt 0.475000 0.775000
vt 0.475000 0.775000
vt 0.494509 0.776921
vt 0.513268 0.967388
vt 0.530557 0.958147
vt 0.513268 0.782612
vt 0.530557 0.791853
vt 0.545711 0.945711
vt 0.558147 0.930557
vt 0.545711 0.804289
vt 0.558147 0.819443
vt 0.567388 0.913268
vt 0.573079 0.894509
vt 0.567388 0.836732
vt 0.150000 0.500000
vt 0.475000 0.475000
vt 0.475000 0.475000
vt 0.475000 0.475000
vt 0.375000 0.475000
vt 0.375000 0.275000
vt 0.475000 0.275000
vt 0.475000 0.275000
vt 0.494509 0.473079
vt 0.494509 0.276921
vt 0.475000 0.275000
vt 0.513268 0.467388
vt 0.530557 0.458147
vt 0.513268 0.282612
vt 0.530557 0.291853
vt 0.545711 0.445711
vt 0.558147 0.430557
vt 0.545711 0.304289
vt 0.558147 0.319443
vt 0.567388 0.413268
vt 0.573078 0.394509
vt 0.567388 0.336732
vt 0.250000 0.625000
vt 0.625000 0.187500
vt 0.875000 0.687500
vn 0.0000 -1.0000 0.0000
vn 1.0000 0.0000 0.0000
vn -1.0000 0.0000 0.0000
vn 0.0000 0.0000 1.0000
vn 0.0000 1.0000 0.0000
vn 0.0000 0.0000 -1.0000
vn 0.9952 0.0980 0.0000
vn 0.9569 0.2903 0.0000
vn 0.8819 0.4714 0.0000
vn 0.7730 0.6344 0.0000
vn 0.6344 0.7730 0.0000
vn 0.4714 0.8819 0.0000
vn 0.2903 0.9569 0.0000
vn 0.0980 0.9952 0.0000
vn -0.0980 0.9952 0.0000
vn -0.2903 0.9569 0.0000
vn -0.4714 0.8819 0.0000
vn -0.6344 0.7730 0.0000
vn -0.7730 0.6344 0.0000
vn -0.8819 0.4714 0.0000
vn -0.9569 0.2903 0.0000
vn -0.9952 0.0980 0.0000
usemtl Material
s off
f 5/1/1 3/2/1 1/3/1
f 7/4/2 6/5/2 8/6/2
f 1/3/3 4/7/3 2/8/3
f 47/9/4 45/10/4 3/2/4
f 2/8/5 38/11/5 35/12/5
f 6/13/5 23/14/5 8/15/5
f 48/16/6 50/17/6 5/18/6
f 18/19/7 20/20/7 17/21/7
f 19/22/8 25/23/8 20/20/8
f 24/24/9 34/25/9 25/23/9
f 33/26/10 37/27/10 34/25/10
f 41/28/11 37/27/11 36/29/11
f 43/30/12 42/31/12 41/28/12
f 45/32/13 44/33/13 43/30/13
f 47/34/14 46/35/14 45/32/14
f 49/36/15 48/37/15 47/34/15
f 51/38/16 50/39/16 49/36/16
f 53/40/17 52/41/17 51/38/17
f 10/42/18 54/43/18 53/40/18
f 10/42/19 14/44/19 9/45/19
f 15/46/20 14/44/20 13/47/20
f 21/48/21 16/49/21 15/46/21
f 21/48/22 29/50/22 22/51/22
f 26/52/3 32/53/3 30/54/3
f 31/55/3 26/52/3 23/56/3
f 11/57/2 35/58/2 38/59/2
f 11/57/2 40/60/2 12/61/2
f 17/62/4 39/63/4 18/64/4
f 27/65/4 32/66/4 29/67/4
f 5/1/1 7/68/1 3/2/1
f 7/4/2 5/18/2 6/5/2
f 1/3/3 3/2/3 4/7/3
f 30/69/4 27/70/4 21/71/4
f 23/72/4 26/73/4 8/74/4
f 26/73/4 30/69/4 7/75/4
f 7/75/4 8/74/4 26/73/4
f 38/76/4 4/7/4 11/77/4
f 4/7/4 3/2/4 11/77/4
f 18/78/4 39/79/4 11/77/4
f 7/75/4 30/69/4 21/71/4
f 18/78/4 11/77/4 3/2/4
f 19/80/4 18/78/4 3/2/4
f 7/75/4 21/71/4 15/81/4
f 7/75/4 15/81/4 13/82/4
f 24/83/4 19/80/4 3/2/4
f 33/84/4 24/83/4 3/2/4
f 7/75/4 13/82/4 10/85/4
f 7/75/4 10/85/4 53/86/4
f 36/87/4 33/84/4 3/2/4
f 41/88/4 36/87/4 3/2/4
f 7/75/4 53/86/4 51/89/4
f 7/75/4 51/89/4 49/90/4
f 43/91/4 41/88/4 3/2/4
f 45/10/4 43/91/4 3/2/4
f 3/2/4 7/75/4 47/9/4
f 7/75/4 49/90/4 47/9/4
f 2/8/5 4/7/5 38/11/5
f 6/13/5 31/92/5 23/14/5
f 12/93/4 40/94/4 17/95/4
f 35/96/6 12/93/6 2/8/6
f 12/93/4 17/95/4 1/3/4
f 1/3/6 2/8/6 12/93/6
f 31/97/6 6/5/6 28/98/6
f 6/5/6 5/18/6 28/98/6
f 32/99/6 28/98/6 5/18/6
f 1/3/6 17/95/6 20/100/6
f 22/101/6 29/102/6 32/99/6
f 22/101/6 32/99/6 5/18/6
f 1/3/6 20/100/6 25/103/6
f 1/3/6 25/103/6 34/104/6
f 16/105/6 22/101/6 5/18/6
f 14/106/6 16/105/6 5/18/6
f 1/3/6 34/104/6 37/107/6
f 1/3/6 37/107/6 42/108/6
f 9/109/6 14/106/6 5/18/6
f 54/110/6 9/109/6 5/18/6
f 1/3/6 42/108/6 44/111/6
f 1/3/6 44/111/6 46/112/6
f 52/113/6 54/110/6 5/18/6
f 50/17/6 52/113/6 5/18/6
f 5/18/6 1/3/6 48/16/6
f 1/3/6 46/112/6 48/16/6
f 18/19/7 19/22/7 20/20/7
f 19/22/8 24/24/8 25/23/8
f 24/24/9 33/26/9 34/25/9
f 33/26/10 36/29/10 37/27/10
f 41/28/11 42/31/11 37/27/11
f 43/30/12 44/33/12 42/31/12
f 45/32/13 46/35/13 44/33/13
f 47/34/14 48/37/14 46/35/14
f 49/36/15 50/39/15 48/37/15
f 51/38/16 52/41/16 50/39/16
f 53/40/17 54/43/17 52/41/17
f 10/42/18 9/45/18 54/43/18
f 10/42/19 13/47/19 14/44/19
f 15/46/20 16/49/20 14/44/20
f 21/48/21 22/51/21 16/49/21
f 21/48/22 27/114/22 29/50/22
f 26/52/3 28/115/3 32/53/3
f 31/55/3 28/115/3 26/52/3
f 11/57/2 12/61/2 35/58/2
f 11/57/2 39/63/2 40/60/2
f 17/62/4 40/60/4 39/63/4
f 27/65/5 30/116/5 32/66/5
