# Blender v2.91.2 OBJ File: 'arrowBlock.blend'
# www.blender.org
mtllib arrowBlock.mtl
o Main_Cube_Cube
v 0.300000 -0.880000 0.000000
v -0.300000 -0.880000 0.300000
v -0.300000 -0.880000 -0.300000
v -0.100000 -0.843634 0.000000
v -0.500000 -1.000000 -0.500000
v -0.500000 0.000000 -0.500000
v -0.500000 -1.000000 0.500000
v -0.500000 0.000000 0.500000
v 0.500000 -1.000000 -0.500000
v 0.500000 0.000000 -0.500000
v 0.500000 -1.000000 0.500000
v 0.500000 0.000000 0.500000
v 0.300000 -1.000000 0.000000
v -0.300000 -1.000000 -0.300000
v -0.300000 -1.000000 0.300000
vt 0.625000 0.750000
vt 0.375000 1.000000
vt 0.375000 0.750000
vt 0.625000 0.000000
vt 0.375000 0.250000
vt 0.375000 0.000000
vt 0.375000 0.500000
vt 0.125000 0.750000
vt 0.125000 0.500000
vt 0.625000 0.500000
vt 0.625000 0.250000
vt 0.375000 0.250000
vt 0.500000 0.500000
vt 0.500000 0.250000
vt 0.375000 0.750000
vt 0.375000 0.500000
vt 0.375000 1.000000
vt 0.500000 0.750000
vt 0.375000 0.250000
vt 0.375000 0.750000
vt 0.375000 0.500000
vt 0.675000 0.700000
vt 0.875000 0.500000
vt 0.875000 0.750000
vt 0.825000 0.625000
vt 0.625000 1.000000
vt 0.500000 1.000000
vt 0.675000 0.550000
vn 0.0000 0.0000 1.0000
vn 1.0000 0.0000 0.0000
vn 0.0000 1.0000 0.0000
vn -1.0000 0.0000 0.0000
vn 0.0000 0.0000 -1.0000
vn -0.4472 0.0000 0.8944
vn -0.4472 0.0000 -0.8944
vn -0.0891 -0.9800 0.1782
vn -0.0891 -0.9800 -0.1782
vn 0.1789 -0.9839 0.0000
vn 0.0000 -1.0000 0.0000
usemtl Material
s off
f 7/1/1 12/2/1 8/3/1
f 11/4/2 10/5/2 12/6/2
f 6/7/3 12/8/3 10/9/3
f 5/10/4 8/3/4 6/7/4
f 9/11/5 6/7/5 10/5/5
f 1/12/6 14/13/6 13/14/6
f 2/15/2 14/13/2 3/16/2
f 1/17/7 15/18/7 2/15/7
f 1/12/8 4/19/8 3/16/8
f 2/15/9 4/20/9 1/17/9
f 3/16/10 4/21/10 2/15/10
f 5/10/11 15/22/11 7/1/11
f 9/23/11 11/24/11 13/25/11
f 7/1/1 11/26/1 12/2/1
f 11/4/2 9/11/2 10/5/2
f 6/7/3 8/3/3 12/8/3
f 5/10/4 7/1/4 8/3/4
f 9/11/5 5/10/5 6/7/5
f 1/12/6 3/16/6 14/13/6
f 2/15/2 15/18/2 14/13/2
f 1/17/7 13/27/7 15/18/7
f 5/10/11 14/28/11 15/22/11
f 13/25/11 14/28/11 9/23/11
f 14/28/11 5/10/11 9/23/11
f 11/24/11 7/1/11 15/22/11
f 11/24/11 15/22/11 13/25/11
