# Blender v2.91.2 OBJ File: 'edge.blend'
# www.blender.org
mtllib edge.mtl
o Main_Cube_Cube.002
v 0.500000 0.000000 -0.500000
v 0.300000 0.000000 -0.500000
v 0.300000 -0.200000 -0.500000
v 0.500000 0.000000 0.500000
v 0.300000 0.000000 0.500000
v 0.300000 -0.200000 0.500000
v 0.400000 -0.200000 0.500000
v 0.400000 -0.200000 -0.500000
v 0.401921 -0.180491 -0.500000
v 0.401921 -0.180491 0.500000
v 0.407612 -0.161732 -0.500000
v 0.407612 -0.161732 0.500000
v 0.416853 -0.144443 -0.500000
v 0.416853 -0.144443 0.500000
v 0.429289 -0.129289 -0.500000
v 0.429289 -0.129289 0.500000
v 0.444443 -0.116853 -0.500000
v 0.444443 -0.116853 0.500000
v 0.461732 -0.107612 -0.500000
v 0.461732 -0.107612 0.500000
v 0.480491 -0.101921 -0.500000
v 0.480491 -0.101921 0.500000
v 0.500000 -0.100000 -0.500000
v 0.500000 -0.100000 0.500000
v 0.500000 -0.100000 -0.500000
v 0.500000 -0.100000 0.500000
v 0.400000 -0.200000 -0.500000
v 0.400000 -0.200000 0.500000
vt 0.625000 0.250000
vt 0.375000 0.500000
vt 0.375000 0.250000
vt 0.125000 0.750000
vt 0.125000 0.500000
vt 1.000000 0.625000
vt 0.968750 0.875000
vt 1.000000 0.875000
vt 0.937500 0.625000
vt 0.968750 0.625000
vt 0.906250 0.625000
vt 0.937500 0.875000
vt 0.875000 0.625000
vt 0.906250 0.875000
vt 0.843750 0.875000
vt 0.875000 0.875000
vt 0.812500 0.625000
vt 0.843750 0.625000
vt 0.781250 0.625000
vt 0.812500 0.875000
vt 0.750000 0.625000
vt 0.781250 0.875000
vt 0.750000 0.875000
vt 0.750000 0.625000
vt 0.750000 0.875000
vt 0.000000 0.625000
vt 0.000000 0.875000
vt 0.000000 0.625000
vt 0.536612 0.088388
vt 0.555554 0.103934
vt 0.536612 0.661612
vt 0.521066 0.680554
vt 0.375000 1.000000
vt 0.500000 0.750000
vt 0.500000 1.000000
vt 0.625000 0.500000
vt 0.875000 0.625000
vt 0.625000 0.625000
vt 0.375000 0.750000
vt 0.000000 0.875000
vt 0.625000 0.125000
vt 0.625000 0.125000
vt 0.375000 0.000000
vt 0.521066 0.069446
vt 0.500000 0.000000
vt 0.500000 0.000000
vt 0.502402 0.024386
vt 0.600614 0.122598
vt 0.577165 0.115485
vt 0.509515 0.047835
vt 0.500000 0.750000
vt 0.555554 0.646066
vt 0.625000 0.625000
vt 0.600614 0.627402
vt 0.502402 0.725614
vt 0.509515 0.702165
vt 0.577165 0.634515
vt 0.875000 0.500000
vn -1.0000 0.0000 -0.0000
vn 0.0000 1.0000 0.0000
vn 0.9952 -0.0980 0.0000
vn 0.9569 -0.2903 0.0000
vn 0.8819 -0.4714 0.0000
vn 0.7730 -0.6344 0.0000
vn 0.6344 -0.7730 0.0000
vn 0.4714 -0.8819 0.0000
vn 0.2903 -0.9569 0.0000
vn 0.0980 -0.9952 0.0000
vn 1.0000 0.0000 0.0000
vn 0.0000 0.0000 -1.0000
vn 0.0000 0.0000 1.0000
vn 0.0000 -1.0000 -0.0000
vn -0.0624 -0.9981 0.0000
usemtl None
s off
f 3/1/1 5/2/1 2/3/1
f 5/2/2 1/4/2 2/5/2
f 8/6/3 10/7/3 7/8/3
f 11/9/4 10/7/4 9/10/4
f 13/11/5 12/12/5 11/9/5
f 15/13/6 14/14/6 13/11/6
f 15/13/7 18/15/7 16/16/7
f 19/17/8 18/15/8 17/18/8
f 21/19/9 20/20/9 19/17/9
f 23/21/10 22/22/10 21/19/10
f 24/23/1 25/24/1 26/25/1
f 8/26/11 28/27/11 27/28/11
f 15/29/12 13/30/12 2/3/12
f 16/31/13 18/32/13 5/2/13
f 1/33/11 26/34/11 25/35/11
f 6/36/14 27/37/14 28/38/14
f 3/1/1 6/36/1 5/2/1
f 5/2/2 4/39/2 1/4/2
f 8/6/3 9/10/3 10/7/3
f 11/9/4 12/12/4 10/7/4
f 13/11/5 14/14/5 12/12/5
f 15/13/6 16/16/6 14/14/6
f 15/13/7 17/18/7 18/15/7
f 19/17/8 20/20/8 18/15/8
f 21/19/9 22/22/9 20/20/9
f 23/21/10 24/23/10 22/22/10
f 24/23/15 23/21/15 25/24/15
f 8/26/11 7/40/11 28/27/11
f 8/41/12 27/42/12 3/1/12
f 3/1/12 2/3/12 13/30/12
f 2/3/12 1/43/12 17/44/12
f 15/29/12 2/3/12 17/44/12
f 1/43/12 25/45/12 23/46/12
f 1/43/12 23/46/12 21/47/12
f 9/48/12 8/41/12 3/1/12
f 11/49/12 9/48/12 3/1/12
f 1/43/12 21/47/12 19/50/12
f 1/43/12 19/50/12 17/44/12
f 13/30/12 11/49/12 3/1/12
f 24/51/13 26/34/13 4/39/13
f 4/39/13 5/2/13 18/32/13
f 5/2/13 6/36/13 14/52/13
f 16/31/13 5/2/13 14/52/13
f 6/36/13 28/38/13 7/53/13
f 6/36/13 7/53/13 10/54/13
f 22/55/13 24/51/13 4/39/13
f 20/56/13 22/55/13 4/39/13
f 6/36/13 10/54/13 12/57/13
f 6/36/13 12/57/13 14/52/13
f 18/32/13 20/56/13 4/39/13
f 1/33/11 4/39/11 26/34/11
f 6/36/14 3/58/14 27/37/14
o Main_Cube.004_Cube.006
v -0.500000 0.000000 0.500000
v -0.300000 0.000000 0.500000
v -0.300000 -0.200000 0.500000
v -0.500000 0.000000 -0.500000
v -0.300000 0.000000 -0.500000
v -0.300000 -0.200000 -0.500000
v -0.400000 -0.200000 -0.500000
v -0.400000 -0.200000 0.500000
v -0.401921 -0.180491 0.500000
v -0.401921 -0.180491 -0.500000
v -0.407612 -0.161732 0.500000
v -0.407612 -0.161732 -0.500000
v -0.416853 -0.144443 0.500000
v -0.416853 -0.144443 -0.500000
v -0.429289 -0.129289 0.500000
v -0.429289 -0.129289 -0.500000
v -0.444443 -0.116853 0.500000
v -0.444443 -0.116853 -0.500000
v -0.461732 -0.107612 0.500000
v -0.461732 -0.107612 -0.500000
v -0.480491 -0.101921 0.500000
v -0.480491 -0.101921 -0.500000
v -0.500000 -0.100000 0.500000
v -0.500000 -0.100000 -0.500000
v -0.500000 -0.100000 0.500000
v -0.500000 -0.100000 -0.500000
v -0.400000 -0.200000 0.500000
v -0.400000 -0.200000 -0.500000
vt 0.625000 0.250000
vt 0.375000 0.500000
vt 0.375000 0.250000
vt 0.125000 0.750000
vt 0.125000 0.500000
vt 1.000000 0.625000
vt 0.968750 0.875000
vt 1.000000 0.875000
vt 0.937500 0.625000
vt 0.968750 0.625000
vt 0.906250 0.625000
vt 0.937500 0.875000
vt 0.875000 0.625000
vt 0.906250 0.875000
vt 0.843750 0.875000
vt 0.875000 0.875000
vt 0.812500 0.625000
vt 0.843750 0.625000
vt 0.781250 0.625000
vt 0.812500 0.875000
vt 0.750000 0.625000
vt 0.781250 0.875000
vt 0.750000 0.875000
vt 0.750000 0.625000
vt 0.750000 0.875000
vt 0.000000 0.625000
vt 0.000000 0.875000
vt 0.000000 0.625000
vt 0.536612 0.088388
vt 0.555554 0.103934
vt 0.536612 0.661612
vt 0.521066 0.680554
vt 0.375000 1.000000
vt 0.500000 0.750000
vt 0.500000 1.000000
vt 0.625000 0.500000
vt 0.875000 0.625000
vt 0.625000 0.625000
vt 0.375000 0.750000
vt 0.000000 0.875000
vt 0.625000 0.125000
vt 0.625000 0.125000
vt 0.375000 0.000000
vt 0.521066 0.069446
vt 0.500000 0.000000
vt 0.500000 0.000000
vt 0.502402 0.024386
vt 0.600614 0.122598
vt 0.577165 0.115485
vt 0.509515 0.047835
vt 0.500000 0.750000
vt 0.555554 0.646066
vt 0.625000 0.625000
vt 0.600614 0.627402
vt 0.502402 0.725614
vt 0.509515 0.702165
vt 0.577165 0.634515
vt 0.875000 0.500000
vn 1.0000 0.0000 0.0000
vn 0.0000 1.0000 0.0000
vn -0.9952 -0.0980 0.0000
vn -0.9569 -0.2903 0.0000
vn -0.8819 -0.4714 0.0000
vn -0.7730 -0.6344 0.0000
vn -0.6344 -0.7730 0.0000
vn -0.4714 -0.8819 0.0000
vn -0.2903 -0.9569 0.0000
vn -0.0980 -0.9952 0.0000
vn -1.0000 0.0000 0.0000
vn 0.0000 0.0000 1.0000
vn 0.0000 0.0000 -1.0000
vn 0.0000 -1.0000 0.0000
vn 0.0624 -0.9981 0.0000
usemtl None
s off
f 31/59/16 33/60/16 30/61/16
f 33/60/17 29/62/17 30/63/17
f 36/64/18 38/65/18 35/66/18
f 39/67/19 38/65/19 37/68/19
f 41/69/20 40/70/20 39/67/20
f 43/71/21 42/72/21 41/69/21
f 43/71/22 46/73/22 44/74/22
f 47/75/23 46/73/23 45/76/23
f 49/77/24 48/78/24 47/75/24
f 51/79/25 50/80/25 49/77/25
f 52/81/16 53/82/16 54/83/16
f 36/84/26 56/85/26 55/86/26
f 43/87/27 41/88/27 30/61/27
f 44/89/28 46/90/28 33/60/28
f 29/91/26 54/92/26 53/93/26
f 34/94/29 55/95/29 56/96/29
f 31/59/16 34/94/16 33/60/16
f 33/60/17 32/97/17 29/62/17
f 36/64/18 37/68/18 38/65/18
f 39/67/19 40/70/19 38/65/19
f 41/69/20 42/72/20 40/70/20
f 43/71/21 44/74/21 42/72/21
f 43/71/22 45/76/22 46/73/22
f 47/75/23 48/78/23 46/73/23
f 49/77/24 50/80/24 48/78/24
f 51/79/25 52/81/25 50/80/25
f 52/81/30 51/79/30 53/82/30
f 36/84/26 35/98/26 56/85/26
f 36/99/27 55/100/27 31/59/27
f 31/59/27 30/61/27 41/88/27
f 30/61/27 29/101/27 45/102/27
f 43/87/27 30/61/27 45/102/27
f 29/101/27 53/103/27 51/104/27
f 29/101/27 51/104/27 49/105/27
f 37/106/27 36/99/27 31/59/27
f 39/107/27 37/106/27 31/59/27
f 29/101/27 49/105/27 47/108/27
f 29/101/27 47/108/27 45/102/27
f 41/88/27 39/107/27 31/59/27
f 52/109/28 54/92/28 32/97/28
f 32/97/28 33/60/28 46/90/28
f 33/60/28 34/94/28 42/110/28
f 44/89/28 33/60/28 42/110/28
f 34/94/28 56/96/28 35/111/28
f 34/94/28 35/111/28 38/112/28
f 50/113/28 52/109/28 32/97/28
f 48/114/28 50/113/28 32/97/28
f 34/94/28 38/112/28 40/115/28
f 34/94/28 40/115/28 42/110/28
f 46/90/28 48/114/28 32/97/28
f 29/91/26 32/97/26 54/92/26
f 34/94/29 31/116/29 55/95/29
