# Blender v2.91.2 OBJ File: 'curbEnd.blend'
# www.blender.org
mtllib curbEnd.mtl
o CubeL_Cube.006
v 0.500000 0.000000 -0.300000
v 0.500000 -0.200000 -0.300000
v 0.500000 0.000000 -0.500000
v -0.500000 0.000000 -0.300000
v -0.500000 0.000000 -0.500000
v 0.500000 0.000000 0.500000
v 0.500000 0.000000 0.300000
v 0.500000 -0.200000 0.300000
v -0.500000 0.000000 0.500000
v -0.500000 0.000000 0.300000
v -0.500000 0.000000 0.500000
v -0.300000 0.000000 0.500000
v -0.500000 0.000000 -0.500000
v -0.300000 0.000000 -0.500000
v -0.300000 0.000000 0.300000
v -0.460000 0.000000 0.300000
v -0.300000 -0.200000 0.300000
v -0.300000 0.000000 -0.300000
v -0.300000 -0.200000 -0.300000
v -0.300000 0.000000 -0.460000
v -0.500000 -0.100000 0.500000
v -0.500000 -0.100000 -0.500000
v -0.500000 -0.100000 0.500000
v -0.500000 -0.100000 0.500000
v -0.500000 -0.100000 -0.500000
v -0.500000 -0.100000 -0.500000
v -0.407612 -0.161732 0.407495
v -0.400000 -0.200000 0.399883
v -0.300000 -0.200000 0.399883
v 0.500000 -0.200000 0.399883
v -0.401921 -0.180491 0.401804
v 0.500000 -0.180491 0.401804
v -0.416853 -0.144443 0.416736
v -0.429289 -0.129289 0.429172
v 0.500000 -0.161732 0.407495
v -0.444443 -0.116853 0.444326
v -0.461732 -0.107612 0.461614
v 0.500000 -0.144443 0.416736
v -0.480491 -0.101921 0.480374
v 0.500000 -0.129289 0.429172
v -0.499883 -0.100012 0.500000
v -0.500000 -0.100000 0.499883
v 0.500000 -0.116853 0.444326
v 0.500000 -0.107612 0.461614
v -0.500000 -0.100000 0.499883
v -0.500000 -0.100000 0.499882
v -0.400000 -0.200000 0.399883
v 0.500000 -0.101921 0.480374
v -0.500000 -0.100000 0.499883
v -0.300000 -0.200000 0.399883
v -0.300000 -0.100012 0.500000
v 0.500000 -0.100000 0.499883
v 0.500000 -0.100012 0.500000
v -0.400000 -0.200000 -0.400117
v -0.400000 -0.200000 -0.400117
v -0.311100 -0.200000 -0.400117
v -0.400000 -0.200000 -0.400117
v -0.499883 -0.100012 -0.500000
v -0.480857 -0.100012 -0.500000
v -0.464434 -0.100012 -0.500000
v -0.452450 -0.100012 -0.500000
v 0.500000 -0.100012 -0.500000
v 0.099954 -0.100012 -0.500000
v -0.400012 -0.100012 -0.500000
v -0.423625 -0.100012 -0.500000
v -0.380908 -0.100012 -0.500000
v -0.300000 -0.100012 -0.500000
v -0.480491 -0.101921 -0.480608
v 0.500000 -0.101921 -0.480608
v -0.480491 -0.101921 -0.480608
v -0.480105 -0.102039 -0.480223
v 0.500000 -0.180491 -0.402039
v 0.500000 -0.200000 -0.400117
v 0.500000 -0.129289 -0.429407
v 0.500000 -0.144443 -0.416970
v 0.500000 -0.161732 -0.407729
v 0.500000 -0.107612 -0.461849
v 0.500000 -0.116853 -0.444560
v -0.461732 -0.107612 -0.461849
v 0.100470 -0.200000 -0.400117
v -0.461732 -0.107612 -0.461849
v -0.461020 -0.107992 -0.461138
v -0.444443 -0.116853 -0.444560
v -0.443524 -0.117607 -0.443641
v -0.429289 -0.129289 -0.429407
v -0.300000 -0.200000 -0.400117
v -0.300000 -0.200000 -0.400117
v -0.428318 -0.130472 -0.428436
v -0.401712 -0.182619 -0.401829
v -0.401921 -0.180491 -0.402039
v -0.407026 -0.163663 -0.407144
v -0.416853 -0.144443 -0.416970
v -0.416853 -0.144443 -0.416970
v -0.407612 -0.161732 -0.407729
v -0.415999 -0.146041 -0.416116
v -0.407612 -0.161732 -0.407729
v -0.401921 -0.180491 -0.402039
v -0.300000 -0.200000 -0.400117
vt 0.625000 0.000000
vt 0.375000 0.250000
vt 0.375000 0.000000
vt 0.625000 0.250000
vt 0.375000 0.450000
vt 0.375000 0.250000
vt 0.125000 0.750000
vt 0.325000 0.500000
vt 0.325000 0.750000
vt 0.365000 0.500000
vt 0.375000 1.000000
vt 0.625000 0.800000
vt 0.625000 1.000000
vt 0.125000 0.500000
vt 0.325000 0.500000
vt 0.325000 0.550000
vt 0.375000 0.750000
vt 0.325000 0.750000
vt 0.125000 0.750000
vt 0.175000 0.750000
vt 0.325000 0.750000
vt 0.375000 0.000000
vt 0.500000 0.000000
vt 0.375000 0.000000
vt 0.375000 0.750000
vt 0.500000 0.750000
vt 0.500000 0.750000
vt 0.968750 0.796908
vt 1.000000 0.771428
vt 0.968750 0.571428
vt 0.937500 0.571428
vt 0.937500 0.798331
vt 0.906250 0.571428
vt 0.906250 0.800641
vt 0.875000 0.571428
vt 0.875000 0.803750
vt 0.843750 0.571428
vt 0.843750 0.807539
vt 0.812500 0.571428
vt 0.812500 0.811861
vt 0.781250 0.571428
vt 0.781250 0.816551
vt 0.750000 0.821428
vt 0.750000 0.821428
vt 0.750000 0.821428
vt 0.750000 0.571428
vt 0.750000 0.821428
vt 0.749812 0.571428
vt 0.749812 0.771428
vt 0.000000 0.796428
vt 0.000000 0.771428
vt 0.000000 0.771428
vt 0.536612 0.088535
vt 0.521066 0.069593
vt 0.375000 0.800000
vt 0.500014 1.000000
vt 0.375000 1.000000
vt 0.875000 0.500000
vt 0.675000 0.624853
vt 0.675000 0.500000
vt 0.750188 0.625000
vt 0.750000 0.625000
vt 0.750000 0.625029
vt 0.750000 0.875000
vt 0.781250 0.629907
vt 0.750000 0.625000
vt 0.750000 0.625000
vt 0.750000 0.625029
vt 0.750000 0.875000
vt 0.750000 0.875000
vt 0.500000 0.999971
vt 0.500000 0.999971
vt 0.500000 0.750000
vt 0.500014 0.750029
vt 0.375000 0.750000
vt 0.625000 0.450000
vt 0.125000 0.500000
vt 0.375000 0.500000
vt 0.375000 0.800000
vt 0.125000 0.750000
vt 0.375000 0.500000
vt 0.375000 0.750000
vt 0.125000 0.750000
vt 0.175000 0.700000
vt 0.175000 0.500000
vt 0.325000 0.500000
vt 0.500000 0.000000
vt 0.500000 0.500000
vt 0.500000 0.500000
vt 1.000000 0.796428
vt 1.000000 0.571428
vt 0.749812 0.821399
vt 0.000000 0.796428
vt 0.600614 0.122745
vt 0.625000 0.125147
vt 0.375000 0.000000
vt 0.500000 0.000147
vt 0.555554 0.104080
vt 0.500014 0.000000
vt 0.502402 0.024533
vt 0.577165 0.115632
vt 0.509515 0.047982
vt 0.500014 0.800000
vt 0.875000 0.624853
vt 0.625000 0.450000
vt 0.375000 0.450000
vt 0.375000 0.300000
vt 0.625000 0.300000
vt 0.625000 0.275029
vt 0.625000 0.275029
vt 0.750000 0.625029
vt 0.500000 0.999971
vt 0.500000 1.000000
vt 0.375000 1.000000
vt 0.500000 0.750000
vt 0.749812 0.821399
vt 0.749812 0.816642
vt 0.749812 0.812537
vt 0.749812 0.809541
vt 0.749812 0.802334
vt 0.749812 0.796431
vt 0.749812 0.791655
vt 0.749812 0.771428
vt 0.749812 0.671440
vt 0.749812 0.571428
vt 0.718750 0.571428
vt 0.718750 0.816551
vt 0.718750 0.816551
vt 0.687500 0.571428
vt 0.687500 0.811861
vt 0.718107 0.816454
vt 0.687500 0.811861
vt 0.656250 0.571428
vt 0.656250 0.807539
vt 0.686214 0.811683
vt 0.654355 0.807309
vt 0.625000 0.571428
vt 0.625000 0.803750
vt 0.622561 0.803508
vt 0.593750 0.571428
vt 0.593750 0.800641
vt 0.593750 0.800641
vt 0.590861 0.800428
vt 0.562500 0.571428
vt 0.562500 0.798331
vt 0.562500 0.798331
vt 0.559282 0.798185
vt 0.531250 0.571428
vt 0.531250 0.796908
vt 0.531250 0.796908
vt 0.500000 0.771428
vt 0.500000 0.771428
vt 0.500000 0.774203
vt 0.500000 0.796428
vt 0.500000 0.796428
vt 0.500000 0.796428
vt 0.527841 0.796856
vt 0.500000 0.571428
vt 0.500000 0.671311
vt 0.500000 0.771428
vt 0.500014 0.450000
vt 0.375000 0.450000
vt 0.500014 0.350012
vt 0.675000 0.750000
vt 0.675000 0.624853
vt 0.775117 0.624853
vt 0.500014 0.491109
vt 0.500014 0.488113
vt 0.625000 0.475029
vt 0.625000 0.475029
vt 1.000000 0.650029
vt 0.968750 0.649549
vt 0.968750 0.850510
vt 0.968750 0.850510
vt 0.972159 0.850457
vt 0.937500 0.648126
vt 0.937500 0.851932
vt 0.937500 0.851932
vt 0.940718 0.851786
vt 0.906250 0.645816
vt 0.906250 0.854243
vt 0.906250 0.854243
vt 0.909139 0.854029
vt 0.906250 0.645816
vt 0.875000 0.642707
vt 0.875000 0.857352
vt 0.877439 0.857109
vt 0.843750 0.638919
vt 0.843750 0.861140
vt 0.845645 0.860910
vt 0.812500 0.634596
vt 0.812500 0.865462
vt 0.813786 0.865284
vt 0.781250 0.870152
vt 0.781893 0.870056
vt 0.000000 0.650029
vt 0.000000 0.650029
vt 0.000000 0.850029
vt 0.000000 0.850029
vt 0.849971 0.625000
vt 0.649971 0.625000
vt 0.649971 0.513874
vt 0.625000 0.125147
vt 0.600614 0.127549
vt 0.577165 0.134662
vt 0.555554 0.146213
vt 0.536612 0.161758
vt 0.521066 0.180701
vt 0.509515 0.202311
vt 0.502402 0.225761
vt 0.500014 0.250000
vt 0.875000 0.624853
vt 0.875000 0.750000
vt 0.500014 0.480906
vt 0.500014 0.470227
vt 0.500014 0.475003
vt 0.500014 0.495214
vt 0.500014 0.499971
vt 0.625000 0.475029
vt 1.000000 0.850029
vt 0.812500 0.865462
vt 0.750188 0.875000
vt 0.781250 0.870152
vt 0.000000 0.850029
vt 0.649971 0.500000
vt 0.849971 0.500000
vn 1.0000 0.0000 0.0000
vn 0.0000 0.0000 -1.0000
vn 0.0000 1.0000 0.0000
vn 0.0000 0.0000 1.0000
vn 0.0000 -0.0980 0.9952
vn 0.0000 -0.2903 0.9569
vn 0.0000 -0.4714 0.8819
vn 0.0000 -0.6344 0.7730
vn 0.0000 -0.7730 0.6344
vn 0.0000 -0.8819 0.4714
vn 0.0000 -0.9569 0.2903
vn 0.0000 -1.0000 0.0000
vn 0.0000 -0.9952 0.0980
vn 0.0000 -0.9952 -0.0979
vn -0.0980 -0.9952 0.0000
vn 0.1193 -0.9929 0.0000
vn 0.1240 -0.9923 0.0000
vn -0.2195 -0.9756 0.0000
vn 0.0000 -0.9952 -0.0980
vn 0.0000 -0.9952 -0.0981
vn 0.2873 -0.9578 0.0000
vn 0.1194 -0.9928 0.0000
vn -1.0000 0.0000 0.0000
vn 0.0000 -0.9569 -0.2903
vn 0.0000 -0.8819 -0.4714
vn 0.0000 -0.7730 -0.6344
vn 0.0000 -0.6344 -0.7730
vn -0.0000 -0.4714 -0.8819
vn -0.0000 -0.2903 -0.9569
vn 0.0000 -0.0980 -0.9952
vn 0.4104 0.9119 0.0000
vn -0.9952 -0.0980 0.0000
vn -0.9569 -0.2903 0.0000
vn -0.8819 -0.4714 -0.0000
vn -0.7730 -0.6344 -0.0000
vn -0.6344 -0.7730 0.0000
vn -0.4714 -0.8819 0.0000
vn -0.2903 -0.9569 -0.0000
usemtl None
s off
f 2/1/1 3/2/1 1/3/1
f 8/4/2 15/5/2 7/6/2
f 6/7/3 15/8/3 12/9/3
f 12/9/3 15/8/3 16/10/3
f 1/11/4 19/12/4 2/13/4
f 3/14/3 14/15/3 20/16/3
f 4/17/3 18/18/3 20/16/3
f 11/19/3 10/20/3 4/21/3
f 11/22/4 24/23/4 9/24/4
f 13/25/2 26/26/2 25/27/2
f 31/28/5 29/29/5 32/30/5
f 31/28/6 35/31/6 27/32/6
f 27/32/7 38/33/7 33/34/7
f 33/34/8 40/35/8 34/36/8
f 43/37/9 34/36/9 40/35/9
f 36/38/10 44/39/10 37/40/10
f 37/40/11 48/41/11 39/42/11
f 46/43/12 42/44/12 49/45/12
f 52/46/13 39/42/13 48/41/13
f 45/47/12 49/45/12 42/44/12
f 52/46/14 53/48/14 51/49/14
f 28/50/4 50/51/4 29/52/4
f 40/53/1 7/6/1 43/54/1
f 12/55/4 53/56/4 6/57/4
f 8/58/12 29/59/12 17/60/12
f 41/61/15 21/62/15 42/63/15
f 22/64/15 39/65/15 42/63/15
f 24/66/16 23/67/16 45/68/16
f 25/69/17 26/70/17 42/63/17
f 13/25/18 46/71/18 49/72/18
f 21/73/4 41/74/4 9/75/4
f 8/4/2 17/76/2 15/5/2
f 6/7/3 7/77/3 15/8/3
f 10/78/3 9/75/3 16/10/3
f 9/75/3 12/9/3 16/10/3
f 1/11/4 18/79/4 19/12/4
f 18/18/3 1/80/3 20/16/3
f 1/80/3 3/14/3 20/16/3
f 14/15/3 5/81/3 20/16/3
f 5/81/3 4/17/3 20/16/3
f 5/82/3 13/25/3 4/21/3
f 13/25/3 11/19/3 4/21/3
f 11/19/3 9/83/3 10/20/3
f 16/84/3 15/85/3 18/86/3
f 10/20/3 16/84/3 4/21/3
f 16/84/3 18/86/3 4/21/3
f 11/22/4 23/87/4 24/23/4
f 22/88/4 26/89/4 5/81/4
f 13/25/2 5/82/2 26/26/2
f 28/90/5 29/29/5 31/28/5
f 29/29/5 30/91/5 32/30/5
f 31/28/6 32/30/6 35/31/6
f 27/32/7 35/31/7 38/33/7
f 33/34/8 38/33/8 40/35/8
f 43/37/9 36/38/9 34/36/9
f 36/38/10 43/37/10 44/39/10
f 37/40/11 44/39/11 48/41/11
f 52/46/13 42/44/13 39/42/13
f 51/49/19 41/92/19 42/44/19
f 42/44/20 52/46/20 51/49/20
f 28/50/4 47/93/4 50/51/4
f 32/94/1 30/95/1 8/4/1
f 8/4/1 7/6/1 40/53/1
f 7/6/1 6/96/1 52/97/1
f 8/4/1 40/53/1 38/98/1
f 6/96/1 53/99/1 52/97/1
f 52/97/1 48/100/1 7/6/1
f 35/101/1 32/94/1 8/4/1
f 38/98/1 35/101/1 8/4/1
f 48/100/1 44/102/1 7/6/1
f 44/102/1 43/54/1 7/6/1
f 12/55/4 51/103/4 53/56/4
f 8/58/12 30/104/12 29/59/12
f 19/105/1 18/106/1 15/107/1
f 17/108/1 29/109/1 50/110/1
f 19/105/1 15/107/1 17/108/1
f 17/108/21 50/110/21 19/105/21
f 42/63/22 21/62/22 45/68/22
f 21/62/4 24/66/4 45/68/4
f 42/63/1 46/111/1 25/69/1
f 26/70/4 22/64/4 42/63/4
f 49/72/23 45/112/23 23/113/23
f 23/113/23 11/114/23 49/72/23
f 11/114/23 13/25/23 49/72/23
f 13/25/23 25/27/23 46/71/23
f 51/103/4 12/55/4 41/74/4
f 12/55/4 9/75/4 41/74/4
f 9/75/4 24/115/4 21/73/4
f 58/116/19 59/117/19 60/118/19 61/119/19 65/120/19 64/121/19 66/122/19 67/123/19 63/124/19 62/125/19 69/126/19 68/127/19
f 70/128/24 68/127/24 69/126/24 77/129/24 79/130/24 71/131/24
f 81/132/25 79/130/25 77/129/25 78/133/25 83/134/25 82/135/25
f 84/136/26 83/134/26 78/133/26 74/137/26 85/138/26
f 88/139/27 85/138/27 74/137/27 75/140/27 92/141/27 93/142/27
f 95/143/28 92/141/28 75/140/28 76/144/28 96/145/28 94/146/28
f 91/147/29 96/145/29 76/144/29 72/148/29 97/149/29 90/150/29
f 87/151/30 98/152/30 56/153/30 57/154/30 54/155/30 55/156/30 89/157/30 97/149/30 72/148/30 73/158/30 80/159/30 86/160/30
f 67/161/2 14/162/2 3/2/2 63/163/2
f 19/164/12 86/165/12 80/166/12
f 60/167/2 5/81/2 61/168/2
f 87/169/31 19/105/31 50/110/31 98/170/31
f 28/171/32 31/172/32 90/173/32 97/174/32 89/175/32
f 31/172/33 27/176/33 94/177/33 96/178/33 91/179/33
f 27/176/34 33/180/34 93/181/34 92/182/34 95/183/34
f 33/184/35 34/185/35 85/186/35 88/187/35
f 34/185/36 36/188/36 83/189/36 84/190/36
f 36/188/37 37/191/37 81/192/37 82/193/37
f 37/191/38 39/65/38 70/194/38 71/195/38
f 47/196/23 28/197/23 55/198/23 54/199/23
f 47/200/12 57/201/12 56/202/12
f 3/2/1 2/1/1 73/203/1 72/204/1 76/205/1 75/206/1 74/207/1 78/208/1 77/209/1 69/210/1 62/211/1
f 3/2/2 62/211/2 63/163/2
f 80/166/12 73/212/12 2/213/12 19/164/12
f 61/168/2 5/81/2 14/162/2 65/214/2
f 14/162/2 67/161/2 66/215/2
f 64/216/2 65/214/2 14/162/2
f 22/88/2 5/81/2 59/217/2 58/218/2
f 59/217/2 5/81/2 60/167/2
f 66/215/2 64/216/2 14/162/2
f 87/169/4 86/219/4 19/105/4
f 55/220/32 28/171/32 89/175/32
f 90/173/33 31/172/33 91/179/33
f 94/177/34 27/176/34 95/183/34
f 93/181/35 33/184/35 88/187/35
f 85/186/36 34/185/36 84/190/36
f 83/189/37 36/188/37 82/193/37
f 81/192/38 37/191/38 71/195/38 79/221/38
f 70/194/15 39/65/15 22/64/15 58/222/15 68/223/15
f 57/224/23 47/196/23 54/199/23
f 56/202/12 98/225/12 50/226/12 47/200/12
