# Blender v2.91.2 OBJ File: 'curbFull.blend'
# www.blender.org
mtllib curbFull.mtl
o CubeL_Cube.006
v 0.500000 0.000000 0.500000
v 0.500000 0.000000 -0.500000
v 0.300000 0.000000 0.500000
v 0.300000 0.000000 -0.500000
v 0.500000 0.000000 -0.300000
v -0.500000 0.000000 -0.300000
v -0.500000 0.000000 -0.500000
v 0.500000 0.000000 0.300000
v -0.500000 0.000000 0.500000
v -0.500000 0.000000 0.300000
v -0.500000 0.000000 0.500000
v -0.300000 0.000000 0.500000
v -0.500000 0.000000 -0.500000
v -0.300000 0.000000 -0.500000
v -0.300000 0.000000 0.300000
v -0.460000 0.000000 0.300000
v -0.300000 -0.200000 0.300000
v -0.300000 0.000000 -0.300000
v -0.300000 -0.200000 -0.300000
v -0.300000 0.000000 -0.460000
v 0.300000 0.000000 -0.300000
v 0.300000 0.000000 0.300000
v 0.300000 -0.050000 -0.500000
v 0.300000 0.000000 -0.490000
v 0.300000 0.000000 -0.340000
v 0.300000 -0.200000 0.350000
v 0.300000 -0.200000 0.300000
v 0.300000 -0.200000 -0.300000
v 0.340000 -0.200000 0.300000
v 0.340000 0.000000 -0.300000
v -0.500000 -0.100000 0.500000
v -0.500000 -0.100000 -0.500000
v -0.500000 -0.100000 0.500000
v -0.500000 -0.100000 0.500000
v -0.500000 -0.100000 -0.500000
v -0.500000 -0.100000 -0.500000
v -0.401921 -0.180491 0.401804
v -0.300000 -0.200000 0.399883
v -0.400000 -0.200000 0.399883
v 0.300000 -0.200000 0.399883
v -0.407612 -0.161732 0.407495
v -0.416853 -0.144443 0.416736
v -0.429289 -0.129289 0.429172
v -0.444443 -0.116853 0.444326
v -0.461732 -0.107612 0.461614
v -0.480491 -0.101921 0.480374
v -0.499883 -0.100012 0.500000
v -0.500000 -0.100000 0.499883
v -0.500000 -0.100000 0.499883
v -0.500000 -0.100000 0.499882
v -0.400000 -0.200000 0.399883
v -0.500000 -0.100000 0.499883
v -0.300000 -0.200000 0.399883
v -0.300000 -0.100012 0.500000
v 0.500000 -0.100000 0.499883
v 0.300000 -0.100012 0.500000
v -0.300000 -0.200000 -0.400117
v -0.300000 -0.200000 -0.400117
v -0.400000 -0.200000 -0.400117
v -0.401921 -0.180491 -0.402039
v -0.401921 -0.180491 -0.402039
v -0.499883 -0.100012 -0.500000
v 0.300000 -0.100012 -0.500000
v -0.300000 -0.100012 -0.500000
v -0.407612 -0.161732 -0.407729
v -0.407612 -0.161732 -0.407729
v -0.480491 -0.101921 -0.480608
v -0.416853 -0.144443 -0.416970
v -0.416853 -0.144443 -0.416970
v -0.480491 -0.101921 -0.480608
v -0.429289 -0.129289 -0.429407
v -0.461732 -0.107612 -0.461849
v -0.444443 -0.116853 -0.444560
v -0.461732 -0.107612 -0.461849
v -0.400000 -0.200000 -0.400117
v 0.300000 -0.200000 -0.400117
v 0.500000 -0.100000 0.300000
v 0.500000 -0.100000 0.500000
v 0.500000 -0.100000 -0.500000
v 0.500000 -0.100000 -0.300000
v 0.499883 -0.100012 0.500000
v 0.400000 -0.200000 0.300000
v 0.400000 -0.200000 0.399883
v 0.499883 -0.100012 -0.500000
v 0.480491 -0.101921 -0.480608
v 0.461732 -0.107612 -0.461849
v 0.480491 -0.101921 0.480374
v 0.444443 -0.116853 -0.444560
v 0.480491 -0.101921 0.480374
v 0.429289 -0.129289 -0.429407
v 0.416853 -0.144443 -0.416970
v 0.461732 -0.107612 0.461614
v 0.407612 -0.161732 -0.407729
v 0.461732 -0.107612 0.461614
v 0.444443 -0.116853 0.444326
v 0.401921 -0.180491 -0.402039
v 0.429289 -0.129289 0.429172
v 0.400000 -0.200000 -0.400117
v 0.416853 -0.144443 0.416736
v 0.416853 -0.144443 0.416736
v 0.400000 -0.200000 -0.300000
v 0.407612 -0.161732 0.407495
v 0.407612 -0.161732 0.407495
v 0.401921 -0.180491 0.401804
v 0.401921 -0.180491 0.401804
vt 0.325000 0.750000
vt 0.325000 0.500000
vt 0.365000 0.500000
vt 0.375000 0.750000
vt 0.325000 0.750000
vt 0.325000 0.550000
vt 0.125000 0.750000
vt 0.175000 0.750000
vt 0.325000 0.750000
vt 0.625000 0.700000
vt 0.375000 0.550000
vt 0.625000 0.550000
vt 0.125000 0.700000
vt 0.125000 0.550000
vt 0.325000 0.550000
vt 0.375000 0.750000
vt 0.375000 0.700000
vt 0.375000 0.540000
vt 0.125000 0.500000
vt 0.375000 0.500000
vt 0.625000 0.712500
vt 0.675000 0.700000
vt 0.375000 0.450000
vt 0.625000 0.300000
vt 0.625000 0.450000
vt 0.175000 0.500000
vt 0.625000 0.800000
vt 0.375000 0.950000
vt 0.375000 0.800000
vt 0.175000 0.700000
vt 0.175000 0.512500
vt 0.375000 0.000000
vt 0.500000 0.000000
vt 0.375000 0.000000
vt 0.375000 0.750000
vt 0.500000 0.750000
vt 0.500000 0.750000
vt 0.750000 0.821428
vt 0.750000 0.821428
vt 0.750000 0.821428
vt 0.750000 0.821428
vt 0.000000 0.796428
vt 0.000000 0.771428
vt 0.000000 0.771428
vt 0.375000 0.800000
vt 0.500014 0.950000
vt 0.375000 0.950000
vt 0.825000 0.562500
vt 0.825000 0.624853
vt 0.675000 0.624853
vt 0.750188 0.625000
vt 0.750000 0.625000
vt 0.750000 0.625029
vt 0.750000 0.625000
vt 0.750000 0.625000
vt 0.750000 0.625029
vt 0.750000 0.875000
vt 0.750000 0.875000
vt 0.500000 0.999971
vt 0.500000 0.999971
vt 0.500000 0.750000
vt 0.500014 0.750029
vt 0.375000 0.750000
vt 0.375000 0.450000
vt 0.375000 0.300000
vt 0.437500 0.300000
vt 0.825000 0.750000
vt 0.675000 0.624853
vt 0.825000 0.624853
vt 0.500014 0.499971
vt 0.500000 0.500000
vt 0.375000 0.500000
vt 0.625000 0.450000
vt 0.625000 0.300000
vt 0.625000 0.275029
vt 1.000000 0.650029
vt 0.968750 0.850510
vt 0.968750 0.850510
vt 0.968750 0.649549
vt 0.937500 0.851932
vt 0.937500 0.851932
vt 0.937500 0.648126
vt 0.906250 0.854243
vt 0.906250 0.854243
vt 0.906250 0.645816
vt 0.875000 0.857352
vt 0.875000 0.642707
vt 0.843750 0.861140
vt 0.843750 0.638919
vt 0.812500 0.865462
vt 0.781250 0.629907
vt 0.781250 0.870152
vt 0.812500 0.865462
vt 0.750000 0.875000
vt 0.781250 0.870152
vt 0.000000 0.650029
vt 0.000000 0.850029
vt 0.000000 0.850029
vt 0.849971 0.500000
vt 0.649971 0.625000
vt 0.649971 0.500000
vt 0.750000 0.625029
vt 0.750000 0.625000
vt 0.749812 0.625000
vt 0.718750 0.870152
vt 0.750000 0.825000
vt 0.718750 0.629907
vt 0.687500 0.865462
vt 0.718750 0.629907
vt 0.687500 0.634596
vt 0.656250 0.861140
vt 0.625000 0.857352
vt 0.656250 0.638919
vt 0.625000 0.642707
vt 0.593750 0.645816
vt 0.593750 0.854243
vt 0.593750 0.645816
vt 0.562500 0.648126
vt 0.562500 0.851932
vt 0.562500 0.648126
vt 0.531250 0.649549
vt 0.531250 0.850510
vt 0.500000 0.825000
vt 0.531250 0.649549
vt 0.375000 0.050000
vt 0.500000 0.200000
vt 0.375000 0.200000
vt 0.750000 0.550000
vt 0.968750 0.796908
vt 1.000000 0.796428
vt 1.000000 0.771428
vt 0.937500 0.798331
vt 0.968750 0.595948
vt 0.906250 0.800641
vt 0.937500 0.594525
vt 0.875000 0.803750
vt 0.906250 0.592215
vt 0.875000 0.589106
vt 0.843750 0.585317
vt 0.812500 0.811861
vt 0.812500 0.580995
vt 0.781250 0.816551
vt 0.812500 0.580995
vt 0.781250 0.576305
vt 0.781250 0.576305
vt 0.750000 0.571428
vt 0.749812 0.571457
vt 0.749812 0.621428
vt 0.375000 0.000000
vt 0.500000 0.000000
vt 0.500000 0.000029
vt 0.500014 0.750000
vt 0.500014 0.999853
vt 0.750000 0.700000
vt 0.750000 0.724971
vt 0.749812 0.621428
vt 0.749812 0.571457
vt 0.718750 0.576305
vt 0.687500 0.811861
vt 0.718750 0.816551
vt 0.687500 0.811861
vt 0.687500 0.580995
vt 0.625000 0.803750
vt 0.656250 0.585317
vt 0.625000 0.589106
vt 0.593750 0.592215
vt 0.593750 0.800641
vt 0.562500 0.594525
vt 0.531250 0.796908
vt 0.531250 0.595948
vt 0.500000 0.771428
vt 0.500000 0.796428
vt 0.500000 0.796428
vt 0.500000 0.250000
vt 0.375000 0.250000
vt 0.437500 0.500000
vt 0.500014 0.250147
vt 0.750000 0.524971
vt 0.375000 0.500000
vt 0.325000 0.500000
vt 0.375000 0.750000
vt 0.125000 0.750000
vt 0.175000 0.700000
vt 0.175000 0.500000
vt 0.325000 0.500000
vt 0.125000 0.750000
vt 0.375000 0.502500
vt 0.375000 0.300000
vt 0.175000 0.750000
vt 0.625000 0.950000
vt 0.175000 0.500000
vt 0.175000 0.750000
vt 0.500000 0.000000
vt 0.000000 0.796428
vt 0.500014 0.800000
vt 0.675000 0.500000
vt 0.825000 0.500000
vt 0.750000 0.625029
vt 0.500000 0.999971
vt 0.500000 1.000000
vt 0.375000 1.000000
vt 0.500000 0.750000
vt 0.500014 0.300000
vt 0.500014 0.450000
vt 0.675000 0.750000
vt 0.500000 0.500000
vt 0.625000 0.475029
vt 0.625000 0.475029
vt 0.375000 0.450000
vt 0.375000 0.300000
vt 0.625000 0.275029
vt 1.000000 0.850029
vt 0.906250 0.645816
vt 0.812500 0.634596
vt 0.750188 0.875000
vt 0.000000 0.650029
vt 0.849971 0.625000
vt 0.749812 0.875000
vt 0.750000 0.875000
vt 0.750000 0.675000
vt 0.687500 0.634596
vt 0.500000 0.650029
vt 0.500000 0.675000
vt 0.500000 0.850029
vt 0.500000 0.050000
vt 1.000000 0.621428
vt 1.000000 0.596428
vt 0.968750 0.595948
vt 0.937500 0.594525
vt 0.906250 0.592215
vt 0.843750 0.807539
vt 0.749812 0.771428
vt 0.749812 0.821399
vt 0.500000 1.000000
vt 0.375000 1.000000
vt 0.625000 0.724971
vt 0.718750 0.816551
vt 0.749812 0.771428
vt 0.749812 0.821399
vt 0.656250 0.807539
vt 0.593750 0.800641
vt 0.562500 0.798331
vt 0.562500 0.798331
vt 0.531250 0.796908
vt 0.500000 0.596428
vt 0.500000 0.621428
vt 0.500000 0.771428
vt 0.500014 0.500000
vt 0.625000 0.524971
vn 0.0000 1.0000 0.0000
vn -1.0000 0.0000 0.0000
vn 0.0000 -1.0000 0.0000
vn 0.0000 0.0000 -1.0000
vn 0.0000 0.0000 1.0000
vn -0.0980 -0.9952 0.0000
vn 0.1193 -0.9929 0.0000
vn 0.1240 -0.9923 0.0000
vn -0.2195 -0.9756 0.0000
vn 0.2577 -0.9662 0.0000
vn -0.7730 -0.6344 0.0000
vn -0.6344 -0.7730 0.0000
vn -0.4714 -0.8819 0.0000
vn -0.2903 -0.9569 0.0000
vn 0.0980 -0.9952 0.0000
vn 0.2903 -0.9569 0.0000
vn 0.4714 -0.8819 0.0000
vn 0.6344 -0.7730 0.0000
vn 0.7730 -0.6344 0.0000
vn 0.8819 -0.4714 0.0000
vn 0.9569 -0.2903 0.0000
vn 0.9952 -0.0980 0.0000
vn 1.0000 0.0000 0.0000
vn 0.0000 -0.0980 0.9952
vn 0.0000 -0.2903 0.9569
vn 0.0000 -0.4714 0.8819
vn 0.0000 -0.6344 0.7730
vn 0.0000 -0.7730 0.6344
vn 0.0000 -0.8819 0.4714
vn 0.0038 -1.0000 0.0000
vn 0.0030 -1.0000 0.0000
vn 0.0000 -0.9952 -0.0981
vn 0.0000 -0.9952 -0.0980
vn 0.0000 -0.9569 -0.2903
vn 0.0000 -0.7730 -0.6344
vn 0.0000 -0.6344 -0.7730
vn 0.0000 -0.4714 -0.8819
vn 0.0000 -0.2903 -0.9569
vn 0.1194 -0.9928 0.0000
vn 0.4158 0.9095 0.0000
vn -0.9952 -0.0980 0.0000
vn -0.9569 -0.2903 0.0000
vn -0.8819 -0.4714 0.0000
vn -0.0600 -0.9982 0.0000
vn 0.1240 0.9923 0.0000
vn 0.2425 0.9701 0.0000
vn 0.0000 -0.9569 0.2903
vn 0.0000 -0.9952 0.0980
vn 0.0000 -0.9952 -0.0979
vn 0.0000 -0.8871 -0.4616
vn 0.0000 -0.8819 -0.4714
vn 0.0000 -0.0980 -0.9952
usemtl None
s off
f 12/1/1 15/2/1 16/3/1
f 6/4/1 18/5/1 20/6/1
f 11/7/1 10/8/1 6/9/1
f 27/10/2 21/11/2 28/12/2
f 8/13/1 5/14/1 30/15/1
f 3/16/1 8/13/1 22/17/1
f 30/15/1 25/18/1 21/11/1
f 2/19/1 4/20/1 30/15/1
f 26/21/3 27/10/3 29/22/3
f 15/23/4 27/24/4 17/25/4
f 12/1/1 22/26/1 15/2/1
f 19/27/5 21/28/5 18/29/5
f 25/30/1 24/31/1 20/6/1
f 11/32/5 34/33/5 9/34/5
f 13/35/4 36/36/4 35/37/4
f 50/38/3 48/39/3 52/40/3
f 49/41/3 52/40/3 48/39/3
f 39/42/5 53/43/5 38/44/5
f 12/45/5 56/46/5 3/47/5
f 26/48/3 40/49/3 38/50/3
f 47/51/6 31/52/6 48/53/6
f 34/54/7 33/55/7 49/56/7
f 35/57/8 36/58/8 48/53/8
f 13/35/9 50/59/9 52/60/9
f 31/61/5 47/62/5 9/63/5
f 14/64/4 4/65/4 23/66/4
f 28/67/3 57/68/3 76/69/3
f 62/70/4 32/71/4 7/72/4
f 19/73/10 17/74/10 53/75/10
f 39/76/2 61/77/2 60/78/2
f 37/79/2 66/80/2 65/81/2
f 41/82/5 69/83/5 68/84/5
f 42/85/11 71/86/11 69/83/11
f 43/87/12 73/88/12 71/86/12
f 44/89/13 74/90/13 73/88/13
f 46/91/14 70/92/14 72/93/14
f 46/91/6 32/94/6 67/95/6
f 51/96/2 59/97/2 75/98/2
f 53/99/3 75/100/3 58/101/3
f 55/102/15 78/103/15 81/104/15
f 85/105/15 80/106/15 87/107/15
f 86/108/16 85/105/16 89/109/16
f 86/108/17 94/110/17 88/111/17
f 90/112/18 95/113/18 97/114/18
f 97/114/19 99/115/19 91/116/19
f 100/117/20 102/118/20 93/119/20
f 103/120/21 104/121/21 96/122/21
f 101/123/22 96/122/22 105/124/22
f 8/125/23 80/126/23 5/127/23
f 29/22/3 28/12/3 101/128/3
f 37/129/24 39/130/24 38/131/24
f 41/132/25 37/129/25 104/133/25
f 42/134/26 41/132/26 102/135/26
f 43/136/27 99/137/27 97/138/27
f 95/139/28 43/136/28 97/138/28
f 45/140/29 95/139/29 94/141/29
f 46/142/30 94/141/30 92/143/30
f 48/39/31 89/144/31 87/145/31
f 55/146/32 81/147/32 56/148/32
f 1/149/23 78/150/23 55/151/23
f 3/16/5 56/152/5 81/153/5
f 29/22/3 82/154/3 83/155/3
f 63/156/33 84/157/33 85/158/33
f 72/159/34 70/160/34 85/158/34
f 74/161/4 72/159/4 86/162/4
f 71/163/35 88/164/35 90/165/35
f 71/163/36 90/165/36 91/166/36
f 68/167/37 91/166/37 93/168/37
f 61/169/38 93/168/38 96/170/38
f 57/171/5 75/172/5 59/173/5
f 5/127/23 79/174/23 2/175/23
f 23/176/4 2/175/4 84/177/4
f 28/12/3 98/178/3 101/128/3
f 10/179/1 9/63/1 16/3/1
f 9/63/1 12/1/1 16/3/1
f 14/180/1 7/72/1 20/6/1
f 7/72/1 6/4/1 20/6/1
f 7/181/1 13/35/1 6/9/1
f 13/35/1 11/7/1 6/9/1
f 11/7/1 9/182/1 10/8/1
f 16/183/1 15/184/1 18/185/1
f 10/8/1 16/183/1 6/9/1
f 16/183/1 18/185/1 6/9/1
f 27/10/2 22/17/2 21/11/2
f 30/15/1 21/11/1 22/17/1
f 22/17/1 8/13/1 30/15/1
f 3/16/1 1/186/1 8/13/1
f 25/18/1 30/15/1 24/187/1
f 30/15/1 5/14/1 2/19/1
f 24/187/1 30/15/1 4/20/1
f 15/23/4 22/188/4 27/24/4
f 12/1/1 3/189/1 22/26/1
f 19/27/5 28/190/5 21/28/5
f 4/191/1 14/180/1 24/31/1
f 14/180/1 20/6/1 24/31/1
f 20/6/1 18/5/1 25/30/1
f 18/5/1 21/192/1 25/30/1
f 11/32/5 33/193/5 34/33/5
f 13/35/4 7/181/4 36/36/4
f 39/42/5 51/194/5 53/43/5
f 12/45/5 54/195/5 56/46/5
f 38/50/3 17/196/3 26/48/3
f 17/196/3 27/197/3 26/48/3
f 48/53/39 31/52/39 49/56/39
f 31/52/5 34/54/5 49/56/5
f 48/53/23 50/198/23 35/57/23
f 36/58/5 32/94/5 48/53/5
f 52/60/2 49/199/2 33/200/2
f 33/200/2 11/201/2 52/60/2
f 11/201/2 13/35/2 52/60/2
f 13/35/2 35/37/2 50/59/2
f 54/195/5 12/45/5 47/62/5
f 12/45/5 9/63/5 47/62/5
f 9/63/5 34/202/5 31/61/5
f 63/203/4 64/204/4 23/66/4
f 64/204/4 14/64/4 23/66/4
f 28/67/3 19/205/3 57/68/3
f 32/71/5 36/206/5 7/72/5
f 7/72/4 14/64/4 62/70/4
f 14/64/4 64/204/4 62/70/4
f 58/207/23 57/208/23 19/73/23
f 19/73/23 18/209/23 15/210/23
f 17/74/23 38/211/23 53/75/23
f 19/73/23 15/210/23 17/74/23
f 53/75/40 58/207/40 19/73/40
f 60/78/41 59/212/41 39/76/41
f 39/76/41 37/79/41 61/77/41
f 65/81/42 61/77/42 37/79/42
f 37/79/42 41/82/42 66/80/42
f 68/84/43 66/80/43 41/82/43
f 41/82/43 42/213/43 69/83/43
f 42/85/11 43/87/11 71/86/11
f 43/87/12 44/89/12 73/88/12
f 44/89/13 45/214/13 74/90/13
f 72/93/2 74/90/2 45/214/2
f 45/214/14 46/91/14 72/93/14
f 67/95/44 70/92/44 46/91/44
f 46/91/6 48/53/6 32/94/6
f 32/94/6 62/215/6 67/95/6
f 51/96/2 39/216/2 59/97/2
f 53/99/3 51/217/3 75/100/3
f 84/218/15 79/219/15 80/106/15
f 77/220/15 55/102/15 87/107/15
f 84/218/15 80/106/15 85/105/15
f 80/106/15 77/220/15 87/107/15
f 89/109/16 92/221/16 86/108/16
f 85/105/45 87/107/45 89/109/45
f 86/108/46 92/221/46 94/110/46
f 94/110/17 95/113/17 88/111/17
f 90/112/18 88/111/18 95/113/18
f 91/116/19 90/112/19 97/114/19
f 99/115/5 100/117/5 91/116/5
f 93/119/20 91/116/20 100/117/20
f 102/118/23 103/120/23 93/119/23
f 96/122/21 93/119/21 103/120/21
f 104/121/23 105/124/23 96/122/23
f 105/124/22 83/222/22 82/223/22
f 101/123/22 98/224/22 96/122/22
f 105/124/22 82/223/22 101/123/22
f 8/125/23 77/225/23 80/126/23
f 101/128/3 82/154/3 29/22/3
f 29/22/3 27/10/3 28/12/3
f 38/131/24 40/226/24 104/133/24
f 40/226/24 83/227/24 104/133/24
f 83/227/2 105/228/2 104/133/2
f 104/133/24 37/129/24 38/131/24
f 103/229/5 102/135/5 104/133/5
f 102/135/25 41/132/25 104/133/25
f 100/230/5 99/137/5 102/135/5
f 99/137/26 42/134/26 102/135/26
f 43/136/27 42/134/27 99/137/27
f 95/139/28 44/231/28 43/136/28
f 45/140/29 44/231/29 95/139/29
f 92/143/47 89/144/47 46/142/47
f 46/142/47 45/140/47 94/141/47
f 87/145/48 55/146/48 48/39/48
f 48/39/48 46/142/48 89/144/48
f 56/148/49 54/232/49 55/146/49
f 54/232/33 47/233/33 48/39/33
f 55/146/32 54/232/32 48/39/32
f 77/225/23 8/125/23 55/151/23
f 8/125/23 1/149/23 55/151/23
f 78/234/5 1/235/5 81/153/5
f 1/235/5 3/16/5 81/153/5
f 83/155/3 40/236/3 29/22/3
f 40/236/3 26/21/3 29/22/3
f 85/158/33 67/237/33 64/238/33
f 67/237/33 62/239/33 64/238/33
f 64/238/33 63/156/33 85/158/33
f 85/158/34 86/162/34 72/159/34
f 70/160/50 67/237/50 85/158/50
f 86/162/51 88/164/51 74/161/51
f 88/164/51 73/240/51 74/161/51
f 71/163/35 73/240/35 88/164/35
f 91/166/5 68/167/5 69/241/5
f 69/241/36 71/163/36 91/166/36
f 93/168/5 65/242/5 66/243/5
f 66/243/37 68/167/37 93/168/37
f 96/170/5 60/244/5 61/169/5
f 61/169/38 65/242/38 93/168/38
f 96/170/52 98/245/52 76/246/52
f 57/171/4 58/247/4 75/172/4
f 96/170/52 76/246/52 57/171/52
f 59/173/52 60/244/52 57/171/52
f 60/244/52 96/170/52 57/171/52
f 5/127/23 80/126/23 79/174/23
f 84/177/4 63/248/4 23/176/4
f 23/176/4 4/20/4 2/175/4
f 2/175/4 79/174/4 84/177/4
f 28/12/3 76/249/3 98/178/3
