# Blender v2.91.2 OBJ File: 'oDoor.blend'
# www.blender.org
mtllib oDoor.mtl
o Main_Cube_Cube
v 0.000000 -0.400000 -0.390000
v -0.019509 -0.401921 -0.390000
v -0.038268 -0.407612 -0.390000
v -0.055557 -0.416853 -0.390000
v -0.070711 -0.429289 -0.390000
v -0.083147 -0.444443 -0.390000
v -0.092388 -0.461732 -0.390000
v -0.098079 -0.480491 -0.390000
v -0.100000 -0.500000 -0.390000
v -0.098079 -0.519509 -0.390000
v -0.092388 -0.538268 -0.390000
v -0.083147 -0.555557 -0.390000
v -0.070711 -0.570711 -0.390000
v -0.055557 -0.583147 -0.390000
v -0.038268 -0.592388 -0.390000
v -0.019509 -0.598079 -0.390000
v 0.000000 -0.600000 -0.390000
v 0.019509 -0.598078 -0.390000
v 0.038268 -0.592388 -0.390000
v 0.055557 -0.583147 -0.390000
v 0.070711 -0.570711 -0.390000
v 0.083147 -0.555557 -0.390000
v 0.092388 -0.538268 -0.390000
v 0.098079 -0.519509 -0.390000
v 0.100000 -0.500000 -0.390000
v 0.098079 -0.480491 -0.390000
v 0.092388 -0.461732 -0.390000
v 0.083147 -0.444443 -0.390000
v 0.070711 -0.429289 -0.390000
v 0.055557 -0.416853 -0.390000
v 0.038268 -0.407612 -0.390000
v 0.019509 -0.401921 -0.390000
v 0.000000 -0.300000 -0.390000
v -0.039018 -0.303843 -0.390000
v -0.076537 -0.315224 -0.390000
v -0.111114 -0.333706 -0.390000
v -0.141421 -0.358579 -0.390000
v -0.166294 -0.388886 -0.390000
v -0.184776 -0.423463 -0.390000
v -0.196157 -0.460982 -0.390000
v -0.200000 -0.500000 -0.390000
v -0.196157 -0.539018 -0.390000
v -0.184776 -0.576537 -0.390000
v -0.166294 -0.611114 -0.390000
v -0.141421 -0.641421 -0.390000
v -0.111114 -0.666294 -0.390000
v -0.076537 -0.684776 -0.390000
v -0.039018 -0.696157 -0.390000
v 0.000000 -0.700000 -0.390000
v 0.039018 -0.696157 -0.390000
v 0.076537 -0.684776 -0.390000
v 0.111114 -0.666294 -0.390000
v 0.141421 -0.641421 -0.390000
v 0.166294 -0.611114 -0.390000
v 0.184776 -0.576537 -0.390000
v 0.196157 -0.539018 -0.390000
v 0.200000 -0.500000 -0.390000
v 0.196157 -0.460982 -0.390000
v 0.184776 -0.423463 -0.390000
v 0.166294 -0.388886 -0.390000
v 0.141421 -0.358578 -0.390000
v 0.111114 -0.333706 -0.390000
v 0.076536 -0.315224 -0.390000
v 0.039018 -0.303843 -0.390000
v -0.500000 -1.000000 -0.500000
v -0.500000 0.000000 -0.500000
v -0.500000 -1.000000 0.500000
v -0.500000 0.000000 0.500000
v 0.500000 -1.000000 -0.500000
v 0.500000 0.000000 -0.500000
v 0.500000 -1.000000 0.500000
v 0.500000 0.000000 0.500000
v 0.000000 -0.300000 -0.500000
v -0.019509 -0.401921 -0.500000
v 0.000000 -0.700000 -0.500000
v 0.000000 -0.600000 -0.500000
v -0.039018 -0.303843 -0.500000
v 0.039018 -0.696157 -0.500000
v 0.038268 -0.592388 -0.500000
v -0.038268 -0.407612 -0.500000
v -0.076537 -0.315224 -0.500000
v 0.019509 -0.598078 -0.500000
v 0.076537 -0.684776 -0.500000
v 0.055557 -0.583147 -0.500000
v -0.111114 -0.333706 -0.500000
v -0.055557 -0.416853 -0.500000
v 0.111114 -0.666294 -0.500000
v -0.141421 -0.358579 -0.500000
v 0.070711 -0.570711 -0.500000
v -0.070711 -0.429289 -0.500000
v -0.083147 -0.444443 -0.500000
v 0.141421 -0.641421 -0.500000
v -0.166294 -0.388886 -0.500000
v 0.083147 -0.555557 -0.500000
v -0.092388 -0.461732 -0.500000
v 0.166294 -0.611114 -0.500000
v -0.184776 -0.423463 -0.500000
v 0.092388 -0.538268 -0.500000
v 0.184776 -0.576537 -0.500000
v -0.196157 -0.460982 -0.500000
v -0.098079 -0.480491 -0.500000
v 0.098079 -0.519509 -0.500000
v 0.196157 -0.539018 -0.500000
v -0.200000 -0.500000 -0.500000
v -0.100000 -0.500000 -0.500000
v 0.100000 -0.500000 -0.500000
v 0.200000 -0.500000 -0.500000
v -0.196157 -0.539018 -0.500000
v -0.098079 -0.519509 -0.500000
v 0.098079 -0.480491 -0.500000
v 0.196157 -0.460982 -0.500000
v -0.184776 -0.576537 -0.500000
v 0.092388 -0.461732 -0.500000
v 0.184776 -0.423463 -0.500000
v -0.092388 -0.538268 -0.500000
v -0.166294 -0.611114 -0.500000
v -0.083147 -0.555557 -0.500000
v 0.166294 -0.388886 -0.500000
v 0.083147 -0.444443 -0.500000
v -0.141421 -0.641421 -0.500000
v -0.070711 -0.570711 -0.500000
v 0.141421 -0.358578 -0.500000
v 0.070711 -0.429289 -0.500000
v -0.111114 -0.666294 -0.500000
v -0.055557 -0.583147 -0.500000
v 0.111114 -0.333706 -0.500000
v -0.076537 -0.684776 -0.500000
v 0.055557 -0.416853 -0.500000
v -0.038268 -0.592388 -0.500000
v -0.039018 -0.696157 -0.500000
v 0.076536 -0.315224 -0.500000
v 0.038268 -0.407612 -0.500000
v -0.019509 -0.598079 -0.500000
v 0.019509 -0.401921 -0.500000
v 0.039018 -0.303843 -0.500000
v 0.000000 -0.400000 -0.500000
vt 0.875000 0.500000
vt 0.625000 0.750000
vt 0.625000 0.500000
vt 0.375000 1.000000
vt 0.375000 0.750000
vt 0.625000 0.000000
vt 0.375000 0.250000
vt 0.375000 0.000000
vt 0.375000 0.500000
vt 0.125000 0.750000
vt 0.125000 0.500000
vt 1.000000 0.500000
vt 0.968750 0.958333
vt 1.000000 0.958333
vt 0.968750 0.500000
vt 0.937500 0.958333
vt 0.937500 0.500000
vt 0.906250 0.958333
vt 0.906250 0.500000
vt 0.875000 0.958333
vt 0.875000 0.500000
vt 0.843750 0.958333
vt 0.843750 0.500000
vt 0.812500 0.958333
vt 0.812500 0.500000
vt 0.781250 0.958333
vt 0.781250 0.500000
vt 0.750000 0.958333
vt 0.750000 0.500000
vt 0.718750 0.958333
vt 0.718750 0.500000
vt 0.687500 0.958333
vt 0.687500 0.500000
vt 0.656250 0.958333
vt 0.656250 0.500000
vt 0.625000 0.958333
vt 0.593750 0.500000
vt 0.625000 0.500000
vt 0.562500 0.500000
vt 0.593750 0.958333
vt 0.531250 0.500000
vt 0.562500 0.958333
vt 0.500000 0.500000
vt 0.531250 0.958333
vt 0.468750 0.500000
vt 0.500000 0.958333
vt 0.437500 0.500000
vt 0.468750 0.958333
vt 0.406250 0.500000
vt 0.437500 0.958333
vt 0.375000 0.500000
vt 0.406250 0.958333
vt 0.343750 0.958333
vt 0.375000 0.958333
vt 0.343750 0.500000
vt 0.312500 0.958333
vt 0.312500 0.500000
vt 0.281250 0.958333
vt 0.281250 0.500000
vt 0.250000 0.958333
vt 0.250000 0.500000
vt 0.218750 0.958333
vt 0.218750 0.500000
vt 0.187500 0.958333
vt 0.187500 0.500000
vt 0.156250 0.958333
vt 0.156250 0.500000
vt 0.125000 0.958333
vt 0.125000 0.500000
vt 0.093750 0.958333
vt 0.093750 0.500000
vt 0.062500 0.958333
vt 0.062500 0.500000
vt 0.031250 0.958333
vt 0.031250 0.500000
vt 0.000000 0.958333
vt 1.000000 0.500000
vt 0.968750 0.958333
vt 0.968750 0.500000
vt 0.937500 0.958333
vt 0.937500 0.500000
vt 0.906250 0.958333
vt 0.906250 0.500000
vt 0.875000 0.958333
vt 0.875000 0.500000
vt 0.843750 0.958333
vt 0.843750 0.500000
vt 0.812500 0.958333
vt 0.812500 0.500000
vt 0.781250 0.958333
vt 0.781250 0.500000
vt 0.750000 0.958333
vt 0.750000 0.500000
vt 0.718750 0.958333
vt 0.718750 0.500000
vt 0.687500 0.500000
vt 0.687500 0.958333
vt 0.656250 0.958333
vt 0.656250 0.500000
vt 0.625000 0.958333
vt 0.625000 0.500000
vt 0.593750 0.500000
vt 0.593750 0.958333
vt 0.562500 0.500000
vt 0.562500 0.958333
vt 0.531250 0.500000
vt 0.531250 0.958333
vt 0.500000 0.500000
vt 0.500000 0.958333
vt 0.468750 0.500000
vt 0.468750 0.958333
vt 0.437500 0.500000
vt 0.437500 0.958333
vt 0.406250 0.500000
vt 0.406250 0.958333
vt 0.375000 0.500000
vt 0.375000 0.958333
vt 0.343750 0.500000
vt 0.343750 0.958333
vt 0.312500 0.500000
vt 0.312500 0.958333
vt 0.281250 0.500000
vt 0.281250 0.958333
vt 0.250000 0.500000
vt 0.250000 0.958333
vt 0.218750 0.500000
vt 0.218750 0.958333
vt 0.187500 0.500000
vt 0.187500 0.958333
vt 0.156250 0.500000
vt 0.156250 0.958333
vt 0.125000 0.500000
vt 0.125000 0.958333
vt 0.093750 0.958333
vt 0.093750 0.500000
vt 0.062500 0.958333
vt 0.062500 0.500000
vt 0.031250 0.958333
vt 0.031250 0.500000
vt 0.000000 0.958333
vt 0.000000 0.500000
vt 0.795922 0.360866
vt 0.816668 0.349776
vt 0.841844 0.471731
vt 0.750000 0.130000
vt 0.726589 0.132306
vt 0.750000 0.010000
vt 0.625000 0.250000
vt 0.509754 0.325961
vt 0.500000 0.325000
vt 0.490433 0.351903
vt 0.523097 0.365433
vt 0.509567 0.398097
vt 0.490245 0.424039
vt 0.500000 0.425000
vt 0.875000 0.750000
vt 0.625000 1.000000
vt 0.000000 0.500000
vt 1.000000 0.958333
vt 0.703179 0.485389
vt 0.726590 0.367694
vt 0.750000 0.370000
vt 0.750000 0.490000
vt 0.773411 0.367694
vt 0.796822 0.485388
vt 0.883337 0.449553
vt 0.834853 0.334853
vt 0.949553 0.383337
vt 0.919706 0.419706
vt 0.985388 0.296822
vt 0.971731 0.341844
vt 0.860865 0.295922
vt 0.849776 0.316668
vt 0.867694 0.273411
vt 0.704078 0.360866
vt 0.658156 0.471731
vt 0.616663 0.449553
vt 0.683332 0.349776
vt 0.665147 0.334853
vt 0.580295 0.419706
vt 0.550447 0.383337
vt 0.528269 0.341844
vt 0.650224 0.316669
vt 0.514612 0.296822
vt 0.639135 0.295922
vt 0.510000 0.250000
vt 0.632306 0.273411
vt 0.514611 0.203179
vt 0.630000 0.250000
vt 0.528269 0.158156
vt 0.639134 0.204078
vt 0.550447 0.116663
vt 0.650224 0.183332
vt 0.665147 0.165147
vt 0.580294 0.080294
vt 0.616663 0.050447
vt 0.683332 0.150224
vt 0.658156 0.028269
vt 0.703178 0.014612
vt 0.704078 0.139135
vt 0.796822 0.014612
vt 0.841844 0.028269
vt 0.795922 0.139134
vt 0.883337 0.050447
vt 0.816668 0.150224
vt 0.834853 0.165147
vt 0.919706 0.080294
vt 0.949553 0.116663
vt 0.849777 0.183332
vt 0.971731 0.158156
vt 0.985388 0.203178
vt 0.860865 0.204078
vt 0.990000 0.250000
vt 0.867694 0.226589
vt 0.870000 0.250000
vt 0.632306 0.226589
vt 0.773411 0.132306
vt 0.458427 0.402779
vt 0.464645 0.410355
vt 0.535355 0.410355
vt 0.541574 0.402779
vt 0.546194 0.394134
vt 0.453806 0.394134
vt 0.450000 0.375000
vt 0.450961 0.384754
vt 0.550000 0.375000
vt 0.549039 0.384755
vt 0.549039 0.365245
vt 0.450961 0.365246
vt 0.453806 0.355866
vt 0.546194 0.355866
vt 0.541573 0.347221
vt 0.458426 0.347222
vt 0.464645 0.339645
vt 0.535355 0.339645
vt 0.527779 0.333427
vt 0.472221 0.333427
vt 0.480866 0.328806
vt 0.519134 0.328806
vt 0.490245 0.325961
vt 0.504877 0.399520
vt 0.500000 0.400000
vt 0.495123 0.399520
vt 0.490433 0.398097
vt 0.486111 0.395787
vt 0.482322 0.392678
vt 0.479213 0.388889
vt 0.476903 0.384567
vt 0.475480 0.379877
vt 0.475000 0.375000
vt 0.475480 0.370123
vt 0.476903 0.365433
vt 0.479213 0.361111
vt 0.482322 0.357322
vt 0.486111 0.354213
vt 0.495123 0.350480
vt 0.500000 0.350000
vt 0.504877 0.350480
vt 0.509567 0.351903
vt 0.513889 0.354213
vt 0.517678 0.357322
vt 0.520787 0.361111
vt 0.524520 0.370123
vt 0.525000 0.375000
vt 0.524520 0.379877
vt 0.523097 0.384567
vt 0.520787 0.388889
vt 0.517678 0.392678
vt 0.513889 0.395787
vt 0.527779 0.416573
vt 0.472222 0.416573
vt 0.480866 0.421194
vt 0.519134 0.421194
vt 0.509755 0.424039
vn 0.0000 -1.0000 0.0000
vn 0.0000 0.0000 1.0000
vn 1.0000 0.0000 0.0000
vn 0.0000 1.0000 0.0000
vn -1.0000 0.0000 0.0000
vn 0.0980 -0.9952 0.0000
vn 0.2903 -0.9569 0.0000
vn 0.4714 -0.8819 0.0000
vn 0.6344 -0.7730 0.0000
vn 0.7730 -0.6344 0.0000
vn 0.8819 -0.4714 0.0000
vn 0.9569 -0.2903 0.0000
vn 0.9952 -0.0980 0.0000
vn 0.9952 0.0980 0.0000
vn 0.9569 0.2903 0.0000
vn 0.8819 0.4714 0.0000
vn 0.7730 0.6344 0.0000
vn 0.6344 0.7730 0.0000
vn 0.4714 0.8819 0.0000
vn 0.2903 0.9569 0.0000
vn 0.0980 0.9952 0.0000
vn -0.0980 0.9952 0.0000
vn -0.2903 0.9569 0.0000
vn -0.4714 0.8819 0.0000
vn -0.6344 0.7730 0.0000
vn -0.7730 0.6344 0.0000
vn -0.8819 0.4714 0.0000
vn -0.9569 0.2903 0.0000
vn -0.9952 0.0980 0.0000
vn -0.9952 -0.0980 0.0000
vn -0.9569 -0.2903 0.0000
vn -0.8819 -0.4714 0.0000
vn -0.7730 -0.6344 0.0000
vn -0.6344 -0.7730 0.0000
vn -0.4714 -0.8819 0.0000
vn -0.2903 -0.9569 0.0000
vn -0.0980 -0.9952 0.0000
vn 0.0000 0.0000 -1.0000
usemtl Material.001
s off
f 69/1/1 67/2/1 65/3/1
f 67/2/2 72/4/2 68/5/2
f 71/6/3 70/7/3 72/8/3
f 66/9/4 72/10/4 70/11/4
f 65/3/5 68/5/5 66/9/5
f 33/12/6 77/13/6 73/14/6
f 34/15/7 81/16/7 77/13/7
f 35/17/8 85/18/8 81/16/8
f 36/19/9 88/20/9 85/18/9
f 37/21/10 93/22/10 88/20/10
f 38/23/11 97/24/11 93/22/11
f 39/25/12 100/26/12 97/24/12
f 40/27/13 104/28/13 100/26/13
f 41/29/14 108/30/14 104/28/14
f 42/31/15 112/32/15 108/30/15
f 43/33/16 116/34/16 112/32/16
f 44/35/17 120/36/17 116/34/17
f 46/37/18 120/36/18 45/38/18
f 47/39/19 124/40/19 46/37/19
f 48/41/20 127/42/20 47/39/20
f 49/43/21 130/44/21 48/41/21
f 50/45/22 75/46/22 49/43/22
f 51/47/23 78/48/23 50/45/23
f 52/49/24 83/50/24 51/47/24
f 53/51/25 87/52/25 52/49/25
f 53/51/26 96/53/26 92/54/26
f 54/55/27 99/56/27 96/53/27
f 55/57/28 103/58/28 99/56/28
f 56/59/29 107/60/29 103/58/29
f 57/61/30 111/62/30 107/60/30
f 58/63/31 114/64/31 111/62/31
f 59/65/32 118/66/32 114/64/32
f 60/67/33 122/68/33 118/66/33
f 61/69/34 126/70/34 122/68/34
f 62/71/35 131/72/35 126/70/35
f 63/73/36 135/74/36 131/72/36
f 64/75/37 73/76/37 135/74/37
f 1/77/22 74/78/22 2/79/22
f 2/79/23 80/80/23 3/81/23
f 3/81/24 86/82/24 4/83/24
f 4/83/25 90/84/25 5/85/25
f 5/85/26 91/86/26 6/87/26
f 6/87/27 95/88/27 7/89/27
f 7/89/28 101/90/28 8/91/28
f 8/91/29 105/92/29 9/93/29
f 9/93/30 109/94/30 10/95/30
f 11/96/31 109/94/31 115/97/31
f 11/96/32 117/98/32 12/99/32
f 12/99/33 121/100/33 13/101/33
f 14/102/34 121/100/34 125/103/34
f 15/104/35 125/103/35 129/105/35
f 16/106/36 129/105/36 133/107/36
f 17/108/37 133/107/37 76/109/37
f 18/110/6 76/109/6 82/111/6
f 19/112/7 82/111/7 79/113/7
f 20/114/8 79/113/8 84/115/8
f 21/116/9 84/115/9 89/117/9
f 22/118/10 89/117/10 94/119/10
f 23/120/11 94/119/11 98/121/11
f 24/122/12 98/121/12 102/123/12
f 25/124/13 102/123/13 106/125/13
f 26/126/14 106/125/14 110/127/14
f 27/128/15 110/127/15 113/129/15
f 28/130/16 113/129/16 119/131/16
f 29/132/17 119/131/17 123/133/17
f 29/132/18 128/134/18 30/135/18
f 30/135/19 132/136/19 31/137/19
f 31/137/20 134/138/20 32/139/20
f 32/139/21 136/140/21 1/141/21
f 3/142/38 4/143/38 35/144/38
f 17/145/38 18/146/38 49/147/38
f 69/148/38 103/149/38 107/150/38
f 113/151/38 79/152/38 115/153/38
f 66/9/38 100/154/38 104/155/38
f 69/1/1 71/156/1 67/2/1
f 67/2/2 71/157/2 72/4/2
f 71/6/3 69/148/3 70/7/3
f 66/9/4 68/5/4 72/10/4
f 65/3/5 67/2/5 68/5/5
f 33/12/6 34/15/6 77/13/6
f 34/15/7 35/17/7 81/16/7
f 35/17/8 36/19/8 85/18/8
f 36/19/9 37/21/9 88/20/9
f 37/21/10 38/23/10 93/22/10
f 38/23/11 39/25/11 97/24/11
f 39/25/12 40/27/12 100/26/12
f 40/27/13 41/29/13 104/28/13
f 41/29/14 42/31/14 108/30/14
f 42/31/15 43/33/15 112/32/15
f 43/33/16 44/35/16 116/34/16
f 44/35/17 45/38/17 120/36/17
f 46/37/18 124/40/18 120/36/18
f 47/39/19 127/42/19 124/40/19
f 48/41/20 130/44/20 127/42/20
f 49/43/21 75/46/21 130/44/21
f 50/45/22 78/48/22 75/46/22
f 51/47/23 83/50/23 78/48/23
f 52/49/24 87/52/24 83/50/24
f 53/51/25 92/54/25 87/52/25
f 53/51/26 54/55/26 96/53/26
f 54/55/27 55/57/27 99/56/27
f 55/57/28 56/59/28 103/58/28
f 56/59/29 57/61/29 107/60/29
f 57/61/30 58/63/30 111/62/30
f 58/63/31 59/65/31 114/64/31
f 59/65/32 60/67/32 118/66/32
f 60/67/33 61/69/33 122/68/33
f 61/69/34 62/71/34 126/70/34
f 62/71/35 63/73/35 131/72/35
f 63/73/36 64/75/36 135/74/36
f 64/75/37 33/158/37 73/76/37
f 1/77/22 136/159/22 74/78/22
f 2/79/23 74/78/23 80/80/23
f 3/81/24 80/80/24 86/82/24
f 4/83/25 86/82/25 90/84/25
f 5/85/26 90/84/26 91/86/26
f 6/87/27 91/86/27 95/88/27
f 7/89/28 95/88/28 101/90/28
f 8/91/29 101/90/29 105/92/29
f 9/93/30 105/92/30 109/94/30
f 11/96/31 10/95/31 109/94/31
f 11/96/32 115/97/32 117/98/32
f 12/99/33 117/98/33 121/100/33
f 14/102/34 13/101/34 121/100/34
f 15/104/35 14/102/35 125/103/35
f 16/106/36 15/104/36 129/105/36
f 17/108/37 16/106/37 133/107/37
f 18/110/6 17/108/6 76/109/6
f 19/112/7 18/110/7 82/111/7
f 20/114/8 19/112/8 79/113/8
f 21/116/9 20/114/9 84/115/9
f 22/118/10 21/116/10 89/117/10
f 23/120/11 22/118/11 94/119/11
f 24/122/12 23/120/12 98/121/12
f 25/124/13 24/122/13 102/123/13
f 26/126/14 25/124/14 106/125/14
f 27/128/15 26/126/15 110/127/15
f 28/130/16 27/128/16 113/129/16
f 29/132/17 28/130/17 119/131/17
f 29/132/18 123/133/18 128/134/18
f 30/135/19 128/134/19 132/136/19
f 31/137/20 132/136/20 134/138/20
f 32/139/21 134/138/21 136/140/21
f 64/160/38 32/161/38 1/162/38
f 64/160/38 1/162/38 33/163/38
f 1/162/38 2/164/38 33/163/38
f 34/165/38 33/163/38 2/164/38
f 34/165/38 2/164/38 3/142/38
f 36/166/38 35/144/38 4/143/38
f 35/144/38 34/165/38 3/142/38
f 36/166/38 4/143/38 5/167/38
f 38/168/38 37/169/38 5/167/38
f 37/169/38 36/166/38 5/167/38
f 40/170/38 39/171/38 7/172/38
f 39/171/38 38/168/38 6/173/38
f 6/173/38 38/168/38 5/167/38
f 7/172/38 8/174/38 40/170/38
f 6/173/38 7/172/38 39/171/38
f 31/175/38 32/161/38 64/160/38
f 64/160/38 63/176/38 31/175/38
f 63/176/38 62/177/38 30/178/38
f 30/178/38 62/177/38 29/179/38
f 62/177/38 61/180/38 29/179/38
f 61/180/38 60/181/38 29/179/38
f 60/181/38 59/182/38 28/183/38
f 59/182/38 58/184/38 27/185/38
f 60/181/38 28/183/38 29/179/38
f 58/184/38 57/186/38 26/187/38
f 57/186/38 56/188/38 25/189/38
f 58/184/38 26/187/38 27/185/38
f 56/188/38 55/190/38 23/191/38
f 55/190/38 54/192/38 22/193/38
f 22/193/38 54/192/38 21/194/38
f 54/192/38 53/195/38 21/194/38
f 53/195/38 52/196/38 20/197/38
f 52/196/38 51/198/38 20/197/38
f 51/198/38 50/199/38 19/200/38
f 20/197/38 51/198/38 19/200/38
f 50/199/38 49/147/38 18/146/38
f 49/147/38 48/201/38 17/145/38
f 50/199/38 18/146/38 19/200/38
f 48/201/38 47/202/38 15/203/38
f 47/202/38 46/204/38 14/205/38
f 14/205/38 46/204/38 13/206/38
f 46/204/38 45/207/38 13/206/38
f 45/207/38 44/208/38 12/209/38
f 44/208/38 43/210/38 12/209/38
f 43/210/38 42/211/38 11/212/38
f 12/209/38 43/210/38 11/212/38
f 42/211/38 41/213/38 10/214/38
f 41/213/38 40/170/38 9/215/38
f 42/211/38 10/214/38 11/212/38
f 40/170/38 8/174/38 9/215/38
f 9/215/38 10/214/38 41/213/38
f 45/207/38 12/209/38 13/206/38
f 53/195/38 20/197/38 21/194/38
f 30/178/38 31/175/38 63/176/38
f 28/183/38 59/182/38 27/185/38
f 26/187/38 57/186/38 25/189/38
f 47/202/38 14/205/38 15/203/38
f 24/216/38 25/189/38 56/188/38
f 48/201/38 15/203/38 16/217/38
f 48/201/38 16/217/38 17/145/38
f 23/191/38 24/216/38 56/188/38
f 22/193/38 23/191/38 55/190/38
f 85/218/38 88/219/38 66/9/38
f 65/3/38 120/220/38 124/221/38
f 65/3/38 124/221/38 127/222/38
f 85/218/38 66/9/38 81/223/38
f 66/9/38 70/7/38 73/224/38
f 81/223/38 66/9/38 77/225/38
f 77/225/38 66/9/38 73/224/38
f 69/148/38 65/3/38 75/226/38
f 65/3/38 127/222/38 130/227/38
f 65/3/38 130/227/38 75/226/38
f 69/148/38 75/226/38 78/228/38
f 135/229/38 73/224/38 70/7/38
f 131/230/38 135/229/38 70/7/38
f 69/148/38 78/228/38 83/231/38
f 69/148/38 83/231/38 87/232/38
f 126/233/38 131/230/38 70/7/38
f 122/234/38 126/233/38 70/7/38
f 69/148/38 87/232/38 92/235/38
f 69/148/38 92/235/38 96/236/38
f 118/237/38 122/234/38 70/7/38
f 114/238/38 118/237/38 70/7/38
f 70/7/38 69/148/38 107/150/38
f 69/148/38 96/236/38 99/239/38
f 69/148/38 99/239/38 103/149/38
f 111/240/38 114/238/38 70/7/38
f 107/150/38 111/240/38 70/7/38
f 115/153/38 109/241/38 105/242/38
f 105/242/38 101/243/38 115/153/38
f 101/243/38 95/244/38 115/153/38
f 95/244/38 91/245/38 90/246/38
f 90/246/38 86/247/38 95/244/38
f 86/247/38 80/248/38 95/244/38
f 80/248/38 74/249/38 136/250/38
f 136/250/38 134/251/38 80/248/38
f 134/251/38 132/252/38 80/248/38
f 132/252/38 128/253/38 123/254/38
f 123/254/38 119/255/38 113/151/38
f 113/151/38 110/256/38 106/257/38
f 106/257/38 102/258/38 113/151/38
f 102/258/38 98/259/38 113/151/38
f 98/259/38 94/260/38 89/261/38
f 89/261/38 84/262/38 98/259/38
f 84/262/38 79/152/38 98/259/38
f 79/152/38 82/263/38 76/264/38
f 76/264/38 133/265/38 129/266/38
f 129/266/38 125/267/38 115/153/38
f 125/267/38 121/268/38 115/153/38
f 121/268/38 117/269/38 115/153/38
f 132/252/38 123/254/38 113/151/38
f 79/152/38 76/264/38 115/153/38
f 76/264/38 129/266/38 115/153/38
f 115/153/38 95/244/38 80/248/38
f 80/248/38 132/252/38 113/151/38
f 113/151/38 98/259/38 79/152/38
f 115/153/38 80/248/38 113/151/38
f 116/270/38 120/220/38 65/3/38
f 66/9/38 88/219/38 93/271/38
f 66/9/38 93/271/38 97/272/38
f 116/270/38 65/3/38 112/273/38
f 65/3/38 66/9/38 104/155/38
f 112/273/38 65/3/38 108/274/38
f 108/274/38 65/3/38 104/155/38
f 66/9/38 97/272/38 100/154/38
