# Blender v2.91.2 OBJ File: 'pillarBace.blend'
# www.blender.org
mtllib pillarBace.mtl
o Main_Cube_Cube
v 0.000000 -0.600000 -0.250000
v 0.000000 -1.000000 -0.250000
v -0.048773 -0.600000 -0.245196
v -0.048773 -1.000000 -0.245196
v -0.095671 -0.600000 -0.230970
v -0.095671 -1.000000 -0.230970
v -0.138893 -0.600000 -0.207867
v -0.138893 -1.000000 -0.207867
v -0.176777 -0.600000 -0.176777
v -0.176777 -1.000000 -0.176777
v -0.207867 -0.600000 -0.138893
v -0.207867 -1.000000 -0.138893
v -0.230970 -0.600000 -0.095671
v -0.230970 -1.000000 -0.095671
v -0.245196 -0.600000 -0.048773
v -0.245196 -1.000000 -0.048773
v -0.250000 -0.600000 -0.000000
v -0.250000 -1.000000 -0.000000
v -0.245196 -0.600000 0.048773
v -0.245196 -1.000000 0.048773
v -0.230970 -0.600000 0.095671
v -0.230970 -1.000000 0.095671
v -0.207867 -0.600000 0.138893
v -0.207867 -1.000000 0.138893
v -0.176777 -0.600000 0.176777
v -0.176777 -1.000000 0.176777
v -0.138893 -0.600000 0.207867
v -0.138893 -1.000000 0.207867
v -0.095671 -0.600000 0.230970
v -0.095671 -1.000000 0.230970
v -0.048773 -0.600000 0.245196
v -0.048773 -1.000000 0.245196
v 0.000000 -0.600000 0.250000
v 0.000000 -1.000000 0.250000
v 0.048773 -0.600000 0.245196
v 0.048773 -1.000000 0.245196
v 0.095671 -0.600000 0.230970
v 0.095671 -1.000000 0.230970
v 0.138893 -0.600000 0.207867
v 0.138893 -1.000000 0.207867
v 0.176777 -0.600000 0.176777
v 0.176777 -1.000000 0.176777
v 0.207868 -0.600000 0.138892
v 0.207868 -1.000000 0.138892
v 0.230970 -0.600000 0.095671
v 0.230970 -1.000000 0.095671
v 0.245196 -0.600000 0.048772
v 0.245196 -1.000000 0.048772
v 0.250000 -0.600000 -0.000000
v 0.250000 -1.000000 -0.000000
v 0.245196 -0.600000 -0.048773
v 0.245196 -1.000000 -0.048773
v 0.230970 -0.600000 -0.095671
v 0.230970 -1.000000 -0.095671
v 0.207867 -0.600000 -0.138893
v 0.207867 -1.000000 -0.138893
v 0.176776 -0.600000 -0.176777
v 0.176776 -1.000000 -0.176777
v 0.138892 -0.600000 -0.207868
v 0.138892 -1.000000 -0.207868
v 0.095671 -0.600000 -0.230970
v 0.095671 -1.000000 -0.230970
v 0.048772 -0.600000 -0.245196
v 0.048772 -1.000000 -0.245196
v -0.500000 0.000000 -0.500000
v -0.500000 0.000000 0.500000
v 0.500000 0.000000 -0.500000
v 0.500000 0.000000 0.500000
v -0.292133 -0.511107 -0.292133
v 0.292133 -0.511107 -0.292133
v -0.255176 -0.600000 0.255176
v 0.255176 -0.600000 0.255176
v -0.292132 -0.511108 -0.292132
v 0.269030 -0.554329 0.269030
v 0.269030 -0.554329 0.269030
v -0.269030 -0.554329 0.269030
v 0.269030 -0.554329 -0.269030
v -0.269030 -0.554329 -0.269030
v -0.269030 -0.554329 0.269030
v -0.269030 -0.554329 -0.269030
v 0.292133 -0.511107 0.292133
v 0.292133 -0.511107 0.292133
v -0.292133 -0.511107 0.292133
v -0.292132 -0.511108 0.292133
v -0.255176 -0.600000 -0.255176
v 0.255176 -0.600000 -0.255176
v 0.323223 -0.473223 0.323223
v -0.323223 -0.473223 0.323223
v -0.323223 -0.473223 0.323223
v -0.500000 -0.400000 0.500000
v -0.500000 -0.400000 0.500000
v -0.500000 -0.400000 0.500000
v -0.500000 -0.400000 0.500000
v 0.323223 -0.473223 -0.323223
v 0.361107 -0.442133 0.361107
v 0.500000 -0.400000 0.500000
v 0.361107 -0.442133 -0.361107
v 0.404329 -0.419030 -0.404329
v 0.404329 -0.419030 0.404329
v 0.404329 -0.419030 -0.404329
v 0.404329 -0.419030 0.404329
v 0.500000 -0.400000 0.500000
v 0.500000 -0.400000 0.500000
v -0.361107 -0.442133 0.361107
v -0.361107 -0.442133 0.361107
v 0.500000 -0.400000 -0.500000
v 0.500000 -0.400000 -0.500000
v -0.404329 -0.419030 0.404329
v -0.404329 -0.419030 0.404329
v 0.451227 -0.404804 0.451227
v 0.451227 -0.404804 -0.451227
v 0.451227 -0.404804 0.451228
v -0.451227 -0.404804 0.451227
v -0.500000 -0.400000 -0.500000
v -0.500000 -0.400000 -0.500000
v -0.500000 -0.400000 0.500000
v -0.500000 -0.400000 -0.500000
v -0.500000 -0.400000 0.500000
v -0.500000 -0.400000 0.500000
v -0.451227 -0.404804 -0.451227
v -0.451227 -0.404804 -0.451227
v -0.404329 -0.419030 -0.404329
v -0.404329 -0.419030 -0.404329
v -0.361107 -0.442133 -0.361107
v -0.361107 -0.442133 -0.361107
v -0.323223 -0.473223 -0.323223
v -0.323223 -0.473223 -0.323223
vt 1.000000 1.000000
vt 0.968750 0.500000
vt 1.000000 0.500000
vt 0.968750 1.000000
vt 0.937500 0.500000
vt 0.937500 1.000000
vt 0.906250 0.500000
vt 0.906250 1.000000
vt 0.875000 0.500000
vt 0.875000 1.000000
vt 0.843750 0.500000
vt 0.843750 1.000000
vt 0.812500 0.500000
vt 0.812500 1.000000
vt 0.781250 0.500000
vt 0.781250 1.000000
vt 0.750000 0.500000
vt 0.750000 1.000000
vt 0.718750 0.500000
vt 0.718750 1.000000
vt 0.687500 0.500000
vt 0.687500 1.000000
vt 0.656250 0.500000
vt 0.656250 1.000000
vt 0.625000 0.500000
vt 0.625000 1.000000
vt 0.593750 0.500000
vt 0.593750 1.000000
vt 0.562500 0.500000
vt 0.562500 1.000000
vt 0.531250 0.500000
vt 0.531250 1.000000
vt 0.500000 0.500000
vt 0.500000 1.000000
vt 0.468750 0.500000
vt 0.468750 1.000000
vt 0.437500 0.500000
vt 0.437500 1.000000
vt 0.406250 0.500000
vt 0.406250 1.000000
vt 0.375000 0.500000
vt 0.375000 1.000000
vt 0.343750 0.500000
vt 0.343750 1.000000
vt 0.312500 0.500000
vt 0.312500 1.000000
vt 0.281250 0.500000
vt 0.281250 1.000000
vt 0.250000 0.500000
vt 0.250000 1.000000
vt 0.218750 0.500000
vt 0.218750 1.000000
vt 0.187500 0.500000
vt 0.187500 1.000000
vt 0.156250 0.500000
vt 0.156250 1.000000
vt 0.125000 0.500000
vt 0.125000 1.000000
vt 0.093750 0.500000
vt 0.093750 1.000000
vt 0.062500 0.500000
vt 0.028269 0.341844
vt 0.158156 0.028269
vt 0.471731 0.158156
vt 0.062500 1.000000
vt 0.031250 0.500000
vt 0.031250 1.000000
vt 0.000000 0.500000
vt 0.375000 0.500000
vt 0.125000 0.750000
vt 0.125000 0.500000
vt 0.375000 0.750000
vt 0.541667 0.750000
vt 0.541667 0.750000
vt 0.541667 0.250000
vt 0.541667 0.250000
vt 0.375000 0.000000
vt 0.541667 0.750000
vt 0.541667 0.500000
vt 0.375000 0.250000
vt 0.541667 0.500000
vt 0.500000 0.875000
vt 0.500000 0.875000
vt 0.500000 0.875000
vt 0.500000 0.625000
vt 0.500000 0.875000
vt 0.500000 0.625000
vt 0.500000 0.875000
vt 0.468750 0.862807
vt 0.468750 0.637193
vt 0.437500 0.648918
vt 0.437500 0.851082
vt 0.437500 0.851082
vt 0.406250 0.659723
vt 0.406250 0.840277
vt 0.406250 0.840277
vt 0.375000 0.830806
vt 0.406250 0.659723
vt 0.375000 0.669194
vt 0.343750 0.676967
vt 0.343750 0.823033
vt 0.343750 0.823033
vt 0.312500 0.817258
vt 0.343750 0.676967
vt 0.312500 0.682742
vt 0.282068 0.813794
vt 0.312500 0.682742
vt 0.282068 0.686206
vt 0.687500 0.682742
vt 0.717932 0.813794
vt 0.717932 0.686206
vt 0.656250 0.676967
vt 0.656250 0.823033
vt 0.687500 0.817258
vt 0.625000 0.669194
vt 0.656250 0.823033
vt 0.593750 0.840277
vt 0.593750 0.659723
vt 0.562500 0.851082
vt 0.562500 0.648918
vt 0.531250 0.862807
vt 0.562500 0.851082
vt 0.562500 0.648918
vt 0.500000 0.875000
vt 0.531250 0.637193
vt 0.500000 0.625000
vt 0.750000 0.625000
vt 0.718750 0.637193
vt 0.718750 0.862807
vt 0.750000 0.875000
vt 0.750000 0.875000
vt 0.750000 0.875000
vt 0.687500 0.851082
vt 0.687500 0.648918
vt 0.656250 0.840277
vt 0.656250 0.659723
vt 0.625000 0.830806
vt 0.656250 0.840277
vt 0.625000 0.830806
vt 0.593750 0.823033
vt 0.593750 0.823033
vt 0.593750 0.676967
vt 0.562500 0.817258
vt 0.562500 0.817258
vt 0.562500 0.682742
vt 0.532068 0.686206
vt 0.937500 0.682742
vt 0.937500 0.817258
vt 0.937500 0.817258
vt 0.937500 0.682742
vt 0.906250 0.676967
vt 0.906250 0.823033
vt 0.875000 0.830806
vt 0.875000 0.830806
vt 0.843750 0.659723
vt 0.843750 0.840277
vt 0.843750 0.840277
vt 0.812500 0.648918
vt 0.812500 0.851082
vt 0.812500 0.851082
vt 0.812500 0.648918
vt 0.781250 0.862807
vt 0.750000 0.875000
vt 0.750000 0.875000
vt 0.750000 0.875000
vt 0.781250 0.637193
vt 0.781250 0.637193
vt 0.750000 0.625000
vt 0.750000 0.625000
vt 0.750000 0.875000
vt 0.750000 0.875000
vt 0.686206 0.688794
vt 0.686206 0.561206
vt 0.687500 0.625000
vt 0.812500 0.625000
vt 0.813794 0.561206
vt 0.813794 0.688794
vt 0.687500 0.851082
vt 0.718750 0.862807
vt 0.687500 0.648918
vt 0.341844 0.471731
vt 0.296822 0.485388
vt 0.250000 0.490000
vt 0.203179 0.485389
vt 0.158156 0.471731
vt 0.116663 0.449553
vt 0.080295 0.419706
vt 0.050447 0.383337
vt 0.014612 0.296822
vt 0.010000 0.250000
vt 0.014611 0.203179
vt 0.028269 0.158156
vt 0.050447 0.116663
vt 0.080294 0.080294
vt 0.116663 0.050447
vt 0.203178 0.014612
vt 0.250000 0.010000
vt 0.296822 0.014612
vt 0.341844 0.028269
vt 0.383337 0.050447
vt 0.419706 0.080294
vt 0.449553 0.116663
vt 0.485388 0.203178
vt 0.490000 0.250000
vt 0.485388 0.296822
vt 0.471731 0.341844
vt 0.449553 0.383337
vt 0.419706 0.419706
vt 0.383337 0.449553
vt 0.000000 1.000000
vt 0.541667 0.750000
vt 0.375000 1.000000
vt 0.541667 0.750000
vt 0.541667 1.000000
vt 0.541667 0.000000
vt 0.541667 0.000000
vt 0.541667 0.000000
vt 0.541667 0.500000
vt 0.541667 0.750000
vt 0.468750 0.637193
vt 0.437500 0.648918
vt 0.375000 0.669194
vt 0.375000 0.830806
vt 0.312500 0.817258
vt 0.687500 0.817258
vt 0.625000 0.830806
vt 0.531250 0.862807
vt 0.750000 0.625000
vt 0.532068 0.813794
vt 0.967932 0.813794
vt 0.967932 0.686206
vt 0.906250 0.676967
vt 0.906250 0.823033
vt 0.875000 0.669194
vt 0.750000 0.625000
vt 0.750000 0.875000
vt 0.784723 0.676967
vt 0.794194 0.669194
vt 0.794194 0.580806
vt 0.784723 0.573033
vt 0.773918 0.567258
vt 0.773918 0.682742
vt 0.762193 0.686299
vt 0.762193 0.563701
vt 0.750000 0.562500
vt 0.750000 0.687500
vt 0.737807 0.563701
vt 0.737807 0.686299
vt 0.726082 0.682742
vt 0.726082 0.567258
vt 0.715277 0.573033
vt 0.715277 0.676967
vt 0.705806 0.669194
vt 0.705806 0.580806
vt 0.698033 0.590277
vt 0.698033 0.659723
vt 0.692258 0.648918
vt 0.692257 0.601082
vt 0.688701 0.612807
vt 0.688701 0.637193
vt 0.801967 0.590277
vt 0.801967 0.659723
vt 0.807742 0.648918
vt 0.807742 0.601082
vt 0.811299 0.612807
vt 0.811299 0.637193
vn -0.0980 0.0000 -0.9952
vn -0.2903 0.0000 -0.9569
vn -0.4714 0.0000 -0.8819
vn -0.6344 0.0000 -0.7730
vn -0.7730 0.0000 -0.6344
vn -0.8819 0.0000 -0.4714
vn -0.9569 0.0000 -0.2903
vn -0.9952 0.0000 -0.0980
vn -0.9952 0.0000 0.0980
vn -0.9569 0.0000 0.2903
vn -0.8819 0.0000 0.4714
vn -0.7730 0.0000 0.6344
vn -0.6344 0.0000 0.7730
vn -0.4714 0.0000 0.8819
vn -0.2903 0.0000 0.9569
vn -0.0980 0.0000 0.9952
vn 0.0980 0.0000 0.9952
vn 0.2903 0.0000 0.9569
vn 0.4714 0.0000 0.8819
vn 0.6344 0.0000 0.7730
vn 0.7730 0.0000 0.6344
vn 0.8819 0.0000 0.4714
vn 0.9569 0.0000 0.2903
vn 0.9952 0.0000 0.0980
vn 0.9952 0.0000 -0.0980
vn 0.9569 0.0000 -0.2903
vn 0.8819 0.0000 -0.4714
vn 0.7730 0.0000 -0.6344
vn 0.6344 0.0000 -0.7730
vn 0.4714 0.0000 -0.8819
vn 0.0000 -1.0000 0.0000
vn 0.2903 0.0000 -0.9569
vn 0.0980 0.0000 -0.9952
vn 0.0000 1.0000 0.0000
vn 0.0000 0.0000 1.0000
vn 1.0000 0.0000 0.0000
vn -1.0000 0.0000 0.0000
vn 0.0000 0.0000 -1.0000
vn -0.0980 -0.9952 0.0000
vn -0.1814 -0.9834 0.0000
vn -0.3903 -0.9207 0.0000
vn -0.6344 -0.7730 0.0000
vn -0.5842 -0.8116 0.0000
vn -0.8819 -0.4714 0.0000
vn -0.9569 -0.2903 0.0000
vn 0.9569 -0.2903 0.0000
vn 0.8819 -0.4714 0.0000
vn 0.6344 -0.7730 0.0000
vn 0.4714 -0.8819 0.0000
vn 0.2903 -0.9569 0.0000
vn 0.0980 -0.9952 0.0000
vn 0.0000 -0.9952 -0.0980
vn 0.0000 -0.8819 -0.4714
vn 0.0000 -0.7730 -0.6344
vn 0.0000 -0.6344 -0.7730
vn -0.0000 -0.4714 -0.8819
vn -0.0000 -0.2903 -0.9569
vn 0.0000 -0.3078 0.9514
vn 0.0000 -0.4714 0.8819
vn 0.0094 -0.6942 0.7197
vn 0.0000 -0.6580 0.7530
vn 0.0000 -0.7672 0.6414
vn -0.0000 -0.9569 0.2903
vn 0.0000 -0.9581 0.2865
vn 0.0000 -0.9569 -0.2903
vn -0.5773 0.0710 -0.8134
vn -0.4113 -0.9115 0.0000
vn -0.3748 -0.9271 0.0000
vn -0.2903 -0.9569 -0.0000
vn -0.4763 -0.8793 0.0000
vn -0.4714 -0.8819 0.0000
vn -0.9252 -0.3795 0.0000
vn -0.5429 -0.8398 0.0000
vn -0.7730 -0.6344 0.0000
vn -0.6146 -0.7889 0.0000
vn -0.7456 -0.6664 0.0000
vn 0.7730 -0.6344 0.0000
vn 0.2807 -0.9598 0.0000
vn 0.1931 -0.9812 0.0000
vn 0.0000 -0.7716 -0.6361
vn 0.0000 -0.5855 -0.8107
vn 0.0000 -0.6961 -0.7179
vn 0.0000 -0.6591 -0.7521
vn 0.0000 -0.1333 -0.9911
vn 0.0000 -0.2903 0.9569
vn 0.0000 -0.6428 0.7660
vn 0.0000 -0.6344 0.7730
vn 0.0000 -0.7730 0.6344
vn 0.0000 -0.8819 0.4714
vn 0.0000 -0.9950 -0.0996
vn 0.0000 -0.9952 0.0980
vn 0.0000 -0.7809 -0.6247
usemtl Material
s off
f 2/1/1 3/2/1 1/3/1
f 4/4/2 5/5/2 3/2/2
f 6/6/3 7/7/3 5/5/3
f 8/8/4 9/9/4 7/7/4
f 10/10/5 11/11/5 9/9/5
f 12/12/6 13/13/6 11/11/6
f 14/14/7 15/15/7 13/13/7
f 16/16/8 17/17/8 15/15/8
f 18/18/9 19/19/9 17/17/9
f 20/20/10 21/21/10 19/19/10
f 22/22/11 23/23/11 21/21/11
f 24/24/12 25/25/12 23/23/12
f 26/26/13 27/27/13 25/25/13
f 28/28/14 29/29/14 27/27/14
f 30/30/15 31/31/15 29/29/15
f 32/32/16 33/33/16 31/31/16
f 34/34/17 35/35/17 33/33/17
f 36/36/18 37/37/18 35/35/18
f 38/38/19 39/39/19 37/37/19
f 40/40/20 41/41/20 39/39/20
f 42/42/21 43/43/21 41/41/21
f 44/44/22 45/45/22 43/43/22
f 46/46/23 47/47/23 45/45/23
f 48/48/24 49/49/24 47/47/24
f 50/50/25 51/51/25 49/49/25
f 52/52/26 53/53/26 51/51/26
f 54/54/27 55/55/27 53/53/27
f 56/56/28 57/57/28 55/55/28
f 58/58/29 59/59/29 57/57/29
f 60/60/30 61/61/30 59/59/30
f 54/62/31 38/63/31 22/64/31
f 62/65/32 63/66/32 61/61/32
f 64/67/33 1/68/33 63/66/33
f 65/69/34 68/70/34 67/71/34
f 66/72/35 91/73/35 92/74/35
f 107/75/36 106/76/36 68/77/36
f 119/78/37 66/72/37 114/79/37
f 67/80/38 106/76/38 117/81/38
f 116/82/31 90/83/31 92/84/31
f 117/85/31 118/86/31 115/87/31
f 90/83/31 116/82/31 93/88/31
f 113/89/39 117/85/39 120/90/39
f 122/91/40 109/92/40 108/93/40
f 124/94/41 105/95/41 104/96/41
f 88/97/42 125/98/42 127/99/42
f 69/100/43 84/101/43 83/102/43
f 76/103/44 73/104/44 78/105/44
f 71/106/45 80/107/45 85/108/45
f 77/109/46 72/110/46 86/111/46
f 70/112/47 81/113/47 75/114/47
f 94/115/35 82/116/35 81/113/35
f 95/117/48 94/115/48 97/118/48
f 101/119/49 97/118/49 100/120/49
f 110/121/50 99/122/50 98/123/50
f 103/124/51 111/125/51 107/126/51
f 107/127/52 111/128/52 120/129/52
f 114/130/31 117/131/31 115/132/31
f 123/133/53 100/134/53 124/135/53
f 97/136/54 127/137/54 125/138/54
f 126/139/55 94/115/55 69/140/55
f 73/141/56 70/142/56 78/143/56
f 80/144/57 77/145/57 86/146/57
f 74/147/58 76/148/58 79/149/58
f 75/150/59 82/151/59 84/152/59
f 82/151/60 88/153/60 89/154/60
f 95/155/61 104/156/61 105/157/61
f 101/158/62 108/159/62 109/160/62
f 99/161/63 113/162/63 108/159/63
f 116/163/31 119/164/31 118/165/31
f 113/162/64 110/166/64 112/167/64
f 96/168/31 116/163/31 102/169/31
f 119/164/31 92/170/31 91/171/31
f 71/172/31 85/173/31 17/174/31
f 49/175/31 86/176/31 72/177/31
f 100/134/65 122/178/65 121/179/65
f 111/128/66 98/180/66 100/134/66
f 2/1/1 4/4/1 3/2/1
f 4/4/2 6/6/2 5/5/2
f 6/6/3 8/8/3 7/7/3
f 8/8/4 10/10/4 9/9/4
f 10/10/5 12/12/5 11/11/5
f 12/12/6 14/14/6 13/13/6
f 14/14/7 16/16/7 15/15/7
f 16/16/8 18/18/8 17/17/8
f 18/18/9 20/20/9 19/19/9
f 20/20/10 22/22/10 21/21/10
f 22/22/11 24/24/11 23/23/11
f 24/24/12 26/26/12 25/25/12
f 26/26/13 28/28/13 27/27/13
f 28/28/14 30/30/14 29/29/14
f 30/30/15 32/32/15 31/31/15
f 32/32/16 34/34/16 33/33/16
f 34/34/17 36/36/17 35/35/17
f 36/36/18 38/38/18 37/37/18
f 38/38/19 40/40/19 39/39/19
f 40/40/20 42/42/20 41/41/20
f 42/42/21 44/44/21 43/43/21
f 44/44/22 46/46/22 45/45/22
f 46/46/23 48/48/23 47/47/23
f 48/48/24 50/50/24 49/49/24
f 50/50/25 52/52/25 51/51/25
f 52/52/26 54/54/26 53/53/26
f 54/54/27 56/56/27 55/55/27
f 56/56/28 58/58/28 57/57/28
f 58/58/29 60/60/29 59/59/29
f 60/60/30 62/65/30 61/61/30
f 6/181/31 4/182/31 2/183/31
f 2/183/31 64/184/31 6/181/31
f 64/184/31 62/185/31 6/181/31
f 62/185/31 60/186/31 58/187/31
f 58/187/31 56/188/31 54/62/31
f 54/62/31 52/189/31 50/190/31
f 50/190/31 48/191/31 54/62/31
f 48/191/31 46/192/31 54/62/31
f 46/192/31 44/193/31 38/63/31
f 44/193/31 42/194/31 38/63/31
f 42/194/31 40/195/31 38/63/31
f 38/63/31 36/196/31 34/197/31
f 34/197/31 32/198/31 30/199/31
f 30/199/31 28/200/31 26/201/31
f 26/201/31 24/202/31 22/64/31
f 22/64/31 20/203/31 18/204/31
f 18/204/31 16/205/31 22/64/31
f 16/205/31 14/206/31 22/64/31
f 14/206/31 12/207/31 10/208/31
f 10/208/31 8/209/31 6/181/31
f 62/185/31 58/187/31 6/181/31
f 58/187/31 54/62/31 6/181/31
f 38/63/31 34/197/31 22/64/31
f 34/197/31 30/199/31 22/64/31
f 30/199/31 26/201/31 22/64/31
f 14/206/31 10/208/31 22/64/31
f 10/208/31 6/181/31 22/64/31
f 54/62/31 46/192/31 38/63/31
f 6/181/31 54/62/31 22/64/31
f 62/65/32 64/67/32 63/66/32
f 64/67/33 2/210/33 1/68/33
f 65/69/34 66/72/34 68/70/34
f 92/74/35 90/211/35 68/212/35
f 90/211/35 93/213/35 68/212/35
f 93/213/35 96/214/35 68/212/35
f 68/212/35 66/72/35 92/74/35
f 106/76/36 67/80/36 68/77/36
f 68/77/35 96/215/35 102/216/35
f 102/216/36 103/217/36 68/77/36
f 103/217/36 107/75/36 68/77/36
f 115/218/31 118/219/31 119/78/31
f 119/78/35 91/73/35 66/72/35
f 66/72/37 65/69/37 114/79/37
f 114/79/35 115/218/35 119/78/35
f 114/79/38 65/69/38 117/81/38
f 65/69/38 67/80/38 117/81/38
f 117/85/31 116/82/31 118/86/31
f 120/90/67 121/220/67 113/89/67
f 113/89/39 116/82/39 117/85/39
f 122/91/68 123/221/68 109/92/68
f 108/93/69 113/89/69 122/91/69
f 113/89/69 121/220/69 122/91/69
f 124/94/70 125/98/70 105/95/70
f 104/96/71 109/92/71 124/94/71
f 109/92/71 123/221/71 124/94/71
f 126/222/72 89/223/72 88/97/72
f 88/97/42 105/95/42 125/98/42
f 127/99/73 126/222/73 88/97/73
f 89/223/74 126/222/74 69/100/74
f 69/100/75 73/104/75 84/101/75
f 83/102/74 89/223/74 69/100/74
f 80/107/76 79/224/76 76/103/76
f 76/103/44 84/101/44 73/104/44
f 78/105/37 80/107/37 76/103/37
f 71/106/45 79/224/45 80/107/45
f 77/109/46 74/225/46 72/110/46
f 74/225/35 77/109/35 75/114/35
f 77/109/47 70/112/47 75/114/47
f 81/113/77 70/112/77 94/115/77
f 94/115/77 87/226/77 82/116/77
f 95/117/48 87/226/48 94/115/48
f 101/119/49 95/117/49 97/118/49
f 100/120/37 98/123/37 101/119/37
f 98/123/78 99/122/78 101/119/78
f 98/123/50 111/125/50 110/121/50
f 111/125/79 112/227/79 110/121/79
f 103/124/51 112/227/51 111/125/51
f 117/131/52 106/228/52 120/129/52
f 106/228/31 107/127/31 120/129/31
f 123/133/80 122/178/80 100/134/80
f 100/134/53 97/136/53 124/135/53
f 125/138/81 124/135/81 97/136/81
f 97/136/54 94/115/54 127/137/54
f 126/139/82 127/137/82 94/115/82
f 94/115/55 70/142/55 69/140/55
f 73/141/83 69/140/83 70/142/83
f 70/142/56 77/145/56 78/143/56
f 86/146/57 85/229/57 80/144/57
f 80/144/84 78/143/84 77/145/84
f 71/230/85 72/231/85 79/149/85
f 72/231/85 74/147/85 79/149/85
f 74/147/35 75/150/35 76/148/35
f 84/152/59 76/148/59 75/150/59
f 75/150/35 81/232/35 82/151/35
f 82/151/86 83/233/86 84/152/86
f 89/154/87 83/233/87 82/151/87
f 82/151/87 87/234/87 88/153/87
f 105/157/88 88/153/88 87/234/88
f 87/234/88 95/155/88 105/157/88
f 109/160/89 104/156/89 95/155/89
f 95/155/89 101/158/89 109/160/89
f 108/159/90 101/158/90 99/161/90
f 99/161/63 110/166/63 113/162/63
f 103/235/31 102/169/31 112/167/31
f 102/169/91 116/163/91 112/167/91
f 116/163/91 113/162/91 112/167/91
f 96/168/92 93/236/92 116/163/92
f 119/164/31 116/163/31 92/170/31
f 39/237/31 41/238/31 72/177/31
f 86/176/31 57/239/31 59/240/31
f 86/176/31 59/240/31 61/241/31
f 37/242/31 39/237/31 72/177/31
f 35/243/31 37/242/31 72/177/31
f 86/176/31 61/241/31 63/244/31
f 86/176/31 63/244/31 1/245/31
f 33/246/31 35/243/31 72/177/31
f 33/246/31 72/177/31 71/172/31
f 85/173/31 86/176/31 1/245/31
f 85/173/31 1/245/31 3/247/31
f 31/248/31 33/246/31 71/172/31
f 29/249/31 31/248/31 71/172/31
f 85/173/31 3/247/31 5/250/31
f 85/173/31 5/250/31 7/251/31
f 27/252/31 29/249/31 71/172/31
f 25/253/31 27/252/31 71/172/31
f 85/173/31 7/251/31 9/254/31
f 85/173/31 9/254/31 11/255/31
f 23/256/31 25/253/31 71/172/31
f 21/257/31 23/256/31 71/172/31
f 85/173/31 11/255/31 13/258/31
f 85/173/31 13/258/31 15/259/31
f 19/260/31 21/257/31 71/172/31
f 85/173/31 15/259/31 17/174/31
f 17/174/31 19/260/31 71/172/31
f 55/261/31 57/239/31 86/176/31
f 72/177/31 41/238/31 43/262/31
f 72/177/31 43/262/31 45/263/31
f 53/264/31 55/261/31 86/176/31
f 51/265/31 53/264/31 86/176/31
f 72/177/31 45/263/31 47/266/31
f 49/175/31 51/265/31 86/176/31
f 72/177/31 47/266/31 49/175/31
f 121/179/31 120/129/31 111/128/31
f 111/128/65 100/134/65 121/179/65
