# Blender v2.91.2 OBJ File: 'untitled.blend'
# www.blender.org
mtllib untitled_000049.mtl
o Cube
v -0.904227 -8.070619 -1.500000
v -0.904227 -4.070618 -1.500000
v -0.904227 -8.070619 1.500000
v -0.904227 -4.070618 1.500000
v 0.095773 -8.070619 -1.500000
v 0.095773 -4.070618 -1.500000
v 0.095773 -8.070619 1.500000
v 0.095773 -4.070618 1.500000
v 0.095773 -4.070618 0.000000
v -0.024749 -0.911730 0.000000
v -0.024749 -0.911730 1.500000
v -0.904227 -4.070618 0.000000
v -0.909647 -0.330284 1.500000
v -0.909647 -0.330284 0.000000
v -0.284199 0.017673 -1.496242
v 0.671826 -0.348438 -1.496508
v 0.671426 -0.351768 0.003490
v -0.284599 0.014344 0.003756
v -0.053992 -3.440832 1.500000
v -0.422302 -2.892033 1.500000
v -0.640846 -2.473019 1.500000
v -0.815201 -2.367764 1.500000
v -0.584446 -2.239077 1.500000
v -0.397880 -1.796628 1.500000
v -0.211314 -1.354179 1.500000
v -1.096212 -0.772732 1.500000
v -1.282778 -1.215182 1.500000
v -1.469343 -1.657630 1.500000
v -1.676665 -2.417597 1.500000
v -1.478876 -3.154130 1.500000
v -1.260332 -3.573144 1.500000
v -0.973007 -3.781389 1.500000
v -0.053992 -3.440832 0.000000
v -0.422302 -2.892033 0.000000
v -0.640846 -2.473019 0.000000
v -0.815201 -2.367764 0.000000
v -0.584446 -2.239077 0.000000
v -0.397880 -1.796628 0.000000
v -0.211314 -1.354179 0.000000
v -1.096212 -0.772732 0.000000
v -1.282778 -1.215182 0.000000
v -1.469343 -1.657630 0.000000
v -1.676665 -2.417597 0.000000
v -1.478876 -3.154130 0.000000
v -1.260332 -3.573144 0.000000
v -0.973007 -3.781389 0.000000
v 0.109359 -3.593205 -1.499918
v 0.151368 -3.117053 -1.499663
v 0.179790 -2.618315 -1.499491
v 0.205075 -2.190031 -1.499338
v 0.319410 -1.782474 -1.498645
v 0.436882 -1.304462 -1.497932
v 0.554354 -0.826450 -1.497220
v 0.553954 -0.829779 0.002777
v 0.436482 -1.307791 0.002065
v 0.319010 -1.785802 0.001353
v 0.204863 -2.192099 0.000661
v 0.179767 -2.619121 0.000509
v 0.151345 -3.117859 0.000337
v 0.109348 -3.593608 0.000082
v -0.889392 -3.549318 0.000090
v -0.846135 -3.029279 0.000352
v -0.817712 -2.530540 0.000524
v -0.771889 -1.964751 0.000802
v -0.637016 -1.419691 0.001620
v -0.519543 -0.941679 0.002332
v -0.402071 -0.463667 0.003044
v -0.889381 -3.548915 -1.499910
v -0.846112 -3.028473 -1.499648
v -0.817689 -2.529735 -1.499475
v -0.771678 -1.962684 -1.499197
v -0.636616 -1.416363 -1.498378
v -0.519144 -0.938352 -1.497666
v -0.401671 -0.460339 -1.496954
vt 0.625000 0.500000
vt 0.875000 0.500000
vt 0.875000 0.750000
vt 0.625000 0.750000
vt 0.375000 0.750000
vt 0.625000 1.000000
vt 0.375000 1.000000
vt 0.375000 0.000000
vt 0.625000 0.000000
vt 0.625000 0.250000
vt 0.375000 0.250000
vt 0.375000 0.125000
vt 0.375000 0.500000
vt 0.375000 0.625000
vt 0.375000 0.750000
vt 0.375000 1.000000
vt 0.375000 1.000000
vt 0.375000 0.750000
vt 0.000000 0.000000
vt 0.000000 0.000000
vt 0.000000 0.000000
vt 0.000000 0.000000
vt 0.375000 0.625000
vt 0.375000 0.625000
vt 0.375000 0.000000
vt 0.375000 0.125000
vt 0.375000 0.125000
vt 0.375000 0.000000
vt 0.375000 0.125000
vt 0.375000 0.250000
vt 0.375000 0.250000
vt 0.375000 0.125000
vt 0.000000 0.000000
vt 0.000000 0.000000
vt 0.000000 0.000000
vt 0.000000 0.000000
vt 0.375000 0.500000
vt 0.375000 0.500000
vt 0.375000 0.625000
vt 0.375000 0.625000
vt 0.375000 0.125000
vt 0.375000 0.000000
vt 0.375000 0.125000
vt 0.375000 0.000000
vt 0.375000 0.125000
vt 0.375000 0.000000
vt 0.375000 0.125000
vt 0.375000 0.000000
vt 0.375000 0.125000
vt 0.375000 0.000000
vt 0.375000 0.125000
vt 0.375000 0.000000
vt 0.375000 0.750000
vt 0.375000 0.625000
vt 0.375000 0.750000
vt 0.375000 0.625000
vt 0.375000 0.750000
vt 0.375000 0.625000
vt 0.375000 0.750000
vt 0.375000 0.625000
vt 0.375000 0.750000
vt 0.375000 0.625000
vt 0.375000 0.750000
vt 0.375000 0.625000
vt 0.000000 0.000000
vt 0.000000 0.000000
vt 0.000000 0.000000
vt 0.000000 0.000000
vt 0.000000 0.000000
vt 0.000000 0.000000
vt 0.000000 0.000000
vt 0.000000 0.000000
vt 0.000000 0.000000
vt 0.000000 0.000000
vt 0.000000 0.000000
vt 0.000000 0.000000
vt 0.000000 0.000000
vt 0.000000 0.000000
vt 0.375000 1.000000
vt 0.375000 1.000000
vt 0.375000 1.000000
vt 0.375000 1.000000
vt 0.375000 1.000000
vt 0.375000 1.000000
vt 0.375000 0.625000
vt 0.375000 0.500000
vt 0.375000 0.625000
vt 0.375000 0.500000
vt 0.375000 0.625000
vt 0.375000 0.500000
vt 0.375000 0.625000
vt 0.375000 0.500000
vt 0.375000 0.625000
vt 0.375000 0.500000
vt 0.375000 0.625000
vt 0.375000 0.500000
vt 0.375000 0.250000
vt 0.375000 0.250000
vt 0.375000 0.250000
vt 0.375000 0.250000
vt 0.375000 0.250000
vt 0.375000 0.250000
vt 0.000000 0.000000
vt 0.000000 0.000000
vt 0.000000 0.000000
vt 0.000000 0.000000
vt 0.000000 0.000000
vt 0.000000 0.000000
vt 0.000000 0.000000
vt 0.000000 0.000000
vt 0.000000 0.000000
vt 0.000000 0.000000
vt 0.000000 0.000000
vt 0.000000 0.000000
vt 0.375000 0.125000
vt 0.375000 0.125000
vt 0.375000 0.125000
vt 0.375000 0.125000
vt 0.375000 0.125000
vt 0.375000 0.125000
vn 0.0000 -1.0000 0.0000
vn 0.0000 0.0000 1.0000
vn 1.0000 0.0000 0.0000
vn -1.0000 0.0000 0.0000
vn 0.0000 0.0000 -1.0000
vn -0.9214 0.3885 0.0000
vn 0.9214 -0.3885 0.0000
vn 0.9711 -0.2387 -0.0003
vn 0.0003 0.0014 -1.0000
vn -0.9711 0.2387 0.0003
vn 0.3576 0.9339 0.0022
vn 0.5491 0.8357 0.0000
vn 0.9729 0.2314 0.0000
vn 0.8303 0.5573 0.0000
vn 0.8866 0.4624 0.0000
vn 0.5168 0.8561 0.0000
vn 0.4871 -0.8734 0.0000
vn -0.9729 -0.2314 0.0000
vn -0.5868 -0.8097 0.0000
vn -0.8866 -0.4624 0.0000
vn -0.9658 -0.2594 0.0000
vn -0.9647 0.2632 0.0000
vn -0.9996 0.0284 0.0000
vn -0.9966 0.0829 0.0000
vn -0.9984 0.0569 0.0000
vn -0.9967 0.0808 -0.0000
vn -0.9707 0.2401 0.0002
vn 0.0000 0.0002 -1.0000
vn 0.0000 0.0005 -1.0000
vn 0.0000 0.0003 -1.0000
vn -0.0000 0.0004 -1.0000
vn 0.0003 0.0015 -1.0000
vn 0.9996 -0.0284 0.0000
vn 0.9961 -0.0879 -0.0000
vn 0.9984 -0.0569 -0.0000
vn 0.9983 -0.0588 0.0000
vn 0.9628 -0.2703 -0.0003
usemtl Material
s off
f 1/1/1 5/2/1 7/3/1 3/4/1
f 4/5/2 3/4/2 7/6/2 8/7/2
f 8/8/3 7/9/3 5/10/3 6/11/3 9/12/3
f 2/13/4 1/1/4 3/4/4 4/5/4 12/14/4
f 6/11/5 5/10/5 1/1/5 2/13/5
f 26/15/2 25/16/2 11/17/2 13/18/2
f 40/19/2 39/20/2 10/21/2 14/22/2
f 40/23/6 26/15/6 13/18/6 14/24/6
f 25/25/7 39/26/7 10/27/7 11/28/7
f 54/29/8 53/30/8 16/31/8 17/32/8
f 54/33/9 67/34/9 18/35/9 17/36/9
f 53/30/9 74/37/9 15/38/9 16/31/9
f 74/37/10 67/39/10 18/40/10 15/38/10
f 18/35/11 17/36/11 16/31/11 15/38/11
f 13/18/12 11/17/12 10/27/12 14/22/12
f 8/8/13 9/12/13 33/41/13 19/42/13
f 19/42/14 33/41/14 34/43/14 20/44/14
f 20/44/15 34/43/15 35/45/15 21/46/15
f 21/46/16 35/45/16 36/47/16 22/48/16
f 22/48/17 36/47/17 37/49/17 23/50/17
f 23/50/7 37/49/7 38/51/7 24/52/7
f 24/52/7 38/51/7 39/26/7 25/25/7
f 12/14/18 4/5/18 32/53/18 46/54/18
f 46/54/19 32/53/19 31/55/19 45/56/19
f 45/56/20 31/55/20 30/57/20 44/58/20
f 44/58/21 30/57/21 29/59/21 43/60/21
f 43/60/22 29/59/22 28/61/22 42/62/22
f 42/62/6 28/61/6 27/63/6 41/64/6
f 41/64/6 27/63/6 26/15/6 40/23/6
f 12/65/2 9/66/2 33/67/2 46/68/2
f 46/68/2 33/67/2 34/69/2 45/70/2
f 45/70/2 34/69/2 35/71/2 44/72/2
f 44/72/2 35/71/2 36/73/2 43/74/2
f 43/74/2 36/73/2 37/75/2 42/76/2
f 42/76/2 37/75/2 38/77/2 41/78/2
f 41/78/2 38/77/2 39/20/2 40/19/2
f 4/5/2 8/7/2 19/79/2 32/53/2
f 32/53/2 19/79/2 20/80/2 31/55/2
f 31/55/2 20/80/2 21/81/2 30/57/2
f 30/57/2 21/81/2 22/82/2 29/59/2
f 29/59/2 22/82/2 23/83/2 28/61/2
f 28/61/2 23/83/2 24/84/2 27/63/2
f 27/63/2 24/84/2 25/16/2 26/15/2
f 2/13/23 12/14/23 61/85/23 68/86/23
f 68/86/24 61/85/24 62/87/24 69/88/24
f 69/88/25 62/87/25 63/89/25 70/90/25
f 70/90/26 63/89/26 64/91/26 71/92/26
f 71/92/27 64/91/27 65/93/27 72/94/27
f 72/94/10 65/93/10 66/95/10 73/96/10
f 73/96/10 66/95/10 67/39/10 74/37/10
f 6/11/28 2/13/28 68/86/28 47/97/28
f 47/97/29 68/86/29 69/88/29 48/98/29
f 48/98/30 69/88/30 70/90/30 49/99/30
f 49/99/31 70/90/31 71/92/31 50/100/31
f 50/100/32 71/92/32 72/94/32 51/101/32
f 51/101/9 72/94/9 73/96/9 52/102/9
f 52/102/9 73/96/9 74/37/9 53/30/9
f 9/66/28 12/65/28 61/103/28 60/104/28
f 60/104/29 61/103/29 62/105/29 59/106/29
f 59/106/30 62/105/30 63/107/30 58/108/30
f 58/108/31 63/107/31 64/109/31 57/110/31
f 57/110/32 64/109/32 65/111/32 56/112/32
f 56/112/9 65/111/9 66/113/9 55/114/9
f 55/114/9 66/113/9 67/34/9 54/33/9
f 9/12/33 6/11/33 47/97/33 60/115/33
f 60/115/34 47/97/34 48/98/34 59/116/34
f 59/116/35 48/98/35 49/99/35 58/117/35
f 58/117/36 49/99/36 50/100/36 57/118/36
f 57/118/37 50/100/37 51/101/37 56/119/37
f 56/119/8 51/101/8 52/102/8 55/120/8
f 55/120/8 52/102/8 53/30/8 54/29/8
