# Blender v2.91.2 OBJ File: 'untitled.blend'
# www.blender.org
mtllib untitled_000014.mtl
o Cube
v -0.937594 -8.048353 -1.500000
v -0.913370 -4.048467 -1.500000
v -0.937594 -8.048353 1.500000
v -0.913370 -4.048467 1.500000
v 0.062378 -8.057790 -1.500000
v 0.086602 -4.057904 -1.500000
v 0.062378 -8.057790 1.500000
v 0.086602 -4.057904 1.500000
v 0.086602 -4.057904 0.000000
v -0.081777 -0.120198 0.000000
v -0.081777 -0.120198 1.500000
v -0.913370 -4.048467 0.000000
v -1.080158 -0.049194 1.500000
v -1.080158 -0.049194 0.000000
v 0.230214 -0.605601 -1.493194
v 0.759644 -1.664607 -1.496008
v 0.755366 -1.674151 0.003966
v 0.225936 -0.615144 0.006780
v 0.050293 -3.505977 1.500000
v -0.057374 -2.961365 1.500000
v -0.125704 -2.468695 1.500000
v -0.183471 -2.046493 1.500000
v -0.150125 -1.617770 1.500000
v -0.127342 -1.118580 1.500000
v -0.104559 -0.619388 1.500000
v -1.102941 -0.548384 1.500000
v -1.125723 -1.047575 1.500000
v -1.148506 -1.546765 1.500000
v -1.175332 -2.117470 1.500000
v -1.111045 -2.681653 1.500000
v -1.042715 -3.174323 1.500000
v -0.942363 -3.607738 1.500000
v 0.050293 -3.505977 0.000000
v -0.057374 -2.961365 0.000000
v -0.125704 -2.468695 0.000000
v -0.183471 -2.046493 0.000000
v -0.150125 -1.617770 0.000000
v -0.127342 -1.118580 0.000000
v -0.104559 -0.619388 0.000000
v -1.102941 -0.548384 0.000000
v -1.125723 -1.047575 0.000000
v -1.148506 -1.546765 0.000000
v -1.175332 -2.117470 0.000000
v -1.111045 -2.681653 0.000000
v -1.042715 -3.174323 0.000000
v -0.942363 -3.607738 0.000000
v 0.008180 -3.467491 -1.500497
v -0.205403 -2.905054 -1.501812
v -0.337536 -2.433046 -1.502631
v -0.534608 -2.342235 -1.503829
v -0.259749 -2.458726 -1.502158
v 0.080049 -2.194020 -1.500108
v 0.419847 -1.929313 -1.498058
v 0.415568 -1.938858 0.001916
v 0.075770 -2.203564 -0.000134
v -0.264028 -2.468270 -0.002184
v -0.537002 -2.345092 -0.003843
v -0.338045 -2.429215 -0.002634
v -0.205912 -2.901224 -0.001816
v 0.007926 -3.465576 -0.000499
v -0.964070 -3.666759 -0.000321
v -1.149932 -3.313027 -0.001461
v -1.282065 -2.841019 -0.002279
v -1.273727 -2.021489 -0.002259
v -0.793458 -1.409263 0.000630
v -0.453660 -1.144557 0.002680
v -0.113861 -0.879851 0.004730
v -0.963816 -3.668674 -1.500320
v -1.149423 -3.316858 -1.501458
v -1.281556 -2.844849 -1.502276
v -1.271333 -2.018633 -1.502244
v -0.789179 -1.399719 -1.499345
v -0.449381 -1.135013 -1.497295
v -0.109583 -0.870306 -1.495244
vt 0.625000 0.500000
vt 0.875000 0.500000
vt 0.875000 0.750000
vt 0.625000 0.750000
vt 0.375000 0.750000
vt 0.625000 1.000000
vt 0.375000 1.000000
vt 0.375000 0.000000
vt 0.625000 0.000000
vt 0.625000 0.250000
vt 0.375000 0.250000
vt 0.375000 0.125000
vt 0.375000 0.500000
vt 0.375000 0.625000
vt 0.375000 0.750000
vt 0.375000 1.000000
vt 0.375000 1.000000
vt 0.375000 0.750000
vt 0.000000 0.000000
vt 0.000000 0.000000
vt 0.000000 0.000000
vt 0.000000 0.000000
vt 0.375000 0.625000
vt 0.375000 0.625000
vt 0.375000 0.000000
vt 0.375000 0.125000
vt 0.375000 0.125000
vt 0.375000 0.000000
vt 0.375000 0.125000
vt 0.375000 0.250000
vt 0.375000 0.250000
vt 0.375000 0.125000
vt 0.000000 0.000000
vt 0.000000 0.000000
vt 0.000000 0.000000
vt 0.000000 0.000000
vt 0.375000 0.500000
vt 0.375000 0.500000
vt 0.375000 0.625000
vt 0.375000 0.625000
vt 0.375000 0.125000
vt 0.375000 0.000000
vt 0.375000 0.125000
vt 0.375000 0.000000
vt 0.375000 0.125000
vt 0.375000 0.000000
vt 0.375000 0.125000
vt 0.375000 0.000000
vt 0.375000 0.125000
vt 0.375000 0.000000
vt 0.375000 0.125000
vt 0.375000 0.000000
vt 0.375000 0.750000
vt 0.375000 0.625000
vt 0.375000 0.750000
vt 0.375000 0.625000
vt 0.375000 0.750000
vt 0.375000 0.625000
vt 0.375000 0.750000
vt 0.375000 0.625000
vt 0.375000 0.750000
vt 0.375000 0.625000
vt 0.375000 0.750000
vt 0.375000 0.625000
vt 0.000000 0.000000
vt 0.000000 0.000000
vt 0.000000 0.000000
vt 0.000000 0.000000
vt 0.000000 0.000000
vt 0.000000 0.000000
vt 0.000000 0.000000
vt 0.000000 0.000000
vt 0.000000 0.000000
vt 0.000000 0.000000
vt 0.000000 0.000000
vt 0.000000 0.000000
vt 0.000000 0.000000
vt 0.000000 0.000000
vt 0.375000 1.000000
vt 0.375000 1.000000
vt 0.375000 1.000000
vt 0.375000 1.000000
vt 0.375000 1.000000
vt 0.375000 1.000000
vt 0.375000 0.625000
vt 0.375000 0.500000
vt 0.375000 0.625000
vt 0.375000 0.500000
vt 0.375000 0.625000
vt 0.375000 0.500000
vt 0.375000 0.625000
vt 0.375000 0.500000
vt 0.375000 0.625000
vt 0.375000 0.500000
vt 0.375000 0.625000
vt 0.375000 0.500000
vt 0.375000 0.250000
vt 0.375000 0.250000
vt 0.375000 0.250000
vt 0.375000 0.250000
vt 0.375000 0.250000
vt 0.375000 0.250000
vt 0.000000 0.000000
vt 0.000000 0.000000
vt 0.000000 0.000000
vt 0.000000 0.000000
vt 0.000000 0.000000
vt 0.000000 0.000000
vt 0.000000 0.000000
vt 0.000000 0.000000
vt 0.000000 0.000000
vt 0.000000 0.000000
vt 0.000000 0.000000
vt 0.000000 0.000000
vt 0.375000 0.125000
vt 0.375000 0.125000
vt 0.375000 0.125000
vt 0.375000 0.125000
vt 0.375000 0.125000
vt 0.375000 0.125000
vn -0.0094 -1.0000 0.0000
vn 0.0000 0.0000 1.0000
vn 1.0000 -0.0061 0.0000
vn -1.0000 0.0061 0.0000
vn 0.0000 0.0000 -1.0000
vn -0.9990 0.0456 0.0000
vn 0.9990 -0.0456 0.0000
vn 0.6146 -0.7889 -0.0033
vn 0.0029 0.0041 -1.0000
vn -0.6146 0.7889 0.0033
vn 0.8944 0.4471 0.0054
vn 0.0709 0.9975 0.0000
vn 0.9978 0.0656 0.0000
vn 0.9810 0.1939 0.0000
vn 0.9905 0.1374 0.0000
vn 0.9908 0.1356 0.0000
vn 0.9970 -0.0775 0.0000
vn -0.9978 -0.0656 0.0000
vn -0.9742 -0.2256 0.0000
vn -0.9905 -0.1374 0.0000
vn -0.9936 -0.1132 0.0000
vn -0.9989 0.0470 0.0000
vn -0.9913 -0.1317 -0.0000
vn -0.8849 -0.4659 0.0007
vn -0.9630 -0.2696 0.0004
vn -0.9999 0.0113 -0.0010
vn -0.7878 0.6159 0.0008
vn -0.0000 -0.0008 -1.0000
vn 0.0005 -0.0025 -1.0000
vn 0.0003 -0.0016 -1.0000
vn -0.0011 -0.0015 -1.0000
vn 0.0024 0.0054 -1.0000
vn 0.0025 0.0055 -1.0000
vn 0.9913 0.1317 -0.0000
vn 0.9350 0.3547 -0.0004
vn 0.9630 0.2696 -0.0004
vn 0.4041 0.9147 0.0001
vn -0.4008 -0.9162 -0.0047
usemtl Material
s off
f 1/1/1 5/2/1 7/3/1 3/4/1
f 4/5/2 3/4/2 7/6/2 8/7/2
f 8/8/3 7/9/3 5/10/3 6/11/3 9/12/3
f 2/13/4 1/1/4 3/4/4 4/5/4 12/14/4
f 6/11/5 5/10/5 1/1/5 2/13/5
f 26/15/2 25/16/2 11/17/2 13/18/2
f 40/19/2 39/20/2 10/21/2 14/22/2
f 40/23/6 26/15/6 13/18/6 14/24/6
f 25/25/7 39/26/7 10/27/7 11/28/7
f 54/29/8 53/30/8 16/31/8 17/32/8
f 54/33/9 67/34/9 18/35/9 17/36/9
f 53/30/9 74/37/9 15/38/9 16/31/9
f 74/37/10 67/39/10 18/40/10 15/38/10
f 18/35/11 17/36/11 16/31/11 15/38/11
f 13/18/12 11/17/12 10/27/12 14/22/12
f 8/8/13 9/12/13 33/41/13 19/42/13
f 19/42/14 33/41/14 34/43/14 20/44/14
f 20/44/15 34/43/15 35/45/15 21/46/15
f 21/46/16 35/45/16 36/47/16 22/48/16
f 22/48/17 36/47/17 37/49/17 23/50/17
f 23/50/7 37/49/7 38/51/7 24/52/7
f 24/52/7 38/51/7 39/26/7 25/25/7
f 12/14/18 4/5/18 32/53/18 46/54/18
f 46/54/19 32/53/19 31/55/19 45/56/19
f 45/56/20 31/55/20 30/57/20 44/58/20
f 44/58/21 30/57/21 29/59/21 43/60/21
f 43/60/22 29/59/22 28/61/22 42/62/22
f 42/62/6 28/61/6 27/63/6 41/64/6
f 41/64/6 27/63/6 26/15/6 40/23/6
f 12/65/2 9/66/2 33/67/2 46/68/2
f 46/68/2 33/67/2 34/69/2 45/70/2
f 45/70/2 34/69/2 35/71/2 44/72/2
f 44/72/2 35/71/2 36/73/2 43/74/2
f 43/74/2 36/73/2 37/75/2 42/76/2
f 42/76/2 37/75/2 38/77/2 41/78/2
f 41/78/2 38/77/2 39/20/2 40/19/2
f 4/5/2 8/7/2 19/79/2 32/53/2
f 32/53/2 19/79/2 20/80/2 31/55/2
f 31/55/2 20/80/2 21/81/2 30/57/2
f 30/57/2 21/81/2 22/82/2 29/59/2
f 29/59/2 22/82/2 23/83/2 28/61/2
f 28/61/2 23/83/2 24/84/2 27/63/2
f 27/63/2 24/84/2 25/16/2 26/15/2
f 2/13/23 12/14/23 61/85/23 68/86/23
f 68/86/24 61/85/24 62/87/24 69/88/24
f 69/88/25 62/87/25 63/89/25 70/90/25
f 70/90/26 63/89/26 64/91/26 71/92/26
f 71/92/27 64/91/27 65/93/27 72/94/27
f 72/94/10 65/93/10 66/95/10 73/96/10
f 73/96/10 66/95/10 67/39/10 74/37/10
f 6/11/28 2/13/28 68/86/28 47/97/28
f 47/97/29 68/86/29 69/88/29 48/98/29
f 48/98/30 69/88/30 70/90/30 49/99/30
f 49/99/31 70/90/31 71/92/31 50/100/31
f 50/100/32 71/92/32 72/94/32 51/101/32
f 51/101/9 72/94/9 73/96/9 52/102/9
f 52/102/9 73/96/9 74/37/9 53/30/9
f 9/66/28 12/65/28 61/103/28 60/104/28
f 60/104/29 61/103/29 62/105/29 59/106/29
f 59/106/30 62/105/30 63/107/30 58/108/30
f 58/108/31 63/107/31 64/109/31 57/110/31
f 57/110/33 64/109/33 65/111/33 56/112/33
f 56/112/9 65/111/9 66/113/9 55/114/9
f 55/114/9 66/113/9 67/34/9 54/33/9
f 9/12/34 6/11/34 47/97/34 60/115/34
f 60/115/35 47/97/35 48/98/35 59/116/35
f 59/116/36 48/98/36 49/99/36 58/117/36
f 58/117/37 49/99/37 50/100/37 57/118/37
f 57/118/38 50/100/38 51/101/38 56/119/38
f 56/119/8 51/101/8 52/102/8 55/120/8
f 55/120/8 52/102/8 53/30/8 54/29/8
