# Blender v2.91.2 OBJ File: 'untitled.blend'
# www.blender.org
mtllib untitled_000009.mtl
o Cube
v -0.763983 -7.937275 -1.500000
v -0.687483 -3.938415 -1.500000
v -0.763983 -7.937275 1.500000
v -0.687483 -3.938415 1.500000
v 0.235732 -7.967077 -1.500000
v 0.312232 -3.968217 -1.500000
v 0.235732 -7.967077 1.500000
v 0.312232 -3.968217 1.500000
v 0.312232 -3.968217 0.000000
v -0.535995 0.033920 0.000000
v -0.535995 0.033920 1.500000
v -0.687483 -3.938415 0.000000
v -1.513352 -0.230220 1.500000
v -1.513352 -0.230220 0.000000
v 1.620634 -1.187329 -1.486331
v 1.735247 -2.427401 -1.491555
v 1.727198 -2.438406 0.008398
v 1.612586 -1.198335 0.013621
v 0.241274 -3.375261 1.500000
v 0.034584 -2.807615 1.500000
v -0.091584 -2.333070 1.500000
v -0.207367 -1.889659 1.500000
v -0.281735 -1.432116 1.500000
v -0.366488 -0.943437 1.500000
v -0.451241 -0.454759 1.500000
v -1.428599 -0.718899 1.500000
v -1.343845 -1.207577 1.500000
v -1.259092 -1.696256 1.500000
v -1.170592 -2.218336 1.500000
v -1.040678 -2.726284 1.500000
v -0.914509 -3.200830 1.500000
v -0.733131 -3.556968 1.500000
v 0.241274 -3.375261 0.000000
v 0.034584 -2.807615 0.000000
v -0.091584 -2.333070 0.000000
v -0.207367 -1.889659 0.000000
v -0.281735 -1.432116 0.000000
v -0.366488 -0.943437 0.000000
v -0.451241 -0.454759 0.000000
v -1.428599 -0.718899 0.000000
v -1.343845 -1.207577 0.000000
v -1.259092 -1.696256 0.000000
v -1.170592 -2.218336 0.000000
v -1.040678 -2.726284 0.000000
v -0.914509 -3.200830 0.000000
v -0.733131 -3.556968 0.000000
v 0.341723 -3.504699 -1.499875
v 0.415417 -3.045564 -1.499482
v 0.469182 -2.550090 -1.499213
v 0.333307 -2.355589 -1.500059
v 0.541562 -2.599274 -1.498769
v 0.939457 -2.541983 -1.496364
v 1.337352 -2.484692 -1.493959
v 1.329304 -2.495697 0.005993
v 0.931409 -2.552988 0.003588
v 0.533514 -2.610279 0.001184
v 0.329243 -2.361718 -0.000083
v 0.469102 -2.551342 0.000786
v 0.415337 -3.046816 0.000518
v 0.341683 -3.505326 0.000125
v -0.653649 -3.406643 0.000143
v -0.575613 -2.879252 0.000555
v -0.521848 -2.383779 0.000824
v -0.223538 -1.657900 0.002547
v 0.418901 -1.370207 0.006407
v 0.816795 -1.312916 0.008812
v 1.214691 -1.255625 0.011216
v -0.653609 -3.406016 -1.499856
v -0.575533 -2.878000 -1.499445
v -0.521768 -2.382526 -1.499176
v -0.219474 -1.651771 -1.497429
v 0.426949 -1.359202 -1.493545
v 0.824844 -1.301912 -1.491141
v 1.222739 -1.244620 -1.488736
vt 0.625000 0.500000
vt 0.875000 0.500000
vt 0.875000 0.750000
vt 0.625000 0.750000
vt 0.375000 0.750000
vt 0.625000 1.000000
vt 0.375000 1.000000
vt 0.375000 0.000000
vt 0.625000 0.000000
vt 0.625000 0.250000
vt 0.375000 0.250000
vt 0.375000 0.125000
vt 0.375000 0.500000
vt 0.375000 0.625000
vt 0.375000 0.750000
vt 0.375000 1.000000
vt 0.375000 1.000000
vt 0.375000 0.750000
vt 0.000000 0.000000
vt 0.000000 0.000000
vt 0.000000 0.000000
vt 0.000000 0.000000
vt 0.375000 0.625000
vt 0.375000 0.625000
vt 0.375000 0.000000
vt 0.375000 0.125000
vt 0.375000 0.125000
vt 0.375000 0.000000
vt 0.375000 0.125000
vt 0.375000 0.250000
vt 0.375000 0.250000
vt 0.375000 0.125000
vt 0.000000 0.000000
vt 0.000000 0.000000
vt 0.000000 0.000000
vt 0.000000 0.000000
vt 0.375000 0.500000
vt 0.375000 0.500000
vt 0.375000 0.625000
vt 0.375000 0.625000
vt 0.375000 0.125000
vt 0.375000 0.000000
vt 0.375000 0.125000
vt 0.375000 0.000000
vt 0.375000 0.125000
vt 0.375000 0.000000
vt 0.375000 0.125000
vt 0.375000 0.000000
vt 0.375000 0.125000
vt 0.375000 0.000000
vt 0.375000 0.125000
vt 0.375000 0.000000
vt 0.375000 0.750000
vt 0.375000 0.625000
vt 0.375000 0.750000
vt 0.375000 0.625000
vt 0.375000 0.750000
vt 0.375000 0.625000
vt 0.375000 0.750000
vt 0.375000 0.625000
vt 0.375000 0.750000
vt 0.375000 0.625000
vt 0.375000 0.750000
vt 0.375000 0.625000
vt 0.000000 0.000000
vt 0.000000 0.000000
vt 0.000000 0.000000
vt 0.000000 0.000000
vt 0.000000 0.000000
vt 0.000000 0.000000
vt 0.000000 0.000000
vt 0.000000 0.000000
vt 0.000000 0.000000
vt 0.000000 0.000000
vt 0.000000 0.000000
vt 0.000000 0.000000
vt 0.000000 0.000000
vt 0.000000 0.000000
vt 0.375000 1.000000
vt 0.375000 1.000000
vt 0.375000 1.000000
vt 0.375000 1.000000
vt 0.375000 1.000000
vt 0.375000 1.000000
vt 0.375000 0.625000
vt 0.375000 0.500000
vt 0.375000 0.625000
vt 0.375000 0.500000
vt 0.375000 0.625000
vt 0.375000 0.500000
vt 0.375000 0.625000
vt 0.375000 0.500000
vt 0.375000 0.625000
vt 0.375000 0.500000
vt 0.375000 0.625000
vt 0.375000 0.500000
vt 0.375000 0.250000
vt 0.375000 0.250000
vt 0.375000 0.250000
vt 0.375000 0.250000
vt 0.375000 0.250000
vt 0.375000 0.250000
vt 0.000000 0.000000
vt 0.000000 0.000000
vt 0.000000 0.000000
vt 0.000000 0.000000
vt 0.000000 0.000000
vt 0.000000 0.000000
vt 0.000000 0.000000
vt 0.000000 0.000000
vt 0.000000 0.000000
vt 0.000000 0.000000
vt 0.000000 0.000000
vt 0.000000 0.000000
vt 0.375000 0.125000
vt 0.375000 0.125000
vt 0.375000 0.125000
vt 0.375000 0.125000
vt 0.375000 0.125000
vt 0.375000 0.125000
vn -0.0298 -0.9996 0.0000
vn 0.0000 0.0000 1.0000
vn 0.9998 -0.0191 0.0000
vn -0.9998 0.0191 0.0000
vn 0.0000 0.0000 -1.0000
vn -0.9853 -0.1709 0.0000
vn 0.9853 0.1709 0.0000
vn 0.1426 -0.9898 -0.0065
vn 0.0054 0.0047 -1.0000
vn -0.1425 0.9898 0.0065
vn 0.9957 0.0920 0.0060
vn -0.2609 0.9654 0.0000
vn 0.9929 0.1188 0.0000
vn 0.9396 0.3421 0.0000
vn 0.9664 0.2569 0.0000
vn 0.9676 0.2526 0.0000
vn 0.9870 0.1604 0.0000
vn -0.9929 -0.1188 0.0000
vn -0.8911 -0.4538 0.0000
vn -0.9664 -0.2569 0.0000
vn -0.9688 -0.2478 0.0000
vn -0.9859 -0.1671 0.0000
vn -0.9980 0.0635 -0.0000
vn -0.9892 0.1463 0.0001
vn -0.9942 0.1079 0.0000
vn -0.9245 0.3812 -0.0003
vn -0.4105 0.9118 0.0036
vn -0.1426 0.9898 0.0065
vn 0.0000 0.0003 -1.0000
vn 0.0001 0.0008 -1.0000
vn 0.0001 0.0005 -1.0000
vn -0.0011 0.0012 -1.0000
vn 0.0057 0.0060 -1.0000
vn -0.0011 0.0011 -1.0000
vn 0.0058 0.0060 -1.0000
vn 0.9980 -0.0635 0.0000
vn 0.9874 -0.1585 -0.0001
vn 0.9942 -0.1079 -0.0000
vn 0.8124 0.5831 0.0026
vn -0.7664 -0.6423 -0.0068
usemtl Material
s off
f 1/1/1 5/2/1 7/3/1 3/4/1
f 4/5/2 3/4/2 7/6/2 8/7/2
f 8/8/3 7/9/3 5/10/3 6/11/3 9/12/3
f 2/13/4 1/1/4 3/4/4 4/5/4 12/14/4
f 6/11/5 5/10/5 1/1/5 2/13/5
f 26/15/2 25/16/2 11/17/2 13/18/2
f 40/19/2 39/20/2 10/21/2 14/22/2
f 40/23/6 26/15/6 13/18/6 14/24/6
f 25/25/7 39/26/7 10/27/7 11/28/7
f 54/29/8 53/30/8 16/31/8 17/32/8
f 54/33/9 67/34/9 18/35/9 17/36/9
f 53/30/9 74/37/9 15/38/9 16/31/9
f 74/37/10 67/39/10 18/40/10 15/38/10
f 18/35/11 17/36/11 16/31/11 15/38/11
f 13/18/12 11/17/12 10/27/12 14/22/12
f 8/8/13 9/12/13 33/41/13 19/42/13
f 19/42/14 33/41/14 34/43/14 20/44/14
f 20/44/15 34/43/15 35/45/15 21/46/15
f 21/46/16 35/45/16 36/47/16 22/48/16
f 22/48/17 36/47/17 37/49/17 23/50/17
f 23/50/7 37/49/7 38/51/7 24/52/7
f 24/52/7 38/51/7 39/26/7 25/25/7
f 12/14/18 4/5/18 32/53/18 46/54/18
f 46/54/19 32/53/19 31/55/19 45/56/19
f 45/56/20 31/55/20 30/57/20 44/58/20
f 44/58/21 30/57/21 29/59/21 43/60/21
f 43/60/22 29/59/22 28/61/22 42/62/22
f 42/62/6 28/61/6 27/63/6 41/64/6
f 41/64/6 27/63/6 26/15/6 40/23/6
f 12/65/2 9/66/2 33/67/2 46/68/2
f 46/68/2 33/67/2 34/69/2 45/70/2
f 45/70/2 34/69/2 35/71/2 44/72/2
f 44/72/2 35/71/2 36/73/2 43/74/2
f 43/74/2 36/73/2 37/75/2 42/76/2
f 42/76/2 37/75/2 38/77/2 41/78/2
f 41/78/2 38/77/2 39/20/2 40/19/2
f 4/5/2 8/7/2 19/79/2 32/53/2
f 32/53/2 19/79/2 20/80/2 31/55/2
f 31/55/2 20/80/2 21/81/2 30/57/2
f 30/57/2 21/81/2 22/82/2 29/59/2
f 29/59/2 22/82/2 23/83/2 28/61/2
f 28/61/2 23/83/2 24/84/2 27/63/2
f 27/63/2 24/84/2 25/16/2 26/15/2
f 2/13/23 12/14/23 61/85/23 68/86/23
f 68/86/24 61/85/24 62/87/24 69/88/24
f 69/88/25 62/87/25 63/89/25 70/90/25
f 70/90/26 63/89/26 64/91/26 71/92/26
f 71/92/27 64/91/27 65/93/27 72/94/27
f 72/94/28 65/93/28 66/95/28 73/96/28
f 73/96/28 66/95/28 67/39/28 74/37/28
f 6/11/29 2/13/29 68/86/29 47/97/29
f 47/97/30 68/86/30 69/88/30 48/98/30
f 48/98/31 69/88/31 70/90/31 49/99/31
f 49/99/32 70/90/32 71/92/32 50/100/32
f 50/100/33 71/92/33 72/94/33 51/101/33
f 51/101/9 72/94/9 73/96/9 52/102/9
f 52/102/9 73/96/9 74/37/9 53/30/9
f 9/66/29 12/65/29 61/103/29 60/104/29
f 60/104/30 61/103/30 62/105/30 59/106/30
f 59/106/31 62/105/31 63/107/31 58/108/31
f 58/108/34 63/107/34 64/109/34 57/110/34
f 57/110/35 64/109/35 65/111/35 56/112/35
f 56/112/9 65/111/9 66/113/9 55/114/9
f 55/114/9 66/113/9 67/34/9 54/33/9
f 9/12/36 6/11/36 47/97/36 60/115/36
f 60/115/37 47/97/37 48/98/37 59/116/37
f 59/116/38 48/98/38 49/99/38 58/117/38
f 58/117/39 49/99/39 50/100/39 57/118/39
f 57/118/40 50/100/40 51/101/40 56/119/40
f 56/119/8 51/101/8 52/102/8 55/120/8
f 55/120/8 52/102/8 53/30/8 54/29/8
