# Blender v2.91.2 OBJ File: 'untitled.blend'
# www.blender.org
mtllib untitled_000044.mtl
o Cube
v -0.937608 -8.057455 -1.500000
v -0.937608 -4.057455 -1.500000
v -0.937608 -8.057455 1.500000
v -0.937608 -4.057455 1.500000
v 0.062392 -8.057455 -1.500000
v 0.062392 -4.057455 -1.500000
v 0.062392 -8.057455 1.500000
v 0.062392 -4.057455 1.500000
v 0.062392 -4.057455 0.000000
v 0.635220 -1.601910 0.000000
v 0.635220 -1.601910 1.500000
v -0.937608 -4.057455 0.000000
v 0.063364 -0.577849 1.500000
v 0.063364 -0.577849 0.000000
v -1.242231 -0.096586 -1.501847
v -0.242243 -0.090395 -1.501847
v -0.242243 -0.090339 -0.001847
v -1.242231 -0.096530 -0.001847
v -0.031618 -3.458205 1.500000
v -0.276712 -2.895891 1.500000
v -0.427796 -2.432825 1.500000
v -0.629000 -2.357690 1.500000
v -0.350535 -2.459692 1.500000
v -0.021950 -2.173765 1.500000
v 0.306635 -1.887837 1.500000
v -0.265221 -0.863776 1.500000
v -0.593806 -1.149704 1.500000
v -0.922391 -1.435633 1.500000
v -1.377994 -2.081093 1.500000
v -1.353927 -2.903692 1.500000
v -1.202843 -3.366757 1.500000
v -0.994683 -3.693639 1.500000
v -0.031618 -3.458205 0.000000
v -0.276712 -2.895891 0.000000
v -0.427796 -2.432825 0.000000
v -0.629000 -2.357690 0.000000
v -0.350535 -2.459692 0.000000
v -0.021950 -2.173765 0.000000
v 0.306635 -1.887837 0.000000
v -0.265221 -0.863776 0.000000
v -0.593806 -1.149704 0.000000
v -0.922391 -1.435633 0.000000
v -1.377994 -2.081093 0.000000
v -1.353927 -2.903692 0.000000
v -1.202843 -3.366757 0.000000
v -0.994683 -3.693639 0.000000
v 0.019154 -3.502514 -1.500262
v -0.101269 -2.956943 -1.500992
v -0.178453 -2.466314 -1.501460
v -0.244967 -2.033029 -1.501863
v -0.236283 -1.590376 -1.501811
v -0.238270 -1.090384 -1.501823
v -0.240256 -0.590389 -1.501835
v -0.240256 -0.590332 -0.001835
v -0.238270 -1.090327 -0.001823
v -0.236283 -1.590320 -0.001811
v -0.245053 -2.031906 -0.001864
v -0.178624 -2.464127 -0.001461
v -0.101439 -2.954755 -0.000993
v 0.019068 -3.501419 -0.000263
v -0.971561 -3.621695 -0.000206
v -1.082697 -3.195308 -0.000879
v -1.159881 -2.704679 -0.001347
v -1.235675 -2.155278 -0.001807
v -1.236271 -1.596511 -0.001810
v -1.238258 -1.096519 -0.001823
v -1.240244 -0.596523 -0.001835
v -0.971475 -3.622789 -1.500205
v -1.082527 -3.197495 -1.500879
v -1.159711 -2.706866 -1.501346
v -1.235590 -2.156400 -1.501806
v -1.236271 -1.596567 -1.501811
v -1.238258 -1.096574 -1.501823
v -1.240244 -0.596580 -1.501835
vt 0.625000 0.500000
vt 0.875000 0.500000
vt 0.875000 0.750000
vt 0.625000 0.750000
vt 0.375000 0.750000
vt 0.625000 1.000000
vt 0.375000 1.000000
vt 0.375000 0.000000
vt 0.625000 0.000000
vt 0.625000 0.250000
vt 0.375000 0.250000
vt 0.375000 0.125000
vt 0.375000 0.500000
vt 0.375000 0.625000
vt 0.375000 0.750000
vt 0.375000 1.000000
vt 0.375000 1.000000
vt 0.375000 0.750000
vt 0.000000 0.000000
vt 0.000000 0.000000
vt 0.000000 0.000000
vt 0.000000 0.000000
vt 0.375000 0.625000
vt 0.375000 0.625000
vt 0.375000 0.000000
vt 0.375000 0.125000
vt 0.375000 0.125000
vt 0.375000 0.000000
vt 0.375000 0.125000
vt 0.375000 0.250000
vt 0.375000 0.250000
vt 0.375000 0.125000
vt 0.000000 0.000000
vt 0.000000 0.000000
vt 0.000000 0.000000
vt 0.000000 0.000000
vt 0.375000 0.500000
vt 0.375000 0.500000
vt 0.375000 0.625000
vt 0.375000 0.625000
vt 0.375000 0.125000
vt 0.375000 0.000000
vt 0.375000 0.125000
vt 0.375000 0.000000
vt 0.375000 0.125000
vt 0.375000 0.000000
vt 0.375000 0.125000
vt 0.375000 0.000000
vt 0.375000 0.125000
vt 0.375000 0.000000
vt 0.375000 0.125000
vt 0.375000 0.000000
vt 0.375000 0.750000
vt 0.375000 0.625000
vt 0.375000 0.750000
vt 0.375000 0.625000
vt 0.375000 0.750000
vt 0.375000 0.625000
vt 0.375000 0.750000
vt 0.375000 0.625000
vt 0.375000 0.750000
vt 0.375000 0.625000
vt 0.375000 0.750000
vt 0.375000 0.625000
vt 0.000000 0.000000
vt 0.000000 0.000000
vt 0.000000 0.000000
vt 0.000000 0.000000
vt 0.000000 0.000000
vt 0.000000 0.000000
vt 0.000000 0.000000
vt 0.000000 0.000000
vt 0.000000 0.000000
vt 0.000000 0.000000
vt 0.000000 0.000000
vt 0.000000 0.000000
vt 0.000000 0.000000
vt 0.000000 0.000000
vt 0.375000 1.000000
vt 0.375000 1.000000
vt 0.375000 1.000000
vt 0.375000 1.000000
vt 0.375000 1.000000
vt 0.375000 1.000000
vt 0.375000 0.625000
vt 0.375000 0.500000
vt 0.375000 0.625000
vt 0.375000 0.500000
vt 0.375000 0.625000
vt 0.375000 0.500000
vt 0.375000 0.625000
vt 0.375000 0.500000
vt 0.375000 0.625000
vt 0.375000 0.500000
vt 0.375000 0.625000
vt 0.375000 0.500000
vt 0.375000 0.250000
vt 0.375000 0.250000
vt 0.375000 0.250000
vt 0.375000 0.250000
vt 0.375000 0.250000
vt 0.375000 0.250000
vt 0.000000 0.000000
vt 0.000000 0.000000
vt 0.000000 0.000000
vt 0.000000 0.000000
vt 0.000000 0.000000
vt 0.000000 0.000000
vt 0.000000 0.000000
vt 0.000000 0.000000
vt 0.000000 0.000000
vt 0.000000 0.000000
vt 0.000000 0.000000
vt 0.000000 0.000000
vt 0.375000 0.125000
vt 0.375000 0.125000
vt 0.375000 0.125000
vt 0.375000 0.125000
vt 0.375000 0.125000
vt 0.375000 0.125000
vn 0.0000 -1.0000 0.0000
vn 0.0000 0.0000 1.0000
vn 1.0000 0.0000 0.0000
vn -1.0000 0.0000 0.0000
vn 0.0000 0.0000 -1.0000
vn -0.6564 0.7544 0.0000
vn 0.6564 -0.7544 0.0000
vn 1.0000 0.0040 -0.0000
vn -1.0000 -0.0040 0.0000
vn -0.0062 1.0000 -0.0000
vn 0.8731 0.4876 0.0000
vn 0.9879 0.1550 0.0000
vn 0.9167 0.3996 0.0000
vn 0.9507 0.3102 0.0000
vn 0.3498 0.9368 0.0000
vn -0.3440 -0.9390 0.0000
vn -0.9879 -0.1550 0.0000
vn -0.8435 -0.5371 0.0000
vn -0.9507 -0.3102 0.0000
vn -0.9996 -0.0292 0.0000
vn -0.8170 0.5767 0.0000
vn -0.9970 -0.0777 -0.0000
vn -0.9676 -0.2524 0.0002
vn -0.9879 -0.1554 0.0001
vn -0.9906 -0.1366 0.0001
vn -1.0000 -0.0011 -0.0000
vn -0.0000 -0.0005 -1.0000
vn 0.0002 -0.0014 -1.0000
vn 0.0001 -0.0009 -1.0000
vn 0.9970 0.0777 -0.0000
vn 0.9765 0.2154 -0.0002
vn 0.9879 0.1554 -0.0001
vn 0.9884 0.1518 -0.0001
vn 0.9998 -0.0197 0.0000
usemtl Material
s off
f 1/1/1 5/2/1 7/3/1 3/4/1
f 4/5/2 3/4/2 7/6/2 8/7/2
f 8/8/3 7/9/3 5/10/3 6/11/3 9/12/3
f 2/13/4 1/1/4 3/4/4 4/5/4 12/14/4
f 6/11/5 5/10/5 1/1/5 2/13/5
f 26/15/2 25/16/2 11/17/2 13/18/2
f 40/19/2 39/20/2 10/21/2 14/22/2
f 40/23/6 26/15/6 13/18/6 14/24/6
f 25/25/7 39/26/7 10/27/7 11/28/7
f 54/29/8 53/30/8 16/31/8 17/32/8
f 54/33/5 67/34/5 18/35/5 17/36/5
f 53/30/5 74/37/5 15/38/5 16/31/5
f 74/37/9 67/39/9 18/40/9 15/38/9
f 18/35/10 17/36/10 16/31/10 15/38/10
f 13/18/11 11/17/11 10/27/11 14/22/11
f 8/8/12 9/12/12 33/41/12 19/42/12
f 19/42/13 33/41/13 34/43/13 20/44/13
f 20/44/14 34/43/14 35/45/14 21/46/14
f 21/46/15 35/45/15 36/47/15 22/48/15
f 22/48/16 36/47/16 37/49/16 23/50/16
f 23/50/7 37/49/7 38/51/7 24/52/7
f 24/52/7 38/51/7 39/26/7 25/25/7
f 12/14/17 4/5/17 32/53/17 46/54/17
f 46/54/18 32/53/18 31/55/18 45/56/18
f 45/56/19 31/55/19 30/57/19 44/58/19
f 44/58/20 30/57/20 29/59/20 43/60/20
f 43/60/21 29/59/21 28/61/21 42/62/21
f 42/62/6 28/61/6 27/63/6 41/64/6
f 41/64/6 27/63/6 26/15/6 40/23/6
f 12/65/2 9/66/2 33/67/2 46/68/2
f 46/68/2 33/67/2 34/69/2 45/70/2
f 45/70/2 34/69/2 35/71/2 44/72/2
f 44/72/2 35/71/2 36/73/2 43/74/2
f 43/74/2 36/73/2 37/75/2 42/76/2
f 42/76/2 37/75/2 38/77/2 41/78/2
f 41/78/2 38/77/2 39/20/2 40/19/2
f 4/5/2 8/7/2 19/79/2 32/53/2
f 32/53/2 19/79/2 20/80/2 31/55/2
f 31/55/2 20/80/2 21/81/2 30/57/2
f 30/57/2 21/81/2 22/82/2 29/59/2
f 29/59/2 22/82/2 23/83/2 28/61/2
f 28/61/2 23/83/2 24/84/2 27/63/2
f 27/63/2 24/84/2 25/16/2 26/15/2
f 2/13/22 12/14/22 61/85/22 68/86/22
f 68/86/23 61/85/23 62/87/23 69/88/23
f 69/88/24 62/87/24 63/89/24 70/90/24
f 70/90/25 63/89/25 64/91/25 71/92/25
f 71/92/26 64/91/26 65/93/26 72/94/26
f 72/94/9 65/93/9 66/95/9 73/96/9
f 73/96/9 66/95/9 67/39/9 74/37/9
f 6/11/27 2/13/27 68/86/27 47/97/27
f 47/97/28 68/86/28 69/88/28 48/98/28
f 48/98/29 69/88/29 70/90/29 49/99/29
f 49/99/29 70/90/29 71/92/29 50/100/29
f 50/100/5 71/92/5 72/94/5 51/101/5
f 51/101/5 72/94/5 73/96/5 52/102/5
f 52/102/5 73/96/5 74/37/5 53/30/5
f 9/66/27 12/65/27 61/103/27 60/104/27
f 60/104/28 61/103/28 62/105/28 59/106/28
f 59/106/29 62/105/29 63/107/29 58/108/29
f 58/108/29 63/107/29 64/109/29 57/110/29
f 57/110/5 64/109/5 65/111/5 56/112/5
f 56/112/5 65/111/5 66/113/5 55/114/5
f 55/114/5 66/113/5 67/34/5 54/33/5
f 9/12/30 6/11/30 47/97/30 60/115/30
f 60/115/31 47/97/31 48/98/31 59/116/31
f 59/116/32 48/98/32 49/99/32 58/117/32
f 58/117/33 49/99/33 50/100/33 57/118/33
f 57/118/34 50/100/34 51/101/34 56/119/34
f 56/119/8 51/101/8 52/102/8 55/120/8
f 55/120/8 52/102/8 53/30/8 54/29/8
