# Blender v2.91.2 OBJ File: 'untitled.blend'
# www.blender.org
mtllib untitled_000039.mtl
o Cube
v -0.764125 -7.965544 -1.500000
v -0.759639 -3.965548 -1.500000
v -0.764125 -7.965544 1.500000
v -0.759639 -3.965548 1.500000
v 0.235874 -7.967291 -1.500000
v 0.240360 -3.967294 -1.500000
v 0.235874 -7.967291 1.500000
v 0.240360 -3.967294 1.500000
v 0.240360 -3.967294 0.000000
v 1.536374 -2.213549 0.000000
v 1.536374 -2.213549 1.500000
v -0.759639 -3.965548 0.000000
v 1.322781 -0.994042 1.500000
v 1.322781 -0.994042 0.000000
v -1.671282 -0.299208 -1.505551
v -0.703172 0.013528 -1.505747
v -0.703462 0.016387 -0.005748
v -1.671571 -0.296349 -0.005553
v 0.248424 -3.479496 1.500000
v 0.271893 -2.992093 1.500000
v 0.287857 -2.492490 1.500000
v 0.137505 -2.316812 1.500000
v 0.362485 -2.533940 1.500000
v 0.753781 -2.427142 1.500000
v 1.145078 -2.320346 1.500000
v 0.931484 -1.100839 1.500000
v 0.540187 -1.207636 1.500000
v 0.148891 -1.314433 1.500000
v -0.468895 -1.682181 1.500000
v -0.711348 -2.442735 1.500000
v -0.727313 -2.942338 1.500000
v -0.751178 -3.453743 1.500000
v 0.248424 -3.479496 0.000000
v 0.271893 -2.992093 0.000000
v 0.287857 -2.492490 0.000000
v 0.137505 -2.316812 0.000000
v 0.362485 -2.533940 0.000000
v 0.753781 -2.427142 0.000000
v 1.145078 -2.320346 0.000000
v 0.931484 -1.100839 0.000000
v 0.540187 -1.207636 0.000000
v 0.148891 -1.314433 0.000000
v -0.468895 -1.682181 0.000000
v -0.711348 -2.442735 0.000000
v -0.727313 -2.942338 0.000000
v -0.751178 -3.453743 0.000000
v 0.160156 -3.378362 -1.500490
v -0.053498 -2.817750 -1.501789
v -0.186387 -2.346072 -1.502598
v -0.310532 -1.898542 -1.503354
v -0.402134 -1.438635 -1.503912
v -0.502480 -0.954582 -1.504524
v -0.602826 -0.470527 -1.505135
v -0.603116 -0.467667 -0.005137
v -0.502770 -0.951722 -0.004525
v -0.402424 -1.435776 -0.003914
v -0.310935 -1.895222 -0.003356
v -0.186902 -2.342291 -0.002601
v -0.054013 -2.813969 -0.001792
v 0.159898 -3.376472 -0.000492
v -0.811781 -3.582676 -0.000319
v -0.997372 -3.228127 -0.001446
v -1.130261 -2.756448 -0.002255
v -1.266669 -2.258669 -0.003085
v -1.370534 -1.748512 -0.003718
v -1.470880 -1.264457 -0.004330
v -1.571226 -0.780403 -0.004941
v -0.811523 -3.584568 -1.500317
v -0.996857 -3.231909 -1.501443
v -1.129746 -2.760231 -1.502252
v -1.266267 -2.261989 -1.503083
v -1.370244 -1.751372 -1.503716
v -1.470590 -1.267317 -1.504328
v -1.570936 -0.783262 -1.504940
vt 0.625000 0.500000
vt 0.875000 0.500000
vt 0.875000 0.750000
vt 0.625000 0.750000
vt 0.375000 0.750000
vt 0.625000 1.000000
vt 0.375000 1.000000
vt 0.375000 0.000000
vt 0.625000 0.000000
vt 0.625000 0.250000
vt 0.375000 0.250000
vt 0.375000 0.125000
vt 0.375000 0.500000
vt 0.375000 0.625000
vt 0.375000 0.750000
vt 0.375000 1.000000
vt 0.375000 1.000000
vt 0.375000 0.750000
vt 0.000000 0.000000
vt 0.000000 0.000000
vt 0.000000 0.000000
vt 0.000000 0.000000
vt 0.375000 0.625000
vt 0.375000 0.625000
vt 0.375000 0.000000
vt 0.375000 0.125000
vt 0.375000 0.125000
vt 0.375000 0.000000
vt 0.375000 0.125000
vt 0.375000 0.250000
vt 0.375000 0.250000
vt 0.375000 0.125000
vt 0.000000 0.000000
vt 0.000000 0.000000
vt 0.000000 0.000000
vt 0.000000 0.000000
vt 0.375000 0.500000
vt 0.375000 0.500000
vt 0.375000 0.625000
vt 0.375000 0.625000
vt 0.375000 0.125000
vt 0.375000 0.000000
vt 0.375000 0.125000
vt 0.375000 0.000000
vt 0.375000 0.125000
vt 0.375000 0.000000
vt 0.375000 0.125000
vt 0.375000 0.000000
vt 0.375000 0.125000
vt 0.375000 0.000000
vt 0.375000 0.125000
vt 0.375000 0.000000
vt 0.375000 0.750000
vt 0.375000 0.625000
vt 0.375000 0.750000
vt 0.375000 0.625000
vt 0.375000 0.750000
vt 0.375000 0.625000
vt 0.375000 0.750000
vt 0.375000 0.625000
vt 0.375000 0.750000
vt 0.375000 0.625000
vt 0.375000 0.750000
vt 0.375000 0.625000
vt 0.000000 0.000000
vt 0.000000 0.000000
vt 0.000000 0.000000
vt 0.000000 0.000000
vt 0.000000 0.000000
vt 0.000000 0.000000
vt 0.000000 0.000000
vt 0.000000 0.000000
vt 0.000000 0.000000
vt 0.000000 0.000000
vt 0.000000 0.000000
vt 0.000000 0.000000
vt 0.000000 0.000000
vt 0.000000 0.000000
vt 0.375000 1.000000
vt 0.375000 1.000000
vt 0.375000 1.000000
vt 0.375000 1.000000
vt 0.375000 1.000000
vt 0.375000 1.000000
vt 0.375000 0.625000
vt 0.375000 0.500000
vt 0.375000 0.625000
vt 0.375000 0.500000
vt 0.375000 0.625000
vt 0.375000 0.500000
vt 0.375000 0.625000
vt 0.375000 0.500000
vt 0.375000 0.625000
vt 0.375000 0.500000
vt 0.375000 0.625000
vt 0.375000 0.500000
vt 0.375000 0.250000
vt 0.375000 0.250000
vt 0.375000 0.250000
vt 0.375000 0.250000
vt 0.375000 0.250000
vt 0.375000 0.250000
vt 0.000000 0.000000
vt 0.000000 0.000000
vt 0.000000 0.000000
vt 0.000000 0.000000
vt 0.000000 0.000000
vt 0.000000 0.000000
vt 0.000000 0.000000
vt 0.000000 0.000000
vt 0.000000 0.000000
vt 0.000000 0.000000
vt 0.000000 0.000000
vt 0.000000 0.000000
vt 0.375000 0.125000
vt 0.375000 0.125000
vt 0.375000 0.125000
vt 0.375000 0.125000
vt 0.375000 0.125000
vt 0.375000 0.125000
vn -0.0017 -1.0000 0.0000
vn 0.0000 0.0000 1.0000
vn 1.0000 -0.0011 0.0000
vn -1.0000 0.0011 0.0000
vn 0.0000 0.0000 -1.0000
vn -0.2633 0.9647 0.0000
vn 0.2633 -0.9647 0.0000
vn 0.9792 0.2030 -0.0002
vn 0.0002 -0.0012 -1.0000
vn -0.9792 -0.2030 0.0002
vn -0.3074 0.9516 -0.0019
vn 0.9850 0.1725 0.0000
vn 0.9999 -0.0165 0.0000
vn 0.9988 -0.0481 0.0000
vn 0.9995 -0.0319 0.0000
vn 0.7597 0.6502 0.0000
vn -0.6944 -0.7196 0.0000
vn -0.9999 0.0165 0.0000
vn -0.9989 0.0466 0.0000
vn -0.9995 0.0319 0.0000
vn -0.9528 0.3037 0.0000
vn -0.5115 0.8593 0.0000
vn -0.9909 -0.1349 0.0000
vn -0.8856 -0.4645 0.0007
vn -0.9625 -0.2712 0.0004
vn -0.9644 -0.2643 0.0003
vn -0.9799 -0.1995 0.0002
vn -0.0000 -0.0008 -1.0000
vn 0.0005 -0.0024 -1.0000
vn 0.0003 -0.0016 -1.0000
vn 0.9909 0.1349 0.0000
vn 0.9346 0.3558 -0.0004
vn 0.9625 0.2712 -0.0004
vn 0.9636 0.2673 -0.0003
vn 0.9807 0.1953 -0.0002
usemtl Material
s off
f 1/1/1 5/2/1 7/3/1 3/4/1
f 4/5/2 3/4/2 7/6/2 8/7/2
f 8/8/3 7/9/3 5/10/3 6/11/3 9/12/3
f 2/13/4 1/1/4 3/4/4 4/5/4 12/14/4
f 6/11/5 5/10/5 1/1/5 2/13/5
f 26/15/2 25/16/2 11/17/2 13/18/2
f 40/19/2 39/20/2 10/21/2 14/22/2
f 40/23/6 26/15/6 13/18/6 14/24/6
f 25/25/7 39/26/7 10/27/7 11/28/7
f 54/29/8 53/30/8 16/31/8 17/32/8
f 54/33/9 67/34/9 18/35/9 17/36/9
f 53/30/9 74/37/9 15/38/9 16/31/9
f 74/37/10 67/39/10 18/40/10 15/38/10
f 18/35/11 17/36/11 16/31/11 15/38/11
f 13/18/12 11/17/12 10/27/12 14/22/12
f 8/8/13 9/12/13 33/41/13 19/42/13
f 19/42/14 33/41/14 34/43/14 20/44/14
f 20/44/15 34/43/15 35/45/15 21/46/15
f 21/46/16 35/45/16 36/47/16 22/48/16
f 22/48/17 36/47/17 37/49/17 23/50/17
f 23/50/7 37/49/7 38/51/7 24/52/7
f 24/52/7 38/51/7 39/26/7 25/25/7
f 12/14/18 4/5/18 32/53/18 46/54/18
f 46/54/19 32/53/19 31/55/19 45/56/19
f 45/56/20 31/55/20 30/57/20 44/58/20
f 44/58/21 30/57/21 29/59/21 43/60/21
f 43/60/22 29/59/22 28/61/22 42/62/22
f 42/62/6 28/61/6 27/63/6 41/64/6
f 41/64/6 27/63/6 26/15/6 40/23/6
f 12/65/2 9/66/2 33/67/2 46/68/2
f 46/68/2 33/67/2 34/69/2 45/70/2
f 45/70/2 34/69/2 35/71/2 44/72/2
f 44/72/2 35/71/2 36/73/2 43/74/2
f 43/74/2 36/73/2 37/75/2 42/76/2
f 42/76/2 37/75/2 38/77/2 41/78/2
f 41/78/2 38/77/2 39/20/2 40/19/2
f 4/5/2 8/7/2 19/79/2 32/53/2
f 32/53/2 19/79/2 20/80/2 31/55/2
f 31/55/2 20/80/2 21/81/2 30/57/2
f 30/57/2 21/81/2 22/82/2 29/59/2
f 29/59/2 22/82/2 23/83/2 28/61/2
f 28/61/2 23/83/2 24/84/2 27/63/2
f 27/63/2 24/84/2 25/16/2 26/15/2
f 2/13/23 12/14/23 61/85/23 68/86/23
f 68/86/24 61/85/24 62/87/24 69/88/24
f 69/88/25 62/87/25 63/89/25 70/90/25
f 70/90/26 63/89/26 64/91/26 71/92/26
f 71/92/27 64/91/27 65/93/27 72/94/27
f 72/94/10 65/93/10 66/95/10 73/96/10
f 73/96/10 66/95/10 67/39/10 74/37/10
f 6/11/28 2/13/28 68/86/28 47/97/28
f 47/97/29 68/86/29 69/88/29 48/98/29
f 48/98/30 69/88/30 70/90/30 49/99/30
f 49/99/30 70/90/30 71/92/30 50/100/30
f 50/100/9 71/92/9 72/94/9 51/101/9
f 51/101/9 72/94/9 73/96/9 52/102/9
f 52/102/9 73/96/9 74/37/9 53/30/9
f 9/66/28 12/65/28 61/103/28 60/104/28
f 60/104/29 61/103/29 62/105/29 59/106/29
f 59/106/30 62/105/30 63/107/30 58/108/30
f 58/108/30 63/107/30 64/109/30 57/110/30
f 57/110/9 64/109/9 65/111/9 56/112/9
f 56/112/9 65/111/9 66/113/9 55/114/9
f 55/114/9 66/113/9 67/34/9 54/33/9
f 9/12/31 6/11/31 47/97/31 60/115/31
f 60/115/32 47/97/32 48/98/32 59/116/32
f 59/116/33 48/98/33 49/99/33 58/117/33
f 58/117/34 49/99/34 50/100/34 57/118/34
f 57/118/35 50/100/35 51/101/35 56/119/35
f 56/119/8 51/101/8 52/102/8 55/120/8
f 55/120/8 52/102/8 53/30/8 54/29/8
