# Blender v2.92.0 OBJ File: 'xKey.blend'
# www.blender.org
mtllib xKey.mtl
o Cube_Cube.001
v -0.230000 -0.335000 -0.040000
v -0.230000 -0.415000 -0.040000
v -0.230000 -0.335000 0.040000
v -0.230000 -0.415000 0.040000
v -0.200000 -0.215000 -0.040000
v -0.200000 -0.295000 -0.040000
v -0.200000 -0.215000 0.040000
v -0.200000 -0.295000 0.040000
v -0.245000 -0.095000 -0.040000
v -0.245000 -0.175000 -0.040000
v -0.245000 -0.095000 0.040000
v -0.245000 -0.175000 0.040000
v -0.134350 -0.530797 -0.060000
v -0.219203 -0.615650 -0.060000
v -0.134350 -0.530797 0.060000
v -0.219203 -0.615650 0.060000
v 0.219203 -0.884350 -0.060000
v 0.134350 -0.969203 -0.060000
v 0.219203 -0.884350 0.060000
v 0.134350 -0.969203 0.060000
v -0.219203 -0.884350 -0.060000
v -0.134350 -0.969203 -0.060000
v -0.219203 -0.884350 0.060000
v -0.134350 -0.969203 0.060000
v 0.134350 -0.530797 -0.060000
v 0.219203 -0.615650 -0.060000
v 0.134350 -0.530797 0.060000
v 0.219203 -0.615650 0.060000
v 0.084853 -0.750000 0.060000
v 0.084853 -0.750000 -0.060000
v -0.084853 -0.750000 0.060000
v -0.032244 -0.802609 0.060000
v -0.000000 -0.834853 0.060000
v -0.084853 -0.750000 -0.060000
v -0.052609 -0.782244 -0.060000
v -0.000000 -0.834853 -0.060000
v -0.060000 -0.075000 -0.060000
v -0.060000 -0.775000 -0.060000
v -0.060000 -0.075000 0.060000
v -0.060000 -0.775000 0.060000
v 0.060000 -0.075000 -0.060000
v 0.060000 -0.775000 -0.060000
v 0.060000 -0.075000 0.060000
v 0.060000 -0.775000 0.060000
v -0.060000 -0.605147 0.060000
v -0.060000 -0.725147 0.060000
v 0.060000 -0.775000 0.060000
v 0.060000 -0.774853 0.060000
v 0.059853 -0.775000 0.060000
v -0.060000 -0.774853 0.060000
v -0.015323 -0.775000 0.060000
v -0.059853 -0.775000 0.060000
v 0.060000 -0.725147 0.060000
v 0.059853 -0.775000 -0.060000
v 0.060000 -0.775000 -0.060000
v 0.060000 -0.774853 -0.060000
v -0.060000 -0.725147 -0.060000
v -0.060000 -0.605147 -0.060000
v 0.060000 -0.725147 -0.060000
v -0.040790 -0.775000 -0.060000
v -0.060000 -0.774853 -0.060000
v -0.059853 -0.775000 -0.060000
v -0.060000 -0.775000 0.060000
v 0.060000 -0.605147 0.060000
v 0.060000 -0.605147 -0.060000
v -0.060000 -0.775000 -0.060000
v -0.060000 -0.095000 0.040000
v -0.060000 -0.175000 0.040000
v -0.060000 -0.095000 -0.040000
v -0.060000 -0.175000 -0.040000
v -0.060000 -0.215000 0.040000
v -0.060000 -0.295000 0.040000
v -0.060000 -0.215000 -0.040000
v -0.060000 -0.295000 -0.040000
v -0.060000 -0.335000 0.040000
v -0.060000 -0.415000 0.040000
v -0.060000 -0.335000 -0.040000
v -0.060000 -0.415000 -0.040000
vt 0.375000 0.000000
vt 0.625000 0.000000
vt 0.625000 0.250000
vt 0.375000 0.250000
vt 0.375000 0.000000
vt 0.625000 0.000000
vt 0.625000 0.250000
vt 0.375000 0.250000
vt 0.375000 0.000000
vt 0.625000 0.000000
vt 0.625000 0.250000
vt 0.375000 0.250000
vt 0.375000 0.000000
vt 0.625000 0.000000
vt 0.625000 0.250000
vt 0.375000 0.250000
vt 0.375000 0.500000
vt 0.625000 0.500000
vt 0.625000 0.750000
vt 0.375000 0.750000
vt 0.375000 0.000000
vt 0.625000 0.000000
vt 0.625000 0.250000
vt 0.375000 0.250000
vt 0.375000 0.500000
vt 0.625000 0.500000
vt 0.625000 0.750000
vt 0.375000 0.750000
vt 0.280000 0.500000
vt 0.280000 0.750000
vt 0.875000 0.500000
vt 0.875000 0.750000
vt 0.780000 0.750000
vt 0.780000 0.500000
vt 0.720000 0.750000
vt 0.720000 0.500000
vt 0.125000 0.750000
vt 0.125000 0.500000
vt 0.220000 0.500000
vt 0.220000 0.750000
vt 0.875000 0.500000
vt 0.875000 0.750000
vt 0.780000 0.750000
vt 0.780000 0.500000
vt 0.720000 0.750000
vt 0.720000 0.500000
vt 0.375000 0.250000
vt 0.625000 0.250000
vt 0.625000 0.500000
vt 0.375000 0.500000
vt 0.375000 0.750000
vt 0.625000 0.750000
vt 0.625000 1.000000
vt 0.375000 1.000000
vt 0.125000 0.500000
vt 0.125000 0.750000
vt 0.375000 0.302574
vt 0.625000 0.345000
vt 0.551777 0.345000
vt 0.625000 0.405000
vt 0.375000 0.405000
vt 0.448223 0.405000
vt 0.448440 0.405052
vt 0.448657 0.405000
vt 0.625000 0.382200
vt 0.559401 0.378421
vt 0.625000 0.362678
vt 0.625000 0.362574
vt 0.375000 0.387426
vt 0.448440 0.844948
vt 0.448223 0.845000
vt 0.375000 0.845000
vt 0.625000 0.845000
vt 0.448657 0.845000
vt 0.551777 0.905000
vt 0.625000 0.905000
vt 0.625000 1.000000
vt 0.375000 1.000000
vt 0.375000 0.947426
vt 0.375000 0.862574
vt 0.625000 0.882200
vt 0.596917 0.880582
vt 0.625000 0.887426
vt 0.625000 0.887322
vt 0.125000 0.750000
vt 0.125000 0.500000
vt 0.177574 0.500000
vt 0.177574 0.750000
vt 0.375000 0.345000
vt 0.625000 0.345000
vt 0.530000 0.345000
vt 0.448657 0.345000
vt 0.448440 0.344948
vt 0.448223 0.345000
vt 0.625000 0.405000
vt 0.375000 0.447426
vt 0.551777 0.405000
vt 0.375000 0.802574
vt 0.625000 0.845000
vt 0.551777 0.845000
vt 0.448657 0.905000
vt 0.470000 0.905000
vt 0.625000 0.905000
vt 0.625000 1.000000
vt 0.375000 1.000000
vt 0.375000 0.905000
vt 0.448223 0.905000
vt 0.448440 0.905052
vt 0.322426 0.500000
vt 0.322426 0.750000
vt 0.624947 0.750000
vt 0.625000 0.750000
vt 0.625000 0.500000
vt 0.624947 0.500000
vt 0.607195 0.500000
vt 0.564338 0.500000
vt 0.564338 0.750000
vt 0.607195 0.750000
vt 0.875000 0.500000
vt 0.875000 0.500000
vt 0.874693 0.500000
vt 0.781922 0.500000
vt 0.625307 0.500000
vt 0.875000 0.750000
vt 0.875000 0.750000
vt 0.625307 0.750000
vt 0.834978 0.750000
vt 0.874693 0.750000
vt 0.375000 0.442708
vt 0.625000 0.442708
vt 0.625000 0.807292
vt 0.625000 1.000000
vt 0.375000 1.000000
vt 0.375000 0.807292
vt 0.125000 0.750000
vt 0.125000 0.500000
vt 0.317708 0.500000
vt 0.317708 0.750000
vt 0.875000 0.500000
vt 0.875000 0.750000
vt 0.682292 0.750000
vt 0.682292 0.500000
vt 0.382143 0.208333
vt 0.375000 0.000000
vt 0.382143 0.041667
vt 0.375000 0.483333
vt 0.625000 0.483333
vt 0.625000 0.766667
vt 0.625000 1.000000
vt 0.375000 1.000000
vt 0.375000 0.766667
vt 0.125000 0.750000
vt 0.125000 0.500000
vt 0.358333 0.500000
vt 0.358333 0.750000
vt 0.875000 0.500000
vt 0.875000 0.750000
vt 0.641667 0.750000
vt 0.641667 0.500000
vt 0.410714 0.208333
vt 0.410714 0.041667
vt 0.425000 0.041667
vt 0.425000 0.208333
vt 0.375000 0.452381
vt 0.625000 0.452381
vt 0.625000 0.797619
vt 0.625000 1.000000
vt 0.375000 1.000000
vt 0.375000 0.797619
vt 0.125000 0.750000
vt 0.125000 0.500000
vt 0.327381 0.500000
vt 0.327381 0.750000
vt 0.875000 0.500000
vt 0.875000 0.750000
vt 0.672619 0.750000
vt 0.672619 0.500000
vt 0.467857 0.208333
vt 0.453571 0.208333
vt 0.453571 0.041667
vt 0.467857 0.041667
vt 0.624947 0.250000
vt 0.625000 0.250000
vt 0.496429 0.208333
vt 0.496429 0.041667
vt 0.625000 0.000000
vt 0.625000 0.000000
vt 0.624947 0.000000
vt 0.564338 0.000000
vt 0.564338 0.250000
vt 0.607195 0.250000
vn -1.0000 0.0000 0.0000
vn -0.7071 0.7071 0.0000
vn 0.7071 -0.7071 0.0000
vn -0.7071 -0.7071 0.0000
vn 0.7071 0.7071 0.0000
vn 0.0000 0.0000 1.0000
vn 0.0000 0.0000 -1.0000
vn 0.0000 1.0000 0.0000
vn 1.0000 -0.0000 0.0000
vn 0.0000 -0.1191 -0.9929
vn 0.0000 -1.0000 0.0000
usemtl None
s off
f 1/1/1 2/2/1 4/3/1 3/4/1
f 5/5/1 6/6/1 8/7/1 7/8/1
f 9/9/1 10/10/1 12/11/1 11/12/1
f 13/13/2 14/14/2 16/15/2 15/16/2
f 19/17/3 20/18/3 18/19/3 17/20/3
f 21/21/4 22/22/4 24/23/4 23/24/4
f 27/25/5 28/26/5 26/27/5 25/28/5
f 29/29/5 19/17/5 17/20/5 30/30/5
f 16/31/4 14/32/4 34/33/4 31/34/4
f 36/35/4 18/19/4 20/18/4 33/36/4
f 21/37/2 23/38/2 31/39/2 34/40/2
f 24/41/3 22/42/3 36/43/3 33/44/3
f 30/45/3 26/27/3 28/26/3 29/46/3
f 39/47/6 40/48/6 44/49/6 43/50/6
f 41/51/7 42/52/7 38/53/7 37/54/7
f 39/55/8 43/50/8 41/51/8 37/56/8
f 45/57/6 15/16/6 16/15/6 31/58/6 46/59/6
f 33/60/6 20/18/6 19/17/6 29/61/6 48/62/6 47/63/6 49/64/6
f 32/65/6 51/66/6 52/67/6
f 31/58/6 50/68/6 46/59/6
f 32/65/6 33/60/6 49/64/6 51/66/6
f 29/61/6 53/69/6 48/62/6
f 55/70/7 56/71/7 30/72/7 17/20/7 18/19/7 36/73/7 54/74/7
f 57/75/7 34/76/7 14/77/7 13/78/7 58/79/7
f 30/72/7 56/71/7 59/80/7
f 36/73/7 35/81/7 60/82/7 54/74/7
f 34/76/7 57/75/7 61/83/7
f 35/81/7 62/84/7 60/82/7
f 13/85/5 15/86/5 45/87/5 58/88/5
f 31/89/6 23/24/6 24/23/6 33/90/6 32/91/6 52/92/6 63/93/6 50/94/6
f 29/95/6 28/26/6 27/25/6 64/96/6 53/97/6
f 65/98/7 25/28/7 26/27/7 30/99/7 59/100/7
f 62/101/7 35/102/7 36/103/7 22/104/7 21/105/7 34/106/7 61/107/7 66/108/7
f 64/109/2 27/25/2 25/28/2 65/110/2
f 56/111/9 55/112/9 42/52/9 41/51/9 43/50/9 44/49/9 47/113/9 48/114/9 53/115/9 64/116/9 65/117/9 59/118/9
f 47/113/10 44/49/10 40/119/10 63/120/10 52/121/10 51/122/10 49/123/10
f 66/124/10 38/125/10 42/52/10 55/112/10 54/126/10 60/127/10 62/128/10
f 67/129/6 11/12/6 12/11/6 68/130/6
f 70/131/7 10/132/7 9/133/7 69/134/7
f 9/135/8 11/136/8 67/137/8 69/138/8
f 12/139/11 10/140/11 70/141/11 68/142/11
f 67/143/1 39/47/1 37/144/1 69/145/1
f 71/146/6 7/8/6 8/7/6 72/147/6
f 74/148/7 6/149/7 5/150/7 73/151/7
f 5/152/8 7/153/8 71/154/8 73/155/8
f 8/156/11 6/157/11 74/158/11 72/159/11
f 68/160/1 70/161/1 73/162/1 71/163/1
f 75/164/6 3/4/6 4/3/6 76/165/6
f 78/166/7 2/167/7 1/168/7 77/169/7
f 1/170/8 3/171/8 75/172/8 77/173/8
f 4/174/11 2/175/11 78/176/11 76/177/11
f 75/178/1 72/179/1 74/180/1 77/181/1
f 50/182/1 63/183/1 40/48/1 39/47/1 67/143/1 68/160/1 71/163/1 72/179/1 75/178/1 76/184/1 78/185/1 77/181/1 74/180/1 73/162/1 70/161/1 69/145/1 37/144/1 38/186/1 66/187/1 61/188/1 58/189/1 45/190/1 46/191/1
