<svg xmlns="http://www.w3.org/2000/svg" viewBox="0 0 400 400">
  <rect width="400" height="400" fill="#F8F6F2"/>
  <!-- Body -->
  <ellipse cx="200" cy="215" rx="22" ry="30" fill="none" stroke="#1C1917" stroke-width="2.2"/>
  <!-- Head -->
  <circle cx="200" cy="174" r="17" fill="none" stroke="#1C1917" stroke-width="2.2"/>
  <!-- Eyes -->
  <circle cx="194" cy="172" r="2.8" fill="#1C1917"/>
  <circle cx="206" cy="172" r="2.8" fill="#1C1917"/>
  <!-- Left legs — two segments each, IK joints marked -->
  <line x1="179" y1="200" x2="142" y2="174" stroke="#1C1917" stroke-width="1.8" stroke-linecap="round"/>
  <line x1="142" y1="174" x2="106" y2="152" stroke="#1C1917" stroke-width="1.8" stroke-linecap="round"/>
  <line x1="179" y1="212" x2="138" y2="208" stroke="#1C1917" stroke-width="1.8" stroke-linecap="round"/>
  <line x1="138" y1="208" x2="100" y2="218" stroke="#1C1917" stroke-width="1.8" stroke-linecap="round"/>
  <line x1="179" y1="224" x2="140" y2="240" stroke="#1C1917" stroke-width="1.8" stroke-linecap="round"/>
  <line x1="140" y1="240" x2="104" y2="265" stroke="#1C1917" stroke-width="1.8" stroke-linecap="round"/>
  <line x1="179" y1="234" x2="143" y2="262" stroke="#1C1917" stroke-width="1.8" stroke-linecap="round"/>
  <line x1="143" y1="262" x2="112" y2="294" stroke="#1C1917" stroke-width="1.8" stroke-linecap="round"/>
  <!-- Right legs -->
  <line x1="221" y1="200" x2="258" y2="174" stroke="#1C1917" stroke-width="1.8" stroke-linecap="round"/>
  <line x1="258" y1="174" x2="294" y2="152" stroke="#1C1917" stroke-width="1.8" stroke-linecap="round"/>
  <line x1="221" y1="212" x2="262" y2="208" stroke="#1C1917" stroke-width="1.8" stroke-linecap="round"/>
  <line x1="262" y1="208" x2="300" y2="218" stroke="#1C1917" stroke-width="1.8" stroke-linecap="round"/>
  <line x1="221" y1="224" x2="260" y2="240" stroke="#1C1917" stroke-width="1.8" stroke-linecap="round"/>
  <line x1="260" y1="240" x2="296" y2="265" stroke="#1C1917" stroke-width="1.8" stroke-linecap="round"/>
  <line x1="221" y1="234" x2="257" y2="262" stroke="#1C1917" stroke-width="1.8" stroke-linecap="round"/>
  <line x1="257" y1="262" x2="288" y2="294" stroke="#1C1917" stroke-width="1.8" stroke-linecap="round"/>
  <!-- IK joint dots -->
  <circle cx="142" cy="174" r="3.2" fill="#1C1917"/>
  <circle cx="138" cy="208" r="3.2" fill="#1C1917"/>
  <circle cx="140" cy="240" r="3.2" fill="#1C1917"/>
  <circle cx="143" cy="262" r="3.2" fill="#1C1917"/>
  <circle cx="258" cy="174" r="3.2" fill="#1C1917"/>
  <circle cx="262" cy="208" r="3.2" fill="#1C1917"/>
  <circle cx="260" cy="240" r="3.2" fill="#1C1917"/>
  <circle cx="257" cy="262" r="3.2" fill="#1C1917"/>
</svg>
